<svg width="290" height="338" viewBox="0 0 290 338" fill="none"
  xmlns="http://www.w3.org/2000/svg">
  <g opacity="0.4">
    <path d="M212.096 96.3318C174.833 117.419 145.667 136.165 152.469 146.983C159.272 157.801 204.422 158.598 241.705 137.531C278.989 116.464 294.279 81.5498 287.476 70.7218C280.674 59.8938 249.358 75.245 212.096 96.3318Z" fill="url(#paint0_linear_1067_4399)"/>
    <g style="mix-blend-mode:overlay">
      <path d="M203.175 134.329L168.641 153.822L170.326 154.02L178.26 149.531C182.528 147.103 187.262 145.502 192.188 144.822C197.113 144.143 202.131 144.398 206.952 145.572L217.443 148.086L218.94 147.592L207.161 144.776C199.721 142.967 191.882 143.311 184.651 145.765L203.619 135.056C206.577 133.37 209.86 132.258 213.275 131.784C216.69 131.31 220.171 131.483 223.515 132.295L242.785 136.912L243.797 136.323L223.724 131.478C220.27 130.641 216.675 130.462 213.148 130.951C209.621 131.441 206.232 132.589 203.175 134.329Z" fill="white"/>
      <path d="M194.886 111.564L196.571 105.289L195.491 105.933L194.051 111.376C193.215 114.551 191.724 117.538 189.665 120.163C187.606 122.789 185.019 125.001 182.053 126.673L151.494 143.964L151.603 144.845L182.481 127.376C185.548 125.65 188.224 123.364 190.354 120.65C192.483 117.935 194.024 114.847 194.886 111.564Z" fill="white"/>
      <path d="M252.28 113.093L243.547 110.995C243.538 110.654 243.41 110.325 243.184 110.059C242.958 109.793 242.646 109.605 242.296 109.524C241.946 109.444 241.578 109.475 241.248 109.613C240.919 109.751 240.647 109.987 240.473 110.287C240.3 110.586 240.236 110.932 240.29 111.269C240.345 111.607 240.515 111.918 240.774 112.155C241.034 112.392 241.369 112.541 241.727 112.579C242.084 112.617 242.445 112.542 242.754 112.366C242.998 112.223 243.199 112.024 243.338 111.787L252.436 113.964L262.082 108.521L273.365 111.223L273.939 110.52L261.941 107.645L252.28 113.093Z" fill="white"/>
      <path d="M278.347 79.4021L281.571 67.3221L280.658 67.2231L277.528 79.1992C276.684 82.4144 275.174 85.4385 273.088 88.0958C271.001 90.7532 268.379 92.9909 265.374 94.6791L261.247 97.0149L252.619 94.9711C251.888 94.8038 251.148 94.6799 250.402 94.5999L257.335 90.6755C259.912 89.2314 262.161 87.3163 263.952 85.0413C265.743 82.7663 267.04 80.1767 267.768 77.4226L270.11 68.6385L269.14 68.9107L266.933 77.2247C266.236 79.872 264.992 82.3619 263.274 84.5501C261.556 86.7383 259.397 88.5814 256.922 89.9728L248.925 94.4762C245.627 94.3752 242.368 95.1757 239.535 96.7823L223.181 106.037C223.212 105.943 223.244 105.853 223.27 105.764L228.898 87.0579L227.855 87.632L222.472 105.542C220.142 113.322 214.76 119.961 207.432 124.095L158.979 151.516L159.971 151.902L207.875 124.793C214.921 120.818 220.227 114.574 222.826 107.2L240 97.4801C242.751 95.9149 245.929 95.154 249.134 95.2927V95.3224L249.191 95.2927C250.286 95.3434 251.373 95.4975 252.436 95.753L279.881 102.315L280.335 101.598L262.442 97.3118L265.833 95.3917C268.929 93.6436 271.63 91.3303 273.778 88.5857C275.926 85.8412 277.479 82.7198 278.347 79.4021Z" fill="white"/>
      <path d="M240.443 124.54C240.253 124.243 239.963 124.014 239.62 123.89C239.278 123.766 238.901 123.754 238.55 123.856C238.199 123.958 237.895 124.168 237.684 124.453C237.473 124.738 237.369 125.082 237.387 125.429C237.406 125.777 237.545 126.109 237.785 126.372C238.025 126.636 238.35 126.816 238.71 126.885C239.07 126.953 239.443 126.905 239.771 126.75C240.099 126.594 240.363 126.339 240.521 126.025L254.283 129.326L255.128 128.687L240.662 125.223C240.646 124.982 240.571 124.749 240.443 124.54Z" fill="white"/>
      <path d="M252.749 119.017L228.752 113.217C228.75 112.945 228.671 112.678 228.523 112.445C228.356 112.179 228.109 111.967 227.815 111.834C227.52 111.701 227.191 111.654 226.868 111.699C226.545 111.744 226.244 111.879 226.002 112.086C225.76 112.294 225.588 112.565 225.509 112.865C225.429 113.165 225.445 113.48 225.555 113.772C225.664 114.063 225.862 114.317 226.124 114.502C226.386 114.686 226.7 114.793 227.025 114.808C227.351 114.824 227.674 114.747 227.954 114.588C228.2 114.448 228.402 114.248 228.539 114.009L252.895 119.893L262.541 114.449L269.176 115.998L269.813 115.311L262.405 113.574L252.749 119.017Z" fill="white"/>
    </g>
  </g>
  <g opacity="0.4">
    <path d="M76.9421 94.3572C114.205 115.444 143.371 134.19 136.569 145.008C129.766 155.826 84.595 156.623 47.3636 135.536C10.1323 114.449 -5.23604 79.5751 1.56649 68.7422C8.36903 57.9093 39.6847 73.2703 76.9421 94.3572Z" fill="url(#paint1_linear_1067_4399)"/>
    <g style="mix-blend-mode:overlay">
      <path d="M85.8627 132.354L120.397 151.847L118.712 152.045L110.778 147.557C106.513 145.132 101.785 143.534 96.8653 142.855C91.9458 142.175 86.9332 142.428 82.1172 143.598L71.6212 146.117L70.1293 145.622L81.9085 142.801C89.3462 140.994 97.1837 141.339 104.413 143.791L85.4193 133.076C82.4608 131.392 79.1793 130.28 75.7649 129.807C72.3505 129.334 68.8711 129.508 65.5282 130.32L46.2526 134.937L45.2458 134.348L65.3144 129.528C68.7663 128.687 72.3597 128.504 75.8868 128.989C79.4138 129.474 82.8046 130.618 85.8627 132.354Z" fill="white"/>
      <path d="M94.1572 109.59L92.467 103.314L93.5469 103.953L94.992 109.397C95.8267 112.571 97.3171 115.558 99.3766 118.183C101.436 120.807 104.024 123.019 106.99 124.688L137.55 141.984L137.435 142.865L106.557 125.396C103.491 123.671 100.815 121.385 98.6869 118.672C96.5584 115.959 95.0187 112.872 94.1572 109.59Z" fill="white"/>
      <path d="M36.7584 111.119L45.5118 109.02C45.5129 108.746 45.591 108.477 45.738 108.24C45.8849 108.003 46.0955 107.808 46.3482 107.674C46.6008 107.54 46.8864 107.472 47.1758 107.478C47.4651 107.483 47.7479 107.561 47.9949 107.704C48.2138 107.826 48.4002 107.993 48.5395 108.195C48.6788 108.396 48.7673 108.624 48.7982 108.863C48.8291 109.102 48.8014 109.344 48.7175 109.571C48.6335 109.798 48.4954 110.004 48.314 110.172C48.1326 110.34 47.9128 110.466 47.6716 110.541C47.4304 110.615 47.1744 110.636 46.9235 110.601C46.6725 110.566 46.4334 110.477 46.2248 110.34C46.0161 110.203 45.8436 110.023 45.7205 109.812L36.6227 111.99L26.9771 106.546L15.6934 109.253L15.1196 108.55L27.118 105.675L36.7584 111.119Z" fill="white"/>
      <path d="M10.6905 77.4223L7.46667 65.3473L8.37959 65.2483L11.5096 77.2244C12.355 80.4393 13.8648 83.463 15.9513 86.1202C18.0377 88.7775 20.6594 91.0154 23.6644 92.7042L27.7908 95.0401L36.4453 92.9913C37.1731 92.8212 37.912 92.6972 38.6571 92.6201L31.7242 88.6957C29.1504 87.2474 26.9053 85.3289 25.1188 83.0514C23.3323 80.7739 22.04 78.1827 21.3169 75.428L18.9799 66.6439L19.9501 66.916L22.1517 75.23C22.8487 77.8773 24.0925 80.3672 25.8108 82.5554C27.5292 84.7437 29.688 86.5868 32.1624 87.9781L40.097 92.4964C43.395 92.3914 46.6551 93.1903 49.4869 94.7976L65.8412 104.057C65.8412 103.963 65.7786 103.874 65.7525 103.785L60.1707 85.0732L61.214 85.6472L66.6029 103.557C68.93 111.337 74.3099 117.976 81.6372 122.11L130.095 149.531L129.099 149.917L81.1939 122.808C74.1485 118.833 68.8427 112.59 66.2429 105.215L49.0696 95.4953C46.3182 93.929 43.1406 93.1681 39.9352 93.308V93.3377L39.8779 93.308C38.7829 93.3586 37.6959 93.5128 36.6331 93.7682L9.19342 100.33L8.73429 99.6127L26.6275 95.3271L23.2366 93.4069C20.1348 91.6623 17.4287 89.3512 15.2751 86.6073C13.1215 83.8635 11.5632 80.7415 10.6905 77.4223Z" fill="white"/>
      <path d="M48.5949 122.565C48.7615 122.299 49.0075 122.086 49.3018 121.953C49.596 121.82 49.9253 121.772 50.248 121.817C50.5708 121.861 50.8724 121.995 51.1147 122.202C51.3571 122.409 51.5294 122.68 51.6096 122.979C51.6899 123.279 51.6747 123.595 51.5658 123.886C51.457 124.178 51.2594 124.432 50.9981 124.617C50.7368 124.803 50.4235 124.91 50.0979 124.926C49.7722 124.942 49.4489 124.866 49.1687 124.708C48.8832 124.552 48.6569 124.315 48.5218 124.03L34.7603 127.331L33.9099 126.693L48.3758 123.228C48.3952 122.995 48.47 122.768 48.5949 122.565Z" fill="white"/>
      <path d="M36.2888 117.042L60.2854 111.242C60.2921 110.859 60.4453 110.492 60.7165 110.208C60.9878 109.924 61.3585 109.744 61.7596 109.7C62.1608 109.656 62.565 109.753 62.897 109.971C63.2289 110.189 63.4659 110.514 63.5638 110.885C63.6617 111.257 63.6139 111.65 63.4292 111.99C63.2445 112.331 62.9356 112.596 62.56 112.737C62.1843 112.877 61.7677 112.884 61.3876 112.754C61.0075 112.625 60.69 112.369 60.4942 112.034L36.1375 117.918L26.4919 112.475L19.8563 114.024L19.2198 113.336L26.6275 111.599L36.2888 117.042Z" fill="white"/>
    </g>
  </g>
  <g opacity="0.4">
    <path d="M216.238 121.353C179.043 125.703 149.099 130.879 150.508 141.678C151.916 152.476 187.322 168.035 224.522 163.685C261.722 159.335 286.631 136.833 285.228 126.034C283.825 115.236 253.459 117.003 216.238 121.353Z" fill="url(#paint2_linear_1067_4399)"/>
    <g style="mix-blend-mode:overlay">
      <path d="M195.23 148.418L160.774 152.407L162.037 153.119L169.95 152.194C174.213 151.685 178.539 151.983 182.68 153.071C186.82 154.158 190.692 156.013 194.072 158.528L201.443 163.972L202.8 164.081L194.51 157.994C189.292 154.107 182.964 151.794 176.346 151.353L195.308 149.136C198.266 148.782 201.269 148.988 204.142 149.743C207.016 150.497 209.703 151.784 212.049 153.53L225.586 163.556L226.598 163.418L212.513 152.976C210.094 151.169 207.32 149.836 204.353 149.053C201.387 148.271 198.286 148.055 195.23 148.418Z" fill="white"/>
      <path d="M197.04 127.702L200.692 123.298L199.602 123.446L196.472 127.267C194.642 129.503 192.363 131.372 189.766 132.766C187.169 134.16 184.306 135.051 181.343 135.388L150.847 138.956L150.607 139.688L181.432 136.086C184.489 135.736 187.442 134.815 190.121 133.376C192.8 131.937 195.152 130.009 197.04 127.702Z" fill="white"/>
      <path d="M241.846 147.883L235.701 143.33C235.797 143.113 235.833 142.877 235.806 142.643C235.775 142.376 235.662 142.124 235.481 141.918C235.299 141.713 235.057 141.563 234.786 141.489C234.514 141.414 234.226 141.418 233.956 141.499C233.687 141.581 233.45 141.737 233.274 141.947C233.098 142.157 232.992 142.412 232.97 142.679C232.947 142.946 233.009 143.214 233.148 143.448C233.286 143.681 233.495 143.871 233.747 143.992C233.999 144.113 234.283 144.16 234.564 144.127C234.811 144.097 235.045 144.004 235.242 143.86L241.633 148.591L251.263 147.468L259.197 153.367L259.912 153L251.487 146.76L241.846 147.883Z" fill="white"/>
      <path d="M274.847 129.87L281.827 121.388L281.144 121.006L274.258 129.419C272.408 131.681 270.104 133.573 267.478 134.984C264.853 136.395 261.958 137.297 258.962 137.639L254.841 138.134L248.79 133.656C248.276 133.28 247.738 132.936 247.178 132.626L254.1 131.82C256.665 131.526 259.143 130.753 261.39 129.545C263.638 128.337 265.611 126.719 267.194 124.782L272.27 118.616L271.404 118.507L266.61 124.352C265.081 126.217 263.178 127.775 261.01 128.937C258.842 130.1 256.453 130.842 253.98 131.122L246.02 132.052C243.445 130.874 240.567 130.425 237.73 130.761L221.407 132.666C221.46 132.606 221.522 132.547 221.574 132.483L232.895 119.556L231.851 119.66L221.016 132.032C216.323 137.409 209.639 140.878 202.335 141.727L153.961 147.384L154.603 148.017L202.424 142.425C209.454 141.614 215.943 138.433 220.708 133.463L237.856 131.483C240.606 131.155 243.397 131.605 245.879 132.775V132.804H245.936C246.782 133.206 247.584 133.687 248.331 134.24L267.632 148.502L268.253 148.081L255.686 138.778L259.072 138.382C262.164 138.024 265.151 137.087 267.859 135.626C270.567 134.165 272.942 132.208 274.847 129.87Z" fill="white"/>
      <path d="M228.283 153.02C228.253 152.754 228.14 152.501 227.958 152.296C227.776 152.09 227.533 151.941 227.262 151.867C226.99 151.792 226.701 151.796 226.432 151.878C226.162 151.96 225.925 152.117 225.75 152.327C225.574 152.538 225.469 152.793 225.447 153.061C225.425 153.328 225.488 153.596 225.627 153.829C225.766 154.063 225.976 154.252 226.228 154.372C226.481 154.493 226.766 154.539 227.047 154.505C227.328 154.47 227.593 154.359 227.808 154.183L237.47 161.339L238.377 161.112L228.215 153.589C228.282 153.407 228.305 153.212 228.283 153.02Z" fill="white"/>
      <path d="M240.041 152.723L223.202 140.198C223.302 139.984 223.34 139.748 223.312 139.515C223.282 139.248 223.169 138.996 222.987 138.791C222.805 138.585 222.563 138.436 222.292 138.361C222.02 138.287 221.732 138.29 221.462 138.372C221.193 138.453 220.955 138.609 220.78 138.819C220.604 139.029 220.498 139.284 220.476 139.551C220.453 139.819 220.515 140.086 220.654 140.32C220.792 140.554 221.001 140.743 221.253 140.864C221.505 140.985 221.79 141.033 222.07 141C222.316 140.969 222.549 140.878 222.748 140.737L239.838 153.436L249.463 152.313L254.158 155.732L254.914 155.396L249.698 151.575L240.041 152.723Z" fill="white"/>
    </g>
  </g>
  <g opacity="0.4">
    <path d="M74.4488 116.28C111.357 122.476 140.972 129.147 138.974 139.847C136.976 150.546 100.746 164.338 63.8537 158.157C26.9615 151.976 3.31433 128.247 5.31231 117.532C7.3103 106.818 37.5461 110.08 74.4488 116.28Z" fill="url(#paint3_linear_1067_4399)"/>
    <g style="mix-blend-mode:overlay">
      <path d="M93.9328 144.37L128.123 150.071L126.824 150.724L118.968 149.408C114.74 148.687 110.404 148.769 106.21 149.649C102.016 150.528 98.047 152.187 94.5328 154.53L86.8694 159.617L85.5027 159.657L94.105 153.956C99.5303 150.334 105.975 148.337 112.609 148.225L93.8285 145.063C90.8941 144.563 87.8842 144.62 84.9732 145.231C82.0621 145.841 79.3077 146.994 76.8691 148.621L62.7841 157.954L61.7773 157.771L76.4309 148.042C78.9477 146.363 81.7904 145.174 84.7945 144.544C87.7986 143.914 90.9045 143.854 93.9328 144.37Z" fill="white"/>
      <path d="M93.2704 123.575L89.8848 118.997L90.9647 119.2L93.8808 123.159C95.5834 125.481 97.754 127.459 100.267 128.981C102.781 130.502 105.587 131.536 108.524 132.022L138.781 137.1L138.974 137.847L108.393 132.715C105.361 132.214 102.464 131.149 99.8681 129.58C97.2724 128.011 95.03 125.97 93.2704 123.575Z" fill="white"/>
      <path d="M47.4002 141.49L53.7906 137.248C53.7074 137.026 53.6841 136.788 53.7229 136.556C53.7726 136.293 53.9033 136.05 54.0986 135.857C54.2938 135.665 54.5448 135.532 54.8198 135.474C55.0949 135.417 55.3815 135.439 55.6437 135.536C55.9059 135.633 56.1319 135.802 56.2929 136.021C56.4539 136.241 56.5429 136.5 56.5485 136.767C56.5541 137.034 56.4761 137.297 56.3245 137.522C56.1728 137.747 55.9543 137.924 55.6965 138.031C55.4386 138.139 55.153 138.171 54.8757 138.124C54.6337 138.08 54.4075 137.978 54.2184 137.827L47.5724 142.232L38.0102 140.638L29.7679 146.107L29.0792 145.701L37.838 139.896L47.4002 141.49Z" fill="white"/>
      <path d="M15.469 121.868L8.96387 113.049L9.66804 112.702L16.0793 121.462C17.8018 123.812 19.9986 125.815 22.5426 127.354C25.0866 128.893 27.9273 129.938 30.9 130.429L34.9898 131.117L41.2759 126.945C41.8104 126.596 42.368 126.281 42.9452 126L36.0801 124.847C33.5377 124.424 31.1085 123.529 28.9328 122.211C26.7571 120.894 24.8779 119.181 23.4036 117.171L18.672 110.738L19.5433 110.673L24.0139 116.746C25.4267 118.687 27.2318 120.343 29.3247 121.617C31.4175 122.891 33.7563 123.759 36.2053 124.169L44.1033 125.495C46.738 124.445 49.6363 124.139 52.4499 124.614L68.6477 127.336L68.4912 127.143L57.9013 113.672L58.9447 113.826L69.0807 126.722C73.4749 132.328 79.9656 136.125 87.2191 137.332L135.212 145.394L134.534 145.993L87.0939 138.025C80.1283 136.86 73.8348 133.362 69.3572 128.167L52.3456 125.312C49.6172 124.846 46.8044 125.154 44.2598 126.198V126.232H44.2025C43.3337 126.591 42.5051 127.032 41.7297 127.549L21.6873 140.826L21.0874 140.381L34.1291 131.711L30.7696 131.151C27.6986 130.641 24.7649 129.558 22.1385 127.964C19.5121 126.371 17.2451 124.298 15.469 121.868Z" fill="white"/>
      <path d="M60.6713 147.304C60.7201 147.041 60.8502 146.797 61.045 146.604C61.2398 146.411 61.4906 146.277 61.7658 146.219C62.0409 146.161 62.3279 146.182 62.5905 146.279C62.8532 146.376 63.0796 146.545 63.2411 146.764C63.4026 146.983 63.4919 147.242 63.4979 147.51C63.5038 147.777 63.426 148.04 63.2743 148.265C63.1226 148.491 62.9038 148.668 62.6457 148.775C62.3876 148.883 62.1017 148.915 61.8242 148.868C61.5441 148.822 61.2856 148.696 61.0835 148.507L51.0518 155.173L50.165 154.901L60.7027 147.923C60.6439 147.721 60.6332 147.51 60.6713 147.304Z" fill="white"/>
      <path d="M48.9652 146.438L66.4828 134.774C66.3995 134.552 66.3761 134.314 66.4149 134.081C66.4646 133.818 66.5953 133.575 66.7906 133.383C66.9859 133.19 67.2369 133.057 67.512 133C67.787 132.943 68.0737 132.964 68.3359 133.061C68.598 133.159 68.824 133.328 68.985 133.547C69.146 133.766 69.2349 134.025 69.2405 134.293C69.2461 134.56 69.1683 134.822 69.0166 135.047C68.8649 135.272 68.6463 135.45 68.3885 135.557C68.1306 135.664 67.845 135.696 67.5677 135.65C67.3257 135.605 67.0995 135.503 66.9104 135.353L49.1426 147.185L39.5752 145.562L34.7184 148.744L33.9829 148.373L39.403 144.815L48.9652 146.438Z" fill="white"/>
    </g>
  </g>
  <path d="M92.8689 253.615C91.3039 260.444 93.1089 270.52 95.6129 271.044C98.1169 271.569 104.262 263.166 105.827 256.341C107.392 249.517 103.866 246.845 101.356 246.315C98.8472 245.786 94.4652 246.785 92.8689 253.615Z" fill="#141414"/>
  <path d="M128.306 181.986C127.982 182.357 127.461 183.045 127.059 183.624C126.657 184.203 126.224 184.871 125.817 185.514C125.03 186.816 124.252 188.152 123.574 189.523C122.167 192.281 120.908 195.106 119.803 197.985C118.66 200.865 117.679 203.81 116.725 206.764L115.394 211.218L114.174 215.722V215.806C114.044 216.289 113.815 216.743 113.5 217.142C113.185 217.542 112.791 217.878 112.339 218.133C111.887 218.387 111.386 218.555 110.866 218.626C110.346 218.697 109.816 218.671 109.307 218.547C108.797 218.424 108.318 218.207 107.898 217.908C107.477 217.61 107.122 217.235 106.854 216.807C106.585 216.378 106.408 215.903 106.333 215.41C106.258 214.916 106.287 214.413 106.416 213.93C106.416 213.831 106.474 213.727 106.505 213.638L108.154 209.07L109.922 204.542C111.179 201.543 112.457 198.559 113.913 195.634C115.368 192.71 116.913 189.81 118.66 186.994C119.531 185.583 120.47 184.198 121.456 182.837C121.978 182.159 122.499 181.486 123.021 180.823C123.605 180.107 124.232 179.425 124.899 178.779C125.333 178.365 125.917 178.125 126.532 178.109C127.147 178.093 127.745 178.302 128.201 178.693C128.658 179.083 128.939 179.626 128.986 180.207C129.032 180.789 128.841 181.366 128.452 181.817L128.306 181.986Z" fill="#141414"/>
  <path d="M92.5613 240.906C90.532 249.037 94.1263 254.223 96.7346 256.782C97.4214 257.452 98.2961 257.923 99.2555 258.138C100.215 258.353 101.219 258.303 102.149 257.994C105.697 256.826 111.352 253.713 113.381 245.578C115.822 235.784 116.381 220.834 113.532 214.662C112.833 213.143 112.118 211.995 110.981 211.738C109.844 211.48 108.54 212.079 107.288 213.005C101.769 217.092 95.0444 230.954 92.5613 240.906Z" fill="url(#paint4_linear_1067_4399)"/>
  <g style="mix-blend-mode:overlay" opacity="0.5">
    <path d="M98.2575 230.855C97.8558 231.77 97.9758 232.691 98.534 232.909C99.0922 233.126 99.8643 232.562 100.266 231.642C100.668 230.721 100.542 229.801 99.9842 229.583C99.426 229.365 98.6592 229.934 98.2575 230.855Z" fill="white"/>
  </g>
  <g style="mix-blend-mode:overlay">
    <path d="M111.565 211.931C112.244 212.396 112.729 213.356 113.188 214.574C115.535 220.72 114.669 235.641 112.27 245.454C110.277 253.605 105.227 256.777 102.071 257.989C101.891 258.056 101.706 258.11 101.518 258.153C111.654 241.327 111.018 211.678 111.018 211.678L111.565 211.931Z" fill="#4D4D4D"/>
  </g>
  <g style="mix-blend-mode:overlay" opacity="0.5">
    <path d="M94.8301 240.322C93.9902 243.603 94.2145 246.473 95.3518 246.731C96.489 246.988 97.3133 244.553 98.1532 241.287C98.9931 238.021 99.5095 235.121 98.3879 234.854C97.2663 234.586 95.6648 237.041 94.8301 240.322Z" fill="white"/>
  </g>
  <path d="M200.911 255.668C202.956 262.384 201.808 272.549 199.346 273.227C196.884 273.905 190.196 265.888 188.146 259.167C186.096 252.447 189.471 249.571 191.938 248.898C194.406 248.225 198.866 248.948 200.911 255.668Z" fill="#141414"/>
  <path d="M165.787 177.121C168.397 179.828 170.776 182.728 172.903 185.791C175.019 188.8 176.968 191.912 178.74 195.115C180.472 198.336 182.136 201.598 183.529 204.973C184.922 208.348 186.2 211.763 187.343 215.227C187.499 215.703 187.556 216.203 187.509 216.7C187.462 217.197 187.312 217.68 187.068 218.122C186.824 218.564 186.491 218.956 186.087 219.275C185.684 219.595 185.218 219.836 184.716 219.985C184.214 220.134 183.686 220.187 183.163 220.143C182.639 220.098 182.13 219.956 181.664 219.725C181.198 219.493 180.785 219.177 180.448 218.794C180.111 218.411 179.857 217.969 179.7 217.493C179.674 217.409 179.648 217.325 179.627 217.241V217.152C178.803 213.846 177.911 210.545 176.789 207.309C175.668 204.072 174.39 200.875 172.997 197.743C171.556 194.617 169.946 191.564 168.171 188.597C166.436 185.665 164.467 182.862 162.282 180.214L162.188 180.1C161.827 179.639 161.664 179.065 161.731 178.495C161.797 177.924 162.088 177.398 162.546 177.023C163.004 176.647 163.595 176.45 164.2 176.47C164.804 176.49 165.379 176.726 165.808 177.131L165.787 177.121Z" fill="#141414"/>
  <path d="M201.532 243.272C203.582 251.402 200.009 256.594 197.395 259.157C196.711 259.83 195.838 260.303 194.879 260.521C193.921 260.738 192.916 260.691 191.985 260.385C188.433 259.217 182.773 256.119 180.723 248.013C178.26 238.219 177.671 223.269 180.498 217.097C181.197 215.573 181.912 214.425 183.044 214.168C184.176 213.91 185.491 214.504 186.743 215.43C192.272 219.478 199.028 233.324 201.532 243.272Z" fill="url(#paint5_linear_1067_4399)"/>
  <g style="mix-blend-mode:overlay">
    <path d="M182.46 214.341C181.776 214.801 181.302 215.766 180.837 216.979C178.506 223.135 179.408 238.051 181.829 247.864C183.837 256.005 188.897 259.172 192.053 260.375C192.234 260.442 192.418 260.498 192.606 260.543C182.434 243.752 183.002 214.083 183.002 214.083L182.46 214.341Z" fill="#4D4D4D"/>
  </g>
  <g style="mix-blend-mode:overlay" opacity="0.5">
    <path d="M198.751 242.252C199.612 245.479 199.414 248.305 198.313 248.567C197.212 248.829 196.357 246.439 195.501 243.212C194.646 239.986 194.109 237.15 195.209 236.888C196.31 236.625 197.896 239.026 198.751 242.252Z" fill="white"/>
  </g>
  <g style="mix-blend-mode:overlay" opacity="0.5">
    <path d="M195.173 233.161C195.486 234.092 195.282 234.987 194.714 235.141C194.145 235.294 193.441 234.69 193.149 233.755C192.857 232.82 193.039 231.929 193.603 231.775C194.166 231.622 194.86 232.226 195.173 233.161Z" fill="white"/>
  </g>
  <path style="mix-blend-mode:multiply" d="M143.178 337.403C208.732 337.403 261.873 325.223 261.873 310.199C261.873 295.175 208.732 282.996 143.178 282.996C77.6249 282.996 24.4834 295.175 24.4834 310.199C24.4834 325.223 77.6249 337.403 143.178 337.403Z" fill="url(#paint6_radial_1067_4399)"/>
  <path d="M170.858 193.026C171.635 210.788 153.345 232.226 147.518 232.439C141.691 232.651 121.592 212.589 120.82 194.828C120.048 177.067 130.893 168.599 144.712 168.104C158.531 167.609 170.086 175.265 170.858 193.026Z" fill="url(#paint7_radial_1067_4399)"/>
  <g style="mix-blend-mode:overlay" opacity="0.5">
    <path d="M145.667 226.96C146.637 227.95 146.919 229.182 146.298 229.677C145.677 230.172 144.383 229.761 143.413 228.752C142.443 227.742 142.161 226.53 142.787 226.035C143.413 225.54 144.702 225.951 145.667 226.96Z" fill="white"/>
  </g>
  <path d="M169.992 186.469C170.357 203.082 121.477 204.706 121.101 188.226C121.101 188.226 116.485 196.669 125.995 209.194C136.131 222.556 158.228 219.893 166.57 207.645C174.238 196.387 169.992 186.469 169.992 186.469Z" fill="#141414"/>
  <g style="mix-blend-mode:overlay">
    <path d="M168.828 185.341C168.828 185.341 174.76 209.154 149.323 231.281C149.323 231.281 165.198 212.53 168.828 185.341Z" fill="#4D4D4D"/>
  </g>
  <g style="mix-blend-mode:overlay">
    <path d="M122.343 191.418C122.343 191.418 120.632 209.011 138.619 223.729C138.619 223.729 126.485 209.971 122.343 191.418Z" fill="#4D4D4D"/>
  </g>
  <g style="mix-blend-mode:overlay">
    <path d="M145.687 192.601C163.101 191.972 168.067 181.278 168.067 181.278C168.067 181.278 168.093 181.189 168.135 181.025C163.81 171.796 154.879 167.748 144.712 168.114C134.456 168.48 125.838 173.241 122.39 182.96C122.421 183.109 122.442 183.193 122.442 183.193C122.442 183.193 128.259 193.224 145.687 192.601Z" fill="#4D4D4D"/>
  </g>
  <path d="M126.172 189.542C126.694 192.482 127.215 193.605 123.621 196.852C119.834 200.252 116.709 199.326 115.092 196.852C113.475 194.377 114.325 193.071 117.59 189.498C120.856 185.925 125.003 182.995 126.172 189.542Z" fill="#141414"/>
  <path d="M113.277 169.906C111.852 171.103 110.397 172.38 108.994 173.687C107.59 174.993 106.192 176.295 104.82 177.646C102.094 180.325 99.4714 183.078 96.9535 185.905C96.6137 186.287 96.1981 186.601 95.7302 186.83C95.2624 187.059 94.7516 187.199 94.227 187.24C93.7024 187.282 93.1743 187.226 92.6727 187.074C92.1712 186.922 91.706 186.678 91.3038 186.356C90.9017 186.033 90.5705 185.639 90.329 185.195C90.0875 184.751 89.9405 184.267 89.8964 183.769C89.8523 183.271 89.9121 182.77 90.0721 182.295C90.2322 181.819 90.4894 181.377 90.8292 180.996C90.9477 180.868 91.0731 180.746 91.2048 180.63C94.2374 178.033 97.3466 175.537 100.532 173.142C102.097 171.945 103.735 170.782 105.368 169.639C107.001 168.495 108.634 167.387 110.371 166.283C110.876 165.949 111.498 165.812 112.107 165.9C112.716 165.988 113.265 166.296 113.642 166.758C114.019 167.22 114.194 167.803 114.131 168.384C114.067 168.965 113.771 169.501 113.303 169.881L113.277 169.906Z" fill="#141414"/>
  <path d="M120.074 184.371C117.945 180.15 94.3763 175.463 91.1576 177.353C89.4257 178.378 88.0955 182.99 88.4502 184.895C89.1127 188.439 107.846 201.677 112.577 200.355C117.001 199.118 122.066 188.315 120.074 184.371Z" fill="url(#paint8_linear_1067_4399)"/>
  <g style="mix-blend-mode:overlay">
    <path d="M89.7021 180.966C89.7021 180.966 90.5628 178.556 91.1575 178.195C94.1727 176.364 117.418 181.718 119.385 185.732C119.583 186.242 119.675 186.783 119.656 187.325C119.734 193.615 112.139 197.287 106.615 193.794C95.8004 186.944 89.7282 180.971 89.7021 180.966Z" fill="#4D4D4D"/>
  </g>
  <g style="mix-blend-mode:overlay" opacity="0.5">
    <path d="M100.72 194.308C103.041 195.674 105.112 196.02 105.577 195.298C106.041 194.575 104.559 193.595 102.238 192.235C99.9165 190.874 98.6384 190.517 98.1741 191.245C97.7098 191.972 98.3932 192.957 100.72 194.308Z" fill="white"/>
  </g>
  <g style="mix-blend-mode:overlay" opacity="0.5">
    <path d="M95.3571 190.087C96.0457 190.478 96.7969 190.493 97.0317 190.121C97.2664 189.75 96.9066 189.132 96.2127 188.726C95.5189 188.32 94.773 188.32 94.5382 188.696C94.3035 189.072 94.6633 189.691 95.3571 190.087Z" fill="white"/>
  </g>
  <path d="M132.62 186.251C132.776 187.607 130.063 187.108 126.829 187.439C123.595 187.771 121.059 188.81 120.903 187.439C120.746 186.068 123.251 184.717 126.485 184.386C129.719 184.054 132.468 184.895 132.62 186.251Z" fill="#141414"/>
  <path d="M133.793 188.785C133.893 190.146 131.185 189.547 127.956 189.775C124.727 190.003 122.134 190.928 122.035 189.572C121.936 188.216 124.492 186.939 127.737 186.727C130.982 186.514 133.694 187.424 133.793 188.785Z" fill="#141414"/>
  <path d="M132.521 190.443C132.896 191.76 130.137 191.676 127.002 192.492C123.866 193.309 121.534 194.714 121.154 193.398C120.773 192.081 123.011 190.354 126.151 189.543C129.292 188.731 132.14 189.127 132.521 190.443Z" fill="#141414"/>
  <path d="M130.893 192.121C131.524 193.175 129.125 193.675 126.605 195.026C124.085 196.377 122.432 198.069 121.774 197.005C121.117 195.941 122.677 194.001 125.196 192.65C127.716 191.299 130.262 191.067 130.893 192.121Z" fill="#141414"/>
  <path d="M165.547 189.542C165.026 192.482 164.478 193.605 168.093 196.852C171.88 200.252 175.005 199.326 176.622 196.852C178.239 194.377 177.389 193.071 174.129 189.498C170.868 185.925 166.69 182.995 165.547 189.542Z" fill="#141414"/>
  <path d="M181.307 166.273C183.044 167.377 184.672 168.48 186.31 169.629C187.948 170.777 189.56 171.935 191.151 173.132C194.333 175.521 197.44 178.017 200.473 180.62C201.262 181.296 201.735 182.241 201.789 183.248C201.842 184.255 201.472 185.241 200.76 185.989C200.047 186.737 199.051 187.186 197.989 187.237C196.928 187.289 195.888 186.937 195.1 186.262C194.967 186.147 194.841 186.025 194.724 185.895C192.21 183.074 189.589 180.321 186.863 177.636C185.501 176.295 184.108 174.983 182.689 173.677C181.27 172.37 179.831 171.093 178.406 169.896L178.365 169.861C177.896 169.482 177.6 168.946 177.536 168.364C177.473 167.783 177.648 167.201 178.025 166.738C178.402 166.276 178.952 165.969 179.561 165.88C180.17 165.792 180.791 165.929 181.296 166.263L181.307 166.273Z" fill="#141414"/>
  <path d="M171.62 184.371C173.748 180.15 197.317 175.463 200.541 177.353C202.268 178.378 203.603 182.99 203.243 184.895C202.586 188.439 183.847 201.677 179.116 200.355C174.687 199.118 169.627 188.315 171.62 184.371Z" fill="url(#paint9_linear_1067_4399)"/>
  <g style="mix-blend-mode:overlay">
    <path d="M201.991 180.966C201.991 180.966 201.135 178.556 200.541 178.195C197.52 176.364 174.28 181.718 172.308 185.732C172.113 186.242 172.022 186.783 172.042 187.325C171.958 193.615 179.559 197.287 185.084 193.794C195.893 186.944 201.965 180.971 201.991 180.966Z" fill="#4D4D4D"/>
  </g>
  <g style="mix-blend-mode:overlay" opacity="0.5">
    <path d="M190.979 194.308C188.652 195.674 186.581 196.02 186.117 195.298C185.652 194.575 187.16 193.595 189.461 192.235C191.761 190.874 193.055 190.517 193.519 191.245C193.983 191.972 193.3 192.957 190.979 194.308Z" fill="white"/>
  </g>
  <g style="mix-blend-mode:overlay" opacity="0.5">
    <path d="M196.341 190.087C195.653 190.478 194.902 190.493 194.662 190.121C194.422 189.75 194.792 189.132 195.481 188.726C196.169 188.32 196.92 188.32 197.16 188.696C197.4 189.072 197.03 189.691 196.341 190.087Z" fill="white"/>
  </g>
  <path d="M159.073 186.251C158.917 187.607 161.629 187.108 164.864 187.439C168.098 187.771 170.633 188.81 170.79 187.439C170.946 186.068 168.448 184.717 165.213 184.386C161.979 184.054 159.23 184.895 159.073 186.251Z" fill="#141414"/>
  <path d="M157.9 188.785C157.8 190.146 160.508 189.547 163.737 189.775C166.966 190.003 169.559 190.928 169.658 189.572C169.757 188.216 167.201 186.939 163.956 186.727C160.711 186.514 157.994 187.424 157.9 188.785Z" fill="#141414"/>
  <path d="M159.178 190.443C158.797 191.76 161.557 191.676 164.697 192.492C167.838 193.309 170.164 194.714 170.54 193.398C170.915 192.081 168.683 190.354 165.547 189.543C162.412 188.731 159.559 189.127 159.178 190.443Z" fill="#141414"/>
  <path d="M160.8 192.121C160.174 193.175 162.569 193.675 165.088 195.026C167.608 196.377 169.288 198.069 169.919 197.005C170.55 195.941 169.016 194.001 166.502 192.65C163.987 191.299 161.431 191.067 160.8 192.121Z" fill="#141414"/>
  <path d="M179.982 171.841C177.895 175.557 174.15 177.522 171.594 176.24C169.037 174.958 168.651 170.895 170.727 167.184C172.804 163.472 176.56 161.502 179.116 162.789C181.672 164.076 182.058 168.129 179.982 171.841Z" fill="#141414"/>
  <path d="M111.174 171.841C113.261 175.557 117.006 177.522 119.562 176.24C122.119 174.958 122.505 170.895 120.428 167.184C118.352 163.472 114.591 161.502 112.04 162.789C109.489 164.076 109.098 168.129 111.174 171.841Z" fill="#141414"/>
  <path d="M100.772 157.474C102.337 162.992 107.554 166.461 112.452 165.219C117.351 163.977 120.048 158.494 118.493 152.976C116.938 147.458 111.711 143.989 106.813 145.231C101.914 146.473 99.2175 151.951 100.772 157.474Z" fill="#141414"/>
  <path d="M190.4 157.41C188.835 162.962 183.618 166.461 178.704 165.219C173.79 163.977 171.113 158.469 172.678 152.916C174.243 147.364 179.46 143.865 184.374 145.107C189.288 146.349 191.965 151.882 190.4 157.41Z" fill="#141414"/>
  <path d="M145.578 189.023C150.852 189.023 160.435 187.043 166.445 180.264C162.981 171.148 154.718 165.11 145.578 165.11C136.438 165.11 128.295 170.97 124.711 180.264C130.721 187.058 140.461 189.023 145.578 189.023Z" fill="#141414"/>
  <path d="M145.578 165.442C154.718 165.442 162.621 170.846 166.445 180.382C176.878 180.382 184.03 149.477 184.03 145.85C184.03 140.158 166.815 135.541 145.578 135.541C124.341 135.541 107.126 140.158 107.126 145.85C107.126 149.477 115.77 180.382 124.711 180.382C128.535 170.846 136.438 165.442 145.578 165.442Z" fill="url(#paint10_radial_1067_4399)"/>
  <g style="mix-blend-mode:overlay">
    <path d="M125.296 178.685C129.573 170.48 136.715 165.481 145.615 165.481C154.514 165.481 161.176 170.267 165.933 178.685C173.143 178.685 178.735 164.987 181.38 155.861C176.982 165.041 170.388 165.397 162.287 163.7C161.244 163.482 160.242 163.245 159.319 163.002C150.433 160.605 141.021 160.593 132.129 162.967C131.336 163.185 130.507 163.393 129.625 163.586C117.34 166.328 112.358 163.121 109.667 154.46C112.468 163.502 118.801 178.685 125.296 178.685Z" fill="#4D4D4D"/>
  </g>
  <g style="mix-blend-mode:overlay">
    <path fill-rule="evenodd" clip-rule="evenodd" d="M145.077 165.442V138.743H146.079V165.442H145.077Z" fill="#4D4D4D"/>
  </g>
  <g style="mix-blend-mode:overlay">
    <path d="M123.042 137.501C124.351 139.649 133.606 146.468 145.541 146.468C157.018 146.468 167.081 139.782 169.016 137.758C162.532 135.685 154.41 134.452 145.62 134.452C137.127 134.452 129.359 135.581 123.042 137.501Z" fill="#4D4D4D"/>
  </g>
  <path d="M165.469 134.452C165.469 138.906 156.768 144.117 145.521 144.117C134.274 144.117 124.743 138.901 124.743 134.452C124.743 130.003 133.861 126.386 145.088 126.386C156.314 126.386 165.469 129.998 165.469 134.452Z" fill="#141414"/>
  <path d="M115.274 39.2129C115.059 36.6357 114.534 34.0904 113.709 31.6264C112.908 29.1688 111.788 26.815 110.376 24.6189C109.015 22.4682 107.3 20.5384 105.295 18.903C103.385 17.2006 101.043 16.0574 98.7217 14.9835L101.257 9.8269C104.048 11.3115 106.797 12.9248 109.009 15.137C111.268 17.2399 113.159 19.6705 114.612 22.3375C116.049 24.9365 117.142 27.6941 117.867 30.5475C118.6 33.3872 118.979 36.2991 118.994 39.2228L115.274 39.2129Z" fill="#141414"/>
  <path d="M83.4786 9.3221C83.371 11.2654 83.8734 13.1952 84.922 14.8677C85.9706 16.5401 87.5185 17.88 89.3699 18.7178C91.2213 19.5557 93.293 19.8538 95.323 19.5747C97.353 19.2955 99.2503 18.4514 100.775 17.1493C102.299 15.8472 103.382 14.1455 103.887 12.2595C104.392 10.3734 104.296 8.38764 103.611 6.55338C102.926 4.71912 101.683 3.11873 100.039 1.95462C98.3955 0.790508 96.4248 0.114959 94.3763 0.0134164C91.6301 -0.122714 88.9393 0.781462 86.8957 2.5271C84.8521 4.27275 83.6229 6.71692 83.4786 9.3221Z" fill="#141414"/>
  <path d="M180.373 41.603C180.716 38.6966 181.417 35.8382 182.46 33.0861C183.494 30.3205 184.884 27.6861 186.597 25.2423C188.333 22.7365 190.475 20.5067 192.945 18.6356C195.381 16.6561 198.298 15.31 201.24 14.1223L203.191 19.5017C200.76 20.338 198.308 21.2436 196.221 22.7481C194.048 24.1778 192.13 25.9288 190.54 27.9344C188.896 29.9783 187.524 32.2073 186.456 34.5707C185.375 36.9421 184.582 39.4226 184.093 41.9643L180.373 41.603Z" fill="#141414"/>
  <path d="M219.029 15.3794C218.923 17.3229 218.211 19.193 216.985 20.753C215.758 22.313 214.072 23.4929 212.138 24.1433C210.204 24.7938 208.111 24.8857 206.122 24.4073C204.134 23.9289 202.34 22.9018 200.966 21.4558C199.593 20.0099 198.703 18.2101 198.408 16.2841C198.114 14.3582 198.428 12.3925 199.311 10.6359C200.194 8.87932 201.607 7.41063 203.37 6.41566C205.133 5.42069 207.167 4.94413 209.216 5.04628C210.576 5.11342 211.908 5.43397 213.137 5.98961C214.366 6.54526 215.467 7.32512 216.378 8.28466C217.29 9.2442 217.993 10.3646 218.447 11.582C218.902 12.7993 219.1 14.0897 219.029 15.3794Z" fill="#141414"/>
  <path d="M174.838 141.42L113.6 138.382C81.632 136.798 66.6498 115.989 68.2983 85.6623C69.9676 55.3361 87.1774 36.1199 119.145 37.7085L180.384 40.7421C212.351 42.3257 227.334 63.1354 225.685 93.4616C224.016 123.793 206.806 143.004 174.838 141.42Z" fill="url(#paint11_radial_1067_4399)"/>
  <g style="mix-blend-mode:overlay">
    <path d="M174.437 132.666L114.445 129.697C84.7464 128.212 70.4005 107.328 70.2961 81.1489C70.1344 82.5643 70.004 83.9994 69.9205 85.4742C68.3555 114.024 83.0874 133.646 114.403 135.2L174.395 138.169C205.695 139.718 222.524 121.66 224.094 93.1349C224.177 91.6503 224.203 90.2201 224.198 88.7948C221.209 114.806 204.135 134.141 174.437 132.666Z" fill="#4D4D4D"/>
  </g>
  <path d="M116.062 126.846C103.469 126.222 95.0023 122.155 90.1665 114.405C86.0766 107.853 84.5169 98.5042 85.2628 84.9792C86.0088 71.4541 88.5807 62.3186 93.3696 56.2019C99.0296 48.9767 107.903 45.7649 120.496 46.3884L178.109 49.2488C190.697 49.8724 199.163 53.9403 203.999 61.6852C208.089 68.2374 209.649 77.5906 208.903 91.1107C208.157 104.631 205.585 113.776 200.796 119.888C195.136 127.113 186.263 130.325 173.67 129.701L116.062 126.846Z" fill="url(#paint12_radial_1067_4399)"/>
  <path d="M116.156 125.065C91.1577 123.822 85.8314 108.788 87.1408 85.0733C88.4502 61.3587 95.3936 46.9329 120.392 48.1751L178.005 51.0305C203.003 52.2677 208.329 67.3022 207.02 91.0168C205.71 114.731 198.767 129.157 173.769 127.92L116.156 125.065Z" fill="#141414"/>
  <path d="M139.333 85.7215C139.902 84.5289 143.095 84.1528 146.032 84.3012C148.969 84.4497 151.843 85.1475 152.495 86.3105C152.803 86.8598 152.568 87.7505 152.469 88.3197C152.263 89.4296 151.963 90.5219 151.572 91.5859C150.69 94.0603 148.624 97.1087 145.312 96.9405C143.006 96.8266 141.013 95.0104 140.278 93.12C139.751 91.6528 139.401 90.1338 139.234 88.5918C139.14 87.7159 138.927 86.5579 139.333 85.7215Z" fill="#00EEFF"/>
  <path d="M193.937 82.6879C193.551 92.2935 189.143 97.9648 180.785 97.663C172.428 97.3611 168.067 91.3681 168.453 81.7625C168.839 72.1569 173.54 64.5308 181.897 64.8326C190.254 65.1345 194.323 73.0773 193.937 82.6879Z" fill="url(#paint13_linear_1067_4399)"/>
  <path d="M126.521 79.2486C126.135 88.8592 121.727 94.5305 113.375 94.2286C105.024 93.9268 100.657 87.9338 101.043 78.3281C101.429 68.7225 106.13 61.0964 114.481 61.3983C122.833 61.7002 126.907 69.643 126.521 79.2486Z" fill="url(#paint14_linear_1067_4399)"/>
  <path opacity="0.7" d="M186.132 90.517C188.344 87.7506 187.969 84.8061 189.408 85.0733C191.099 85.39 191.219 89.7202 189.012 92.4965C186.805 95.2728 183.435 95.6835 182.267 94.8422C181.098 94.0009 183.926 93.2537 186.132 90.517Z" fill="white"/>
  <path opacity="0.7" d="M191.829 81.1588C191.8 81.4527 191.679 81.7317 191.482 81.9601C191.284 82.1886 191.02 82.356 190.722 82.4411C190.424 82.5263 190.106 82.5252 189.809 82.438C189.511 82.3508 189.248 82.1815 189.053 81.9518C188.857 81.722 188.739 81.4421 188.712 81.148C188.685 80.8539 188.751 80.5588 188.902 80.3005C189.052 80.0422 189.281 79.8324 189.558 79.6979C189.835 79.5634 190.148 79.5103 190.457 79.5454C190.862 79.5915 191.232 79.786 191.489 80.0874C191.745 80.3888 191.867 80.7732 191.829 81.1588Z" fill="white"/>
  <path opacity="0.7" d="M119.114 87.1568C121.326 84.3904 120.966 81.3667 122.4 81.634C124.096 81.9507 124.2 86.3601 121.993 89.1264C119.787 91.8928 116.427 92.2293 115.259 91.393C114.09 90.5566 116.907 89.9232 119.114 87.1568Z" fill="white"/>
  <path opacity="0.7" d="M124.821 77.7393C124.792 78.0332 124.671 78.3123 124.474 78.5407C124.276 78.7691 124.012 78.9366 123.714 79.0217C123.416 79.1068 123.098 79.1057 122.801 79.0186C122.503 78.9314 122.24 78.7621 122.045 78.5323C121.849 78.3025 121.731 78.0227 121.704 77.7286C121.677 77.4344 121.743 77.1394 121.894 76.8811C122.044 76.6228 122.273 76.413 122.55 76.2785C122.827 76.144 123.14 76.0909 123.449 76.126C123.854 76.1721 124.224 76.3665 124.481 76.6679C124.737 76.9693 124.859 77.3538 124.821 77.7393Z" fill="white"/>
  <g style="mix-blend-mode:overlay" opacity="0.5">
    <path d="M109.39 41.9593C110.981 44.2803 103.37 44.5673 95.9935 49.1301C88.6171 53.6929 84.2613 60.7944 82.665 58.4735C81.0687 56.1525 84.7516 49.6349 92.1436 45.0771C99.5357 40.5192 107.794 39.6383 109.39 41.9593Z" fill="white"/>
  </g>
  <g style="mix-blend-mode:overlay" opacity="0.5">
    <path d="M82.5606 66.268C82.5287 66.8379 82.3195 67.386 81.9593 67.8431C81.599 68.3002 81.1039 68.6456 80.5367 68.8357C79.9694 69.0258 79.3556 69.0521 78.7726 68.9112C78.1896 68.7703 77.6638 68.4685 77.2616 68.0441C76.8594 67.6196 76.599 67.0916 76.5132 66.5267C76.4275 65.9619 76.5203 65.3855 76.7798 64.8707C77.0393 64.3558 77.454 63.9255 77.9714 63.6343C78.4887 63.343 79.0854 63.2038 79.6862 63.2344C80.4908 63.2766 81.2451 63.6195 81.7838 64.188C82.3225 64.7566 82.6018 65.5045 82.5606 66.268Z" fill="white"/>
  </g>
  <g style="mix-blend-mode:overlay" opacity="0.5">
    <path d="M116.657 158.548C117.288 159.538 117.319 160.636 116.724 160.973C116.13 161.309 115.159 160.775 114.502 159.77C113.845 158.766 113.834 157.682 114.429 157.341C115.024 156.999 116.02 157.543 116.657 158.548Z" fill="white"/>
  </g>
  <g style="mix-blend-mode:overlay" opacity="0.5">
    <path d="M112.99 151.263C113.939 153.738 114.372 155.787 113.595 156.059C112.817 156.331 111.424 154.574 110.465 152.1C109.505 149.625 109.385 147.438 110.162 147.151C110.939 146.864 112.045 148.809 112.99 151.263Z" fill="white"/>
  </g>
  <path d="M126.495 182.149C126.704 185.574 127.189 186.925 122.63 190.211C117.862 193.65 114.414 192.19 112.885 189.176C111.357 186.162 112.504 184.767 116.699 181.065C120.893 177.364 126.042 174.533 126.495 182.149Z" fill="#141414"/>
  <path d="M105.305 158.444C104.262 159.592 103.187 160.815 102.175 162.027C101.163 163.239 100.162 164.501 99.2227 165.719C98.2837 166.936 97.3864 168.223 96.6144 169.465C95.887 170.545 95.3084 171.71 94.8928 172.929C94.7503 173.496 94.4906 174.03 94.1289 174.502C93.7673 174.973 93.3108 175.371 92.7858 175.674C92.2608 175.976 91.6779 176.177 91.0705 176.265C90.4632 176.353 89.8436 176.325 89.2475 176.184C88.6514 176.043 88.0906 175.792 87.5977 175.444C87.1047 175.096 86.6894 174.659 86.3756 174.158C86.0619 173.657 85.8559 173.102 85.7697 172.525C85.6834 171.948 85.7186 171.36 85.8732 170.796C85.9588 170.469 86.083 170.152 86.2436 169.851L86.4366 169.505C87.4024 167.815 88.5813 166.243 89.9474 164.823C91.1629 163.502 92.4097 162.294 93.6773 161.141C94.945 159.988 96.2283 158.875 97.5377 157.801C98.8471 156.727 100.146 155.688 101.534 154.638C102.074 154.231 102.755 154.03 103.443 154.075C104.131 154.119 104.777 154.405 105.255 154.877C105.733 155.349 106.007 155.974 106.025 156.628C106.043 157.282 105.803 157.919 105.352 158.414L105.305 158.444Z" fill="#141414"/>
  <path d="M120.23 175.528C118.342 170.455 91.4811 162.661 87.5529 164.452C85.4663 165.442 83.8491 170.198 84.0056 172.415C84.3029 176.547 103.996 193.878 109.567 192.918C114.789 192.022 121.999 180.268 120.23 175.528Z" fill="url(#paint15_linear_1067_4399)"/>
  <g style="mix-blend-mode:overlay">
    <path d="M86.8904 165.981C87.1376 165.579 87.4992 165.252 87.9337 165.036C91.6219 163.299 117.82 171.588 119.552 176.418C120.037 177.779 120.157 178.007 119.39 180.125C103.766 168.035 86.8904 165.981 86.8904 165.981Z" fill="#4D4D4D"/>
  </g>
  <g style="mix-blend-mode:overlay" opacity="0.5">
    <path d="M97.3237 184.084C99.932 185.767 102.566 186.558 103.14 185.786C103.714 185.014 101.774 183.465 99.1808 181.788C96.5881 180.11 95.1379 179.64 94.564 180.437C93.9902 181.234 94.7258 182.406 97.3237 184.084Z" fill="white"/>
  </g>
  <g style="mix-blend-mode:overlay" opacity="0.5">
    <path d="M91.2204 179.16C91.956 179.689 92.7854 179.798 93.1349 179.397C93.4844 178.997 93.1349 178.239 92.3785 177.71C91.6221 177.18 90.7875 177.076 90.464 177.477C90.1406 177.878 90.4901 178.63 91.2204 179.16Z" fill="white"/>
  </g>
  <path d="M134.326 179.15C134.326 180.719 131.289 179.828 127.544 179.828C123.798 179.828 120.762 180.719 120.762 179.15C120.762 177.581 123.793 176.314 127.544 176.314C131.295 176.314 134.326 177.581 134.326 179.15Z" fill="#141414"/>
  <path d="M135.338 182.184C135.27 183.747 132.275 182.748 128.556 182.609C124.837 182.471 121.748 183.243 121.811 181.679C121.873 180.115 124.941 178.957 128.697 179.095C132.453 179.234 135.4 180.615 135.338 182.184Z" fill="#141414"/>
  <path d="M133.663 183.925C133.924 185.474 130.778 185.054 127.085 185.618C123.391 186.182 120.548 187.518 120.303 185.974C120.058 184.43 122.823 182.713 126.516 182.149C130.21 181.585 133.397 182.381 133.663 183.925Z" fill="#141414"/>
  <path d="M131.582 185.653C132.166 186.934 129.359 187.221 126.308 188.473C123.256 189.725 121.091 191.443 120.522 190.181C119.954 188.919 121.947 186.85 124.998 185.603C128.05 184.356 131.003 184.376 131.582 185.653Z" fill="#141414"/>
  <path d="M165.198 182.149C164.994 185.574 164.509 186.925 169.063 190.211C173.831 193.65 177.28 192.19 178.813 189.176C180.347 186.162 179.194 184.767 175 181.065C170.806 177.364 165.652 174.533 165.198 182.149Z" fill="#141414"/>
  <path d="M190.149 154.629C191.537 155.678 192.836 156.712 194.145 157.791C195.454 158.87 196.753 159.978 198.005 161.131C199.257 162.285 200.52 163.492 201.735 164.813C203.103 166.233 204.284 167.805 205.251 169.495L205.429 169.822C205.997 170.86 206.108 172.07 205.736 173.185C205.365 174.301 204.541 175.231 203.446 175.77C202.352 176.309 201.077 176.414 199.901 176.062C198.725 175.709 197.745 174.928 197.176 173.889C197.009 173.574 196.88 173.242 196.79 172.9C196.374 171.68 195.796 170.516 195.068 169.436C194.296 168.193 193.41 166.931 192.46 165.689C191.511 164.447 190.53 163.215 189.502 161.997C188.475 160.78 187.416 159.563 186.372 158.415L186.336 158.375C185.89 157.879 185.654 157.245 185.674 156.594C185.694 155.942 185.967 155.321 186.442 154.851C186.918 154.381 187.56 154.095 188.245 154.048C188.93 154.001 189.608 154.198 190.149 154.599V154.629Z" fill="#141414"/>
  <path d="M171.468 175.528C173.352 170.455 200.212 162.661 204.145 164.452C206.232 165.442 207.844 170.198 207.688 172.415C207.395 176.547 187.703 193.878 182.126 192.918C176.904 192.022 169.705 180.268 171.468 175.528Z" fill="url(#paint16_linear_1067_4399)"/>
  <g style="mix-blend-mode:overlay">
    <path d="M204.803 165.981C204.559 165.577 204.196 165.249 203.759 165.036C200.071 163.299 173.873 171.588 172.146 176.418C171.656 177.779 171.541 178.007 172.303 180.125C187.932 168.035 204.803 165.981 204.803 165.981Z" fill="#4D4D4D"/>
  </g>
  <g style="mix-blend-mode:overlay" opacity="0.5">
    <path d="M194.369 184.084C191.761 185.767 189.127 186.558 188.558 185.786C187.99 185.014 189.92 183.465 192.518 181.788C195.115 180.11 196.555 179.64 197.129 180.437C197.703 181.234 196.967 182.406 194.369 184.084Z" fill="white"/>
  </g>
  <g style="mix-blend-mode:overlay" opacity="0.5">
    <path d="M200.468 179.16C199.732 179.689 198.877 179.798 198.558 179.397C198.24 178.997 198.558 178.239 199.31 177.71C200.061 177.18 200.906 177.076 201.224 177.477C201.542 177.878 201.208 178.63 200.468 179.16Z" fill="white"/>
  </g>
  <path d="M157.373 179.15C157.373 180.719 160.404 179.828 164.154 179.828C167.905 179.828 170.936 180.719 170.936 179.15C170.936 177.581 167.9 176.314 164.154 176.314C160.409 176.314 157.373 177.581 157.373 179.15Z" fill="#141414"/>
  <path d="M156.361 182.184C156.423 183.747 159.418 182.748 163.142 182.609C166.867 182.471 169.924 183.243 169.882 181.679C169.841 180.115 166.752 178.957 162.996 179.095C159.24 179.234 156.293 180.615 156.361 182.184Z" fill="#141414"/>
  <path d="M158.035 183.925C157.769 185.474 160.915 185.054 164.608 185.618C168.302 186.182 171.15 187.518 171.39 185.974C171.63 184.43 168.87 182.713 165.177 182.149C161.483 181.585 158.296 182.381 158.035 183.925Z" fill="#141414"/>
  <path d="M160.112 185.653C159.527 186.934 162.334 187.221 165.391 188.473C168.448 189.725 170.607 191.443 171.171 190.181C171.734 188.919 169.747 186.85 166.695 185.603C163.643 184.356 160.691 184.376 160.112 185.653Z" fill="#141414"/>
  <defs>
    <linearGradient id="paint0_linear_1067_4399" x1="167.795" y1="159.527" x2="283.893" y2="61.4133" gradientUnits="userSpaceOnUse">
      <stop stop-color="#0080B5"/>
      <stop offset="0.07" stop-color="#0B8CBC"/>
      <stop offset="0.37" stop-color="#3BBDD9"/>
      <stop offset="0.64" stop-color="#5DE1EE"/>
      <stop offset="0.86" stop-color="#72F7FA"/>
      <stop offset="1" stop-color="#7AFFFF"/>
    </linearGradient>
    <linearGradient id="paint1_linear_1067_4399" x1="120.895" y1="156.212" x2="5.26605" y2="57.7628" gradientUnits="userSpaceOnUse">
      <stop stop-color="#0080B5"/>
      <stop offset="0.07" stop-color="#0B8CBC"/>
      <stop offset="0.37" stop-color="#3BBDD9"/>
      <stop offset="0.64" stop-color="#5DE1EE"/>
      <stop offset="0.86" stop-color="#72F7FA"/>
      <stop offset="1" stop-color="#7AFFFF"/>
    </linearGradient>
    <linearGradient id="paint2_linear_1067_4399" x1="157.916" y1="156.692" x2="286.562" y2="120.533" gradientUnits="userSpaceOnUse">
      <stop stop-color="#0080B5"/>
      <stop offset="0.07" stop-color="#0B8CBC"/>
      <stop offset="0.37" stop-color="#3BBDD9"/>
      <stop offset="0.64" stop-color="#5DE1EE"/>
      <stop offset="0.86" stop-color="#72F7FA"/>
      <stop offset="1" stop-color="#7AFFFF"/>
    </linearGradient>
    <linearGradient id="paint3_linear_1067_4399" x1="129.797" y1="152.882" x2="4.02246" y2="109.496" gradientUnits="userSpaceOnUse">
      <stop stop-color="#0080B5"/>
      <stop offset="0.07" stop-color="#0B8CBC"/>
      <stop offset="0.37" stop-color="#3BBDD9"/>
      <stop offset="0.64" stop-color="#5DE1EE"/>
      <stop offset="0.86" stop-color="#72F7FA"/>
      <stop offset="1" stop-color="#7AFFFF"/>
    </linearGradient>
    <linearGradient id="paint4_linear_1067_4399" x1="115.299" y1="235.907" x2="92.4618" y2="228.184" gradientUnits="userSpaceOnUse">
      <stop stop-color="#FF9500"/>
      <stop offset="0.1" stop-color="#FFA70C"/>
      <stop offset="0.25" stop-color="#FFBB19"/>
      <stop offset="0.42" stop-color="#FFC922"/>
      <stop offset="0.64" stop-color="#FFD227"/>
      <stop offset="1" stop-color="#FFD429"/>
    </linearGradient>
    <linearGradient id="paint5_linear_1067_4399" x1="178.984" y1="240.436" x2="201.931" y2="232.649" gradientUnits="userSpaceOnUse">
      <stop stop-color="#FF9500"/>
      <stop offset="0.1" stop-color="#FFA70C"/>
      <stop offset="0.25" stop-color="#FFBB19"/>
      <stop offset="0.42" stop-color="#FFC922"/>
      <stop offset="0.64" stop-color="#FFD227"/>
      <stop offset="1" stop-color="#FFD429"/>
    </linearGradient>
    <radialGradient id="paint6_radial_1067_4399" cx="0" cy="0" r="1" gradientUnits="userSpaceOnUse" gradientTransform="translate(132.819 320.872) scale(117.578 25.7401)">
      <stop stop-color="#E3E3E3"/>
      <stop offset="0.26" stop-color="#F1F1F1"/>
      <stop offset="0.61" stop-color="#FCFCFC"/>
      <stop offset="1" stop-color="white"/>
    </radialGradient>
    <radialGradient id="paint7_radial_1067_4399" cx="0" cy="0" r="1" gradientUnits="userSpaceOnUse" gradientTransform="translate(129.907 207.911) rotate(-2.0896) scale(30.5812 27.9009)">
      <stop stop-color="#FFD429"/>
      <stop offset="0.36" stop-color="#FFD227"/>
      <stop offset="0.58" stop-color="#FFC922"/>
      <stop offset="0.75" stop-color="#FFBB19"/>
      <stop offset="0.9" stop-color="#FFA70C"/>
      <stop offset="1" stop-color="#FF9500"/>
    </radialGradient>
    <linearGradient id="paint8_linear_1067_4399" x1="110.87" y1="171.342" x2="105.946" y2="187.599" gradientUnits="userSpaceOnUse">
      <stop stop-color="#FF9500"/>
      <stop offset="0.1" stop-color="#FFA70C"/>
      <stop offset="0.25" stop-color="#FFBB19"/>
      <stop offset="0.42" stop-color="#FFC922"/>
      <stop offset="0.64" stop-color="#FFD227"/>
      <stop offset="1" stop-color="#FFD429"/>
    </linearGradient>
    <linearGradient id="paint9_linear_1067_4399" x1="185.166" y1="179.601" x2="190.105" y2="195.755" gradientUnits="userSpaceOnUse">
      <stop stop-color="#FF9500"/>
      <stop offset="0.1" stop-color="#FFA70C"/>
      <stop offset="0.25" stop-color="#FFBB19"/>
      <stop offset="0.42" stop-color="#FFC922"/>
      <stop offset="0.64" stop-color="#FFD227"/>
      <stop offset="1" stop-color="#FFD429"/>
    </linearGradient>
    <radialGradient id="paint10_radial_1067_4399" cx="0" cy="0" r="1" gradientUnits="userSpaceOnUse" gradientTransform="translate(136.442 149.636) scale(43.4406 44.38)">
      <stop stop-color="#FFD429"/>
      <stop offset="0.36" stop-color="#FFD227"/>
      <stop offset="0.58" stop-color="#FFC922"/>
      <stop offset="0.75" stop-color="#FFBB19"/>
      <stop offset="0.9" stop-color="#FFA70C"/>
      <stop offset="1" stop-color="#FF9500"/>
    </radialGradient>
    <radialGradient id="paint11_radial_1067_4399" cx="0" cy="0" r="1" gradientUnits="userSpaceOnUse" gradientTransform="translate(143.878 62.8997) rotate(3.13267) scale(103.029 97.7712)">
      <stop stop-color="#FFD429"/>
      <stop offset="0.49" stop-color="#FFD228"/>
      <stop offset="0.67" stop-color="#FFCB23"/>
      <stop offset="0.8" stop-color="#FFC01C"/>
      <stop offset="0.9" stop-color="#FFAF11"/>
      <stop offset="0.99" stop-color="#FF9903"/>
      <stop offset="1" stop-color="#FF9500"/>
    </radialGradient>
    <radialGradient id="paint12_radial_1067_4399" cx="0" cy="0" r="1" gradientUnits="userSpaceOnUse" gradientTransform="translate(144.145 88.4207) rotate(2.83672) scale(52.9489 50.2437)">
      <stop stop-color="#FFD429"/>
      <stop offset="0.49" stop-color="#FFD228"/>
      <stop offset="0.67" stop-color="#FFCB23"/>
      <stop offset="0.8" stop-color="#FFC01C"/>
      <stop offset="0.9" stop-color="#FFAF11"/>
      <stop offset="0.99" stop-color="#FF9903"/>
      <stop offset="1" stop-color="#FF9500"/>
    </radialGradient>
    <linearGradient id="paint13_linear_1067_4399" x1="183.106" y1="64.9459" x2="179.793" y2="97.7317" gradientUnits="userSpaceOnUse">
      <stop stop-color="#00B4FF"/>
      <stop offset="0.04" stop-color="#07B8FF"/>
      <stop offset="0.35" stop-color="#38D7FF"/>
      <stop offset="0.63" stop-color="#5CEDFF"/>
      <stop offset="0.86" stop-color="#72FAFF"/>
      <stop offset="1" stop-color="#7AFFFF"/>
    </linearGradient>
    <linearGradient id="paint14_linear_1067_4399" x1="114.401" y1="61.4028" x2="113.348" y2="93.2295" gradientUnits="userSpaceOnUse">
      <stop stop-color="#00B4FF"/>
      <stop offset="0.04" stop-color="#07B8FF"/>
      <stop offset="0.35" stop-color="#38D7FF"/>
      <stop offset="0.63" stop-color="#5CEDFF"/>
      <stop offset="0.86" stop-color="#72FAFF"/>
      <stop offset="1" stop-color="#7AFFFF"/>
    </linearGradient>
    <linearGradient id="paint15_linear_1067_4399" x1="99.0464" y1="174.063" x2="91.5183" y2="191.805" gradientUnits="userSpaceOnUse">
      <stop stop-color="#FF9500"/>
      <stop offset="0.1" stop-color="#FFA70C"/>
      <stop offset="0.25" stop-color="#FFBB19"/>
      <stop offset="0.42" stop-color="#FFC922"/>
      <stop offset="0.64" stop-color="#FFD227"/>
      <stop offset="1" stop-color="#FFD429"/>
    </linearGradient>
    <linearGradient id="paint16_linear_1067_4399" x1="186.552" y1="168.523" x2="194.1" y2="186.366" gradientUnits="userSpaceOnUse">
      <stop stop-color="#FF9500"/>
      <stop offset="0.1" stop-color="#FFA70C"/>
      <stop offset="0.25" stop-color="#FFBB19"/>
      <stop offset="0.42" stop-color="#FFC922"/>
      <stop offset="0.64" stop-color="#FFD227"/>
      <stop offset="1" stop-color="#FFD429"/>
    </linearGradient>
  </defs>
</svg>
