<svg width="334" height="390" viewBox="0 0 334 390" fill="none" xmlns="http://www.w3.org/2000/svg">
<g opacity="0.4">
<path d="M245.085 118.309C202.029 142.567 168.324 164.133 176.185 176.579C184.046 189.024 236.241 189.935 279.272 165.676C322.304 141.417 340.058 101.297 332.185 88.8576C324.311 76.4179 288.177 94.0498 245.085 118.309Z" fill="url(#paint0_linear_1067_3858)"/>
<g style="mix-blend-mode:overlay">
<path d="M234.782 162.015L194.867 184.441L196.82 184.669L205.984 179.505C210.913 176.716 216.378 174.877 222.064 174.095C227.75 173.314 233.544 173.604 239.11 174.95L251.24 177.842L252.964 177.273L239.352 174.028C230.752 171.953 221.691 172.36 213.339 175.195L235.288 162.829C238.709 160.892 242.501 159.613 246.448 159.068C250.395 158.522 254.416 158.721 258.281 159.653L280.55 164.97L281.72 164.287L258.522 158.742C254.532 157.779 250.38 157.572 246.305 158.134C242.23 158.696 238.314 160.015 234.782 162.015Z" fill="white"/>
<path d="M225.197 135.827L227.144 128.608L225.896 129.348L224.232 135.61C223.268 139.264 221.546 142.7 219.166 145.721C216.786 148.742 213.795 151.286 210.366 153.208L175.063 173.094L175.19 174.108L210.873 154.011C214.416 152.026 217.506 149.396 219.965 146.275C222.424 143.153 224.202 139.602 225.197 135.827Z" fill="white"/>
<path d="M291.529 137.586L281.413 135.172C281.41 134.859 281.318 134.552 281.147 134.284C280.937 133.934 280.61 133.66 280.218 133.504C279.825 133.348 279.389 133.319 278.977 133.422C278.566 133.525 278.201 133.753 277.942 134.072C277.682 134.39 277.541 134.781 277.541 135.183C277.541 135.585 277.682 135.976 277.942 136.295C278.201 136.614 278.566 136.842 278.977 136.945C279.389 137.047 279.825 137.019 280.218 136.863C280.61 136.707 280.937 136.433 281.147 136.083L291.661 138.593L302.808 132.331L315.848 135.439L316.511 134.631L302.645 131.323L291.529 137.586Z" fill="white"/>
<path d="M321.653 98.8265L325.372 84.9123L324.323 84.7985L320.706 98.576C319.727 102.274 317.982 105.753 315.571 108.811C313.16 111.868 310.131 114.444 306.66 116.39L301.885 119.077L291.932 116.698C291.09 116.506 290.237 116.363 289.376 116.271L297.388 111.756C300.36 110.091 302.952 107.887 305.015 105.27C307.079 102.653 308.572 99.6751 309.409 96.5094L312.116 86.404L310.994 86.7171L308.444 96.2817C307.639 99.3281 306.202 102.194 304.216 104.712C302.23 107.23 299.735 109.352 296.876 110.953L287.664 116.14C283.852 116.023 280.086 116.944 276.813 118.793L257.913 129.439C257.95 129.336 257.986 129.234 258.016 129.126L264.521 107.605L263.315 108.272L257.093 128.87C254.403 137.82 248.186 145.457 239.719 150.213L183.72 181.76L184.872 182.209L240.226 151.022C248.337 146.441 254.442 139.267 257.431 130.8L277.277 119.641C280.457 117.84 284.128 116.963 287.833 117.119V117.159L287.893 117.119C289.16 117.177 290.419 117.355 291.649 117.648L323.359 125.203L323.883 124.378L303.206 119.442L307.124 117.233C310.715 115.225 313.848 112.565 316.342 109.405C318.836 106.246 320.641 102.65 321.653 98.8265Z" fill="white"/>
<path d="M277.844 150.76C277.626 150.413 277.291 150.145 276.893 149.999C276.495 149.852 276.057 149.836 275.648 149.953C275.239 150.069 274.883 150.312 274.637 150.642C274.392 150.971 274.27 151.369 274.292 151.772C274.313 152.175 274.477 152.559 274.757 152.864C275.037 153.168 275.417 153.376 275.836 153.452C276.256 153.529 276.69 153.471 277.07 153.287C277.45 153.104 277.755 152.805 277.934 152.439L293.837 156.237L294.808 155.508L278.091 151.523C278.071 151.254 277.987 150.993 277.844 150.76Z" fill="white"/>
<path d="M292.071 144.406L264.34 137.734C264.332 137.339 264.187 136.958 263.926 136.649C263.666 136.341 263.305 136.122 262.899 136.027C262.494 135.931 262.067 135.965 261.683 136.122C261.3 136.28 260.983 136.552 260.78 136.897C260.578 137.243 260.501 137.641 260.563 138.031C260.624 138.422 260.821 138.782 261.121 139.056C261.422 139.33 261.809 139.504 262.225 139.549C262.64 139.594 263.059 139.508 263.417 139.305C263.702 139.144 263.935 138.914 264.093 138.639L292.24 145.408L303.386 139.146L311.055 140.928L311.79 140.136L303.23 138.144L292.071 144.406Z" fill="white"/>
</g>
</g>
<g opacity="0.4">
<path d="M88.8979 116.037C131.96 140.296 165.665 161.861 157.804 174.301C149.943 186.741 97.7417 187.663 54.7163 163.404C11.6908 139.146 -6.06916 99.0255 1.82216 86.5801C9.71348 74.1348 45.8303 91.778 88.8979 116.037Z" fill="url(#paint1_linear_1067_3858)"/>
<g style="mix-blend-mode:overlay">
<path d="M99.2069 159.744L139.116 182.169L137.168 182.397L128.005 177.233C123.073 174.439 117.602 172.598 111.91 171.817C106.219 171.035 100.419 171.328 94.8483 172.679L82.7189 175.571L80.9948 175.001L94.6071 171.762C103.205 169.687 112.264 170.093 120.614 172.929L98.6703 160.563C95.2502 158.626 91.4572 157.347 87.5107 156.802C83.5641 156.257 79.5423 156.455 75.6776 157.387L53.4023 162.704L52.2388 162.021L75.4365 156.476C79.4304 155.507 83.5882 155.297 87.6687 155.858C91.7492 156.419 95.6711 157.74 99.2069 159.744Z" fill="white"/>
<path d="M108.792 133.555L106.839 126.336L108.093 127.076L109.756 133.338C110.72 136.992 112.442 140.429 114.822 143.449C117.202 146.47 120.193 149.015 123.622 150.936L158.925 170.823L158.792 171.836L123.11 151.739C119.568 149.753 116.479 147.123 114.021 144.002C111.564 140.88 109.786 137.329 108.792 133.555Z" fill="white"/>
<path d="M42.4604 135.314L52.5763 132.9C52.5799 132.453 52.7556 132.023 53.0705 131.69C53.3853 131.357 53.8178 131.143 54.2873 131.089C54.7568 131.035 55.231 131.144 55.6216 131.396C56.0122 131.647 56.2923 132.025 56.4097 132.458C56.5271 132.89 56.4738 133.349 56.2596 133.747C56.0454 134.145 55.6851 134.456 55.2459 134.622C54.8067 134.788 54.3187 134.797 53.8729 134.647C53.4271 134.498 53.0541 134.201 52.8235 133.811L42.3037 136.322L31.163 130.059L18.0993 133.15L17.4421 132.342L31.3077 129.034L42.4604 135.314Z" fill="white"/>
<path d="M12.336 96.5548L8.61646 82.6349L9.66541 82.521L13.2825 96.2986C14.2603 99.9975 16.0053 103.476 18.4163 106.534C20.8274 109.592 23.8567 112.168 27.3289 114.113L32.1035 116.8L42.0566 114.42C42.8984 114.228 43.7521 114.085 44.6127 113.993L36.6008 109.478C33.6227 107.817 31.0235 105.614 28.9538 102.997C26.8841 100.379 25.3851 97.4003 24.5438 94.2319L21.843 84.1265L22.9643 84.4396L25.5083 94.0042C26.3157 97.0505 27.7544 99.9156 29.7411 102.434C31.7278 104.952 34.2231 107.073 37.0831 108.676L46.2946 113.862C50.1062 113.746 53.8729 114.667 57.1459 116.515L76.0393 127.161C76.0393 127.059 75.973 126.957 75.9368 126.848L69.438 105.328L70.6437 105.988L76.8712 126.592C79.5611 135.542 85.7783 143.18 94.2454 147.936L150.244 179.482L149.093 179.926L93.739 148.739C85.6437 144.156 79.5548 136.986 76.5758 128.528L56.7119 117.363C53.5299 115.567 49.8596 114.692 46.1559 114.847V114.887L46.0896 114.847C44.8242 114.906 43.5682 115.083 42.3399 115.377L10.63 122.926L10.1055 122.106L30.7592 117.147L26.8467 114.938C23.2609 112.932 20.132 110.275 17.6413 107.119C15.1505 103.964 13.3473 100.373 12.336 96.5548Z" fill="white"/>
<path d="M56.1451 148.488C56.363 148.141 56.6976 147.873 57.0956 147.727C57.4936 147.581 57.932 147.565 58.3408 147.681C58.7497 147.798 59.1054 148.04 59.3513 148.37C59.5971 148.7 59.7189 149.098 59.6972 149.501C59.6755 149.903 59.5116 150.288 59.2316 150.592C58.9516 150.897 58.5717 151.104 58.1525 151.181C57.7332 151.257 57.2988 151.199 56.9186 151.016C56.5383 150.832 56.2342 150.533 56.0547 150.168L40.1515 153.965L39.199 153.23L55.91 149.245C55.93 148.98 56.0102 148.722 56.1451 148.488Z" fill="white"/>
<path d="M41.9175 142.135L69.6486 135.456C69.6576 135.062 69.804 134.682 70.0651 134.374C70.3262 134.066 70.6875 133.848 71.093 133.754C71.4984 133.66 71.9255 133.694 72.3081 133.852C72.6907 134.01 73.0075 134.283 73.2094 134.628C73.4113 134.973 73.4871 135.372 73.425 135.762C73.363 136.152 73.1665 136.512 72.866 136.785C72.5656 137.059 72.1779 137.232 71.763 137.277C71.3481 137.322 70.9292 137.236 70.571 137.033C70.2833 136.875 70.0475 136.644 69.8897 136.367L41.7426 143.137L30.6019 136.874L22.9337 138.656L22.2163 137.859L30.7708 135.866L41.9175 142.135Z" fill="white"/>
</g>
</g>
<g opacity="0.4">
<path d="M249.877 147.088C206.888 152.092 172.284 158.047 173.918 170.47C175.552 182.892 216.467 200.797 259.451 195.793C302.434 190.789 331.232 164.902 329.61 152.473C327.989 140.045 292.861 142.083 249.877 147.088Z" fill="url(#paint2_linear_1067_3858)"/>
<g style="mix-blend-mode:overlay">
<path d="M225.601 178.247L185.776 182.835L187.235 183.655L196.387 182.59C201.314 182.002 206.317 182.343 211.104 183.594C215.891 184.845 220.368 186.981 224.274 189.878L232.793 196.14L234.366 196.266L224.799 189.223C218.756 184.755 211.434 182.099 203.777 181.6L225.685 179.049C229.103 178.644 232.573 178.882 235.893 179.749C239.214 180.617 242.319 182.097 245.031 184.105L260.705 195.639L261.88 195.486L245.603 183.467C242.801 181.389 239.59 179.858 236.157 178.962C232.723 178.066 229.135 177.822 225.601 178.247Z" fill="white"/>
<path d="M227.686 154.369L231.906 149.302L230.646 149.479L227.029 153.868C224.915 156.44 222.281 158.591 219.28 160.194C216.279 161.798 212.97 162.823 209.547 163.211L174.304 167.315L174.033 168.158L209.649 164.019C213.182 163.617 216.595 162.557 219.691 160.9C222.787 159.244 225.505 157.024 227.686 154.369Z" fill="white"/>
<path d="M279.465 177.609L272.364 172.371C272.477 172.124 272.519 171.853 272.484 171.585C272.443 171.241 272.283 170.919 272.028 170.669C271.773 170.42 271.438 170.257 271.075 170.206C270.712 170.155 270.341 170.219 270.02 170.388C269.7 170.556 269.447 170.821 269.302 171.139C269.157 171.458 269.128 171.812 269.218 172.148C269.309 172.484 269.515 172.782 269.804 172.996C270.092 173.21 270.448 173.328 270.815 173.331C271.182 173.335 271.54 173.223 271.833 173.014L279.218 178.457L290.347 177.142L299.504 183.894L300.33 183.473L290.588 176.316L279.465 177.609Z" fill="white"/>
<path d="M317.584 156.886L325.65 147.127L324.866 146.689L316.902 156.367C314.766 158.969 312.104 161.144 309.071 162.768C306.038 164.391 302.694 165.43 299.233 165.824L294.464 166.393L287.477 161.269C286.883 160.84 286.261 160.447 285.614 160.091L293.608 159.157C296.572 158.82 299.435 157.932 302.032 156.543C304.629 155.154 306.909 153.293 308.74 151.067L314.606 143.968L313.605 143.842L308.071 150.538C306.311 152.685 304.117 154.482 301.617 155.823C299.117 157.165 296.36 158.025 293.506 158.354L284.306 159.425C281.331 158.069 278.005 157.553 274.727 157.939L255.864 160.136L256.057 159.926L269.139 145.049L267.933 145.169L255.412 159.402C249.981 165.59 242.247 169.578 233.8 170.549L177.897 177.062L178.645 177.791L233.92 171.335C242.033 170.393 249.519 166.734 255.02 161.025L274.836 158.713C278.014 158.338 281.238 158.855 284.107 160.199V160.233H284.174C285.15 160.698 286.077 161.251 286.941 161.884L309.246 178.292L309.964 177.814L295.411 167.099L299.323 166.644C302.899 166.24 306.355 165.169 309.49 163.494C312.624 161.819 315.375 159.573 317.584 156.886Z" fill="white"/>
<path d="M263.791 183.518C263.745 183.176 263.58 182.857 263.32 182.614C263.061 182.37 262.722 182.216 262.359 182.175C261.996 182.134 261.629 182.209 261.316 182.387C261.003 182.566 260.762 182.839 260.632 183.161C260.502 183.484 260.489 183.839 260.597 184.169C260.705 184.499 260.927 184.786 261.227 184.983C261.527 185.18 261.888 185.277 262.254 185.259C262.619 185.24 262.967 185.106 263.243 184.879L274.414 193.111L275.457 192.855L263.713 184.202C263.794 183.982 263.82 183.749 263.791 183.518Z" fill="white"/>
<path d="M277.379 183.177L257.913 168.773C258.023 168.523 258.065 168.251 258.034 167.982C257.999 167.675 257.869 167.385 257.659 167.148C257.449 166.912 257.169 166.74 256.855 166.654C256.542 166.568 256.208 166.573 255.897 166.666C255.586 166.76 255.311 166.939 255.108 167.181C254.905 167.423 254.783 167.716 254.757 168.023C254.731 168.331 254.802 168.639 254.962 168.908C255.122 169.177 255.363 169.395 255.655 169.534C255.946 169.673 256.275 169.727 256.599 169.69C256.884 169.657 257.155 169.552 257.383 169.388L277.132 184.002L288.261 182.704L293.686 186.638L294.561 186.251L288.532 181.862L277.379 183.177Z" fill="white"/>
</g>
</g>
<g opacity="0.4">
<path d="M86.022 141.275C128.668 148.403 162.891 156.077 160.583 168.392C158.274 180.706 116.412 196.562 73.7721 189.457C31.1324 182.351 3.81126 155.053 6.12018 142.727C8.42909 130.401 43.3703 134.124 86.022 141.275Z" fill="url(#paint3_linear_1067_3858)"/>
<g style="mix-blend-mode:overlay">
<path d="M108.527 173.567L148.037 180.131L146.536 180.877L137.463 179.357C132.578 178.528 127.566 178.623 122.719 179.635C117.872 180.648 113.286 182.558 109.226 185.255L100.37 191.102L98.7966 191.147L108.738 184.589C115.007 180.422 122.456 178.128 130.121 178.002L108.382 174.369C104.991 173.792 101.513 173.857 98.1488 174.558C94.7845 175.26 91.6012 176.585 88.7832 178.457L72.5063 189.2L71.3428 188.984L88.2768 177.797C91.1881 175.862 94.477 174.492 97.9529 173.766C101.429 173.039 105.023 172.972 108.527 173.567Z" fill="white"/>
<path d="M107.773 149.644L103.855 144.378L105.103 144.611L108.473 149.166C110.438 151.842 112.948 154.122 115.855 155.874C118.762 157.627 122.009 158.816 125.407 159.373L160.372 165.22L160.601 166.074L125.256 160.171C121.749 159.597 118.398 158.371 115.396 156.563C112.395 154.756 109.804 152.404 107.773 149.644Z" fill="white"/>
<path d="M54.7705 170.265L62.1555 165.386C62.0736 165.137 62.057 164.873 62.1072 164.617C62.1633 164.314 62.3132 164.034 62.538 163.812C62.7627 163.589 63.0522 163.435 63.3699 163.368C63.6875 163.301 64.0191 163.325 64.3226 163.436C64.6261 163.547 64.8879 163.74 65.075 163.991C65.2621 164.243 65.3661 164.541 65.3737 164.849C65.3813 165.156 65.2923 165.458 65.1179 165.718C64.9435 165.977 64.6915 166.182 64.3939 166.306C64.0962 166.431 63.7662 166.469 63.4455 166.416C63.1636 166.366 62.9 166.248 62.6799 166.074L54.9996 171.141L43.9614 169.297L34.4424 175.588L33.6406 175.127L43.7625 168.443L54.7705 170.265Z" fill="white"/>
<path d="M17.8642 147.68L10.3467 137.535L11.1545 137.136L18.5635 147.213C20.554 149.917 23.0925 152.222 26.0324 153.994C28.9722 155.766 32.2549 156.969 35.6905 157.535L40.4169 158.321L47.6873 153.521C48.3021 153.119 48.9445 152.756 49.6104 152.434L41.6768 151.107C38.736 150.624 35.926 149.595 33.4093 148.079C30.8926 146.564 28.7194 144.592 27.0155 142.277L21.5537 134.876L22.5604 134.802L27.7449 141.81C29.3837 144.038 31.4744 145.937 33.8959 147.396C36.3175 148.855 39.0217 149.845 41.8517 150.31L50.9728 151.836C54.0183 150.63 57.3675 150.281 60.6184 150.828L79.3068 153.954C79.2465 153.88 79.1802 153.812 79.1199 153.732L66.9303 138.235L68.136 138.411L79.8192 153.231C84.8956 159.682 92.3971 164.05 100.78 165.437L156.243 174.711L155.459 175.4L100.599 166.24C92.5488 164.898 85.2756 160.871 80.1025 154.893L60.4436 151.608C57.2905 151.074 54.0406 151.429 51.0994 152.627V152.661H51.0331C50.031 153.078 49.074 153.585 48.1756 154.176L25.014 169.451L24.3208 168.938L39.392 158.97L35.5398 158.355C31.9923 157.768 28.6033 156.523 25.5691 154.69C22.535 152.858 19.9161 150.475 17.8642 147.68Z" fill="white"/>
<path d="M70.0955 176.943C70.1518 176.64 70.3021 176.36 70.5272 176.137C70.7524 175.915 71.0423 175.761 71.3603 175.694C71.6782 175.628 72.01 175.652 72.3135 175.763C72.617 175.875 72.8787 176.069 73.0653 176.321C73.252 176.573 73.3553 176.872 73.3621 177.179C73.3689 177.487 73.279 177.789 73.1036 178.048C72.9283 178.308 72.6755 178.512 72.3772 178.635C72.0789 178.759 71.7485 178.796 71.4279 178.742C71.1047 178.688 70.8062 178.543 70.5718 178.326L58.9602 185.995L57.9292 185.688L70.1377 177.626C70.0692 177.404 70.0548 177.171 70.0955 176.943Z" fill="white"/>
<path d="M56.5488 175.929L76.7925 162.505C76.6908 162.253 76.6637 161.979 76.7142 161.713C76.7749 161.373 76.9531 161.061 77.2211 160.826C77.4891 160.591 77.8318 160.446 78.1958 160.415C78.5599 160.383 78.9249 160.465 79.2341 160.65C79.5432 160.834 79.7792 161.11 79.9052 161.434C80.0312 161.758 80.0403 162.112 79.9309 162.442C79.8215 162.771 79.5999 163.057 79.3005 163.256C79.0011 163.454 78.6407 163.553 78.2754 163.538C77.9101 163.522 77.5605 163.393 77.2808 163.171L56.7477 176.783L45.7095 174.939L40.091 178.599L39.241 178.172L45.5046 174.085L56.5488 175.929Z" fill="white"/>
</g>
</g>
<path style="mix-blend-mode:multiply" d="M164.767 390C240.522 390 301.933 375.988 301.933 358.704C301.933 341.42 240.522 327.409 164.767 327.409C89.0117 327.409 27.6001 341.42 27.6001 358.704C27.6001 375.988 89.0117 390 164.767 390Z" fill="url(#paint4_radial_1067_3858)"/>
<path d="M128.228 299.444C128.228 307.488 132.997 318.362 135.963 318.351C138.93 318.34 143.614 307.448 143.59 299.404C143.566 291.359 138.845 289.213 135.879 289.219C132.913 289.224 128.21 291.399 128.228 299.444Z" fill="#141414"/>
<path d="M145.066 211.979C144.993 212.064 144.65 212.395 144.421 212.657C144.192 212.918 143.932 213.226 143.685 213.539C143.209 214.182 142.757 214.837 142.341 215.537C141.925 216.238 141.563 216.972 141.177 217.689C140.791 218.407 140.496 219.187 140.213 219.967C139.028 223.109 138.241 226.373 137.868 229.691C137.45 233.057 137.289 236.448 137.385 239.836L137.705 244.96L138.308 250.084V250.294C138.393 250.873 138.354 251.462 138.194 252.026C138.034 252.59 137.756 253.119 137.377 253.58C136.997 254.041 136.523 254.425 135.984 254.711C135.444 254.996 134.849 255.177 134.234 255.241C133.62 255.306 132.997 255.254 132.405 255.087C131.812 254.921 131.26 254.644 130.782 254.274C130.304 253.903 129.91 253.445 129.622 252.928C129.335 252.411 129.16 251.844 129.108 251.262C129.108 251.143 129.108 251.023 129.108 250.904L128.933 245.33C128.933 243.463 129.024 241.595 129.066 239.734C129.284 235.975 129.787 232.236 130.573 228.546C131.337 224.787 132.567 221.126 134.238 217.638C134.648 216.756 135.161 215.902 135.619 215.036C136.077 214.171 136.65 213.328 137.259 212.531C137.855 211.705 138.497 210.909 139.182 210.146C139.556 209.764 139.899 209.383 140.303 209.007C140.741 208.585 141.211 208.194 141.708 207.834C142.246 207.448 142.917 207.262 143.591 207.314C144.265 207.366 144.895 207.651 145.36 208.115C145.825 208.579 146.093 209.189 146.111 209.827C146.128 210.466 145.896 211.088 145.458 211.575L145.066 211.979Z" fill="#141414"/>
<path d="M123.309 285.945C123.815 295.55 129.548 300.178 133.322 302.222C134.311 302.756 135.441 303.011 136.579 302.957C137.717 302.904 138.815 302.544 139.743 301.92C143.287 299.552 148.508 294.394 148.002 284.79C147.399 273.227 142.962 256.557 137.705 250.585C136.415 249.11 135.227 248.063 133.883 248.125C132.539 248.188 131.285 249.264 130.205 250.647C125.467 256.847 122.694 274.194 123.309 285.945Z" fill="url(#paint5_linear_1067_3858)"/>
<g style="mix-blend-mode:overlay">
<path d="M134.6 248.159C135.51 248.467 136.373 249.383 137.301 250.584C141.985 256.665 146.073 273.414 146.736 284.989C147.285 294.599 142.751 299.637 139.658 301.937C139.483 302.067 139.298 302.183 139.104 302.285C144.662 280.65 133.907 248.045 133.907 248.045L134.6 248.159Z" fill="#4D4D4D"/>
</g>
<g style="mix-blend-mode:overlay" opacity="0.5">
<path d="M125.63 284.613C125.81 288.496 127.034 291.593 128.367 291.542C129.699 291.49 129.808 288.536 129.627 284.658C129.446 280.781 129.024 277.434 127.71 277.491C126.395 277.548 125.449 280.759 125.63 284.613Z" fill="white"/>
</g>
<g style="mix-blend-mode:overlay" opacity="0.5">
<path d="M126.612 272.788C126.564 273.927 127.088 274.878 127.782 274.906C128.475 274.935 129.078 274.024 129.126 272.879C129.175 271.735 128.65 270.79 127.957 270.767C127.263 270.744 126.666 271.65 126.612 272.788Z" fill="white"/>
</g>
<path d="M231.508 295.971C233.872 303.697 232.539 315.39 229.7 316.17C226.86 316.95 219.12 307.727 216.757 299.996C214.394 292.265 218.288 288.957 221.133 288.183C223.979 287.408 229.097 288.239 231.508 295.971Z" fill="#141414"/>
<path d="M191.545 201.697C192.177 202.066 192.781 202.475 193.354 202.921C193.83 203.319 194.336 203.718 194.783 204.134C195.699 204.959 196.519 205.842 197.333 206.713C198.886 208.477 200.31 210.339 201.595 212.286C204.104 216.11 206.247 220.138 207.997 224.322C208.962 226.377 209.655 228.495 210.493 230.584C211.222 232.696 211.916 234.82 212.591 236.949C213.266 239.078 213.796 241.231 214.369 243.377L215.876 249.856C216.007 250.416 216.019 250.996 215.913 251.561C215.806 252.127 215.583 252.666 215.255 253.15C214.928 253.634 214.503 254.052 214.004 254.381C213.506 254.709 212.943 254.942 212.35 255.065C211.756 255.188 211.142 255.2 210.544 255.099C209.945 254.999 209.373 254.788 208.861 254.479C208.349 254.169 207.906 253.768 207.558 253.297C207.211 252.826 206.964 252.295 206.834 251.735C206.81 251.643 206.792 251.549 206.779 251.456V251.285L205.785 245.022C205.405 242.956 204.953 240.9 204.543 238.834C204.133 236.767 203.536 234.757 202.993 232.731C202.354 230.744 201.848 228.688 201.088 226.747C199.751 222.817 198.046 219.006 195.994 215.361C194.987 213.583 193.855 211.872 192.606 210.237C191.967 209.451 191.322 208.665 190.635 207.959C190.297 207.595 189.942 207.282 189.592 206.94C189.242 206.599 188.808 206.286 188.67 206.177L188.332 205.91C187.797 205.488 187.451 204.89 187.365 204.236C187.278 203.583 187.457 202.923 187.865 202.389C188.274 201.856 188.881 201.488 189.565 201.361C190.249 201.233 190.959 201.355 191.551 201.703L191.545 201.697Z" fill="#141414"/>
<path d="M232.202 281.709C234.565 291.063 230.442 297.036 227.421 299.985C226.631 300.759 225.622 301.303 224.514 301.553C223.406 301.804 222.246 301.749 221.17 301.397C217.064 300.053 210.517 296.489 208.154 287.164C205.303 275.897 204.622 258.698 207.895 251.598C208.703 249.845 209.529 248.524 210.837 248.228C212.145 247.932 213.664 248.615 215.111 249.679C221.495 254.336 229.308 270.266 232.202 281.709Z" fill="url(#paint6_linear_1067_3858)"/>
<g style="mix-blend-mode:overlay">
<path d="M210.162 248.427C209.372 248.956 208.817 250.066 208.287 251.467C205.592 258.544 206.635 275.703 209.432 286.993C211.753 296.358 217.601 300.002 221.249 301.385C221.457 301.462 221.671 301.527 221.888 301.579C210.132 282.262 210.789 248.131 210.789 248.131L210.162 248.427Z" fill="#4D4D4D"/>
</g>
<g style="mix-blend-mode:overlay" opacity="0.5">
<path d="M228.989 280.537C229.978 284.249 229.755 287.5 228.483 287.801C227.21 288.103 226.222 285.353 225.233 281.641C224.244 277.929 223.623 274.667 224.895 274.365C226.168 274.064 228 276.825 228.989 280.537Z" fill="white"/>
</g>
<g style="mix-blend-mode:overlay" opacity="0.5">
<path d="M224.274 270.237C224.696 271.291 224.521 272.333 223.876 272.555C223.231 272.777 222.381 272.111 221.959 271.057C221.537 270.004 221.718 268.968 222.357 268.74C222.996 268.512 223.864 269.184 224.274 270.237Z" fill="white"/>
</g>
<path d="M198.713 221.583C201.197 242.825 182.044 269.93 175.341 270.63C168.637 271.331 143.673 248.831 141.189 227.59C138.706 206.348 150.455 195.383 166.34 193.726C182.225 192.07 196.223 200.348 198.713 221.583Z" fill="url(#paint7_radial_1067_3858)"/>
<g style="mix-blend-mode:overlay" opacity="0.5">
<path d="M172.719 264.209C173.924 265.347 174.358 266.776 173.683 267.419C173.008 268.063 171.489 267.664 170.277 266.531C169.065 265.398 168.637 263.964 169.312 263.32C169.987 262.677 171.507 263.076 172.719 264.209Z" fill="white"/>
</g>
<path d="M197.146 213.789C199.057 233.676 142.841 239.409 140.942 219.653C140.942 219.653 136.379 230.129 148.466 244.425C161.343 259.654 186.578 254.769 195.096 239.443C202.909 225.352 197.146 213.789 197.146 213.789Z" fill="#141414"/>
<g style="mix-blend-mode:overlay">
<path d="M195.681 212.525C195.681 212.525 204.658 240.621 177.318 269.11C177.318 269.11 193.933 245.404 195.681 212.525Z" fill="#4D4D4D"/>
</g>
<g style="mix-blend-mode:overlay">
<path d="M142.642 223.388C142.642 223.388 142.244 244.618 164.303 260.878C164.303 260.878 149.081 245.313 142.642 223.388Z" fill="#4D4D4D"/>
</g>
<g style="mix-blend-mode:overlay">
<path d="M169.656 223.007C189.671 220.917 194.439 207.715 194.439 207.715L194.494 207.407C188.682 196.67 178.024 192.502 166.34 193.744C154.543 194.973 145.036 201.344 141.937 213.231C141.985 213.408 142.009 213.51 142.009 213.51C142.009 213.51 149.641 225.096 169.656 223.007Z" fill="#4D4D4D"/>
</g>
<path d="M95.5171 260.382C93.8833 266.685 96.3491 276.079 98.3929 275.424C100.804 274.661 97.5489 266.133 105.435 261.413C111.246 257.94 105.796 250.436 103.355 249.867C100.913 249.298 97.151 254.074 95.5171 260.382Z" fill="#141414"/>
<path d="M109.799 264.818C109.763 268.718 110.077 270.118 108.244 270.101C106.411 270.084 104.886 267.795 104.922 263.895C104.922 263.115 102.51 261.766 102.667 261.094C103.27 258.413 106.887 255.97 108.365 255.97C110.197 256.01 109.83 260.935 109.799 264.818Z" fill="#141414"/>
<path d="M110.011 254.712C110.445 258.401 108.733 261.612 106.183 261.88C103.632 262.147 95.3306 262.814 95.8792 259.13C96.6389 253.778 102.059 248.785 104.609 248.518C107.159 248.25 109.577 251.023 110.011 254.712Z" fill="#141414"/>
<path d="M63.4095 249.309C63.2286 255.8 64.2294 260.65 66.3335 260.2C68.7873 259.682 67.7744 251.496 74.4243 245.307C79.3258 240.752 72.3142 234.49 69.8001 234.439C67.2861 234.387 63.5903 242.819 63.4095 249.309Z" fill="#141414"/>
<path d="M79.4579 247.778C80.3019 251.598 80.9168 252.902 79.1263 253.255C77.3357 253.608 75.3281 251.678 74.484 247.858C74.3152 247.089 71.6625 246.252 71.6565 245.58C71.6565 242.842 74.6408 239.716 76.0756 239.437C77.8662 239.073 78.6138 243.958 79.4579 247.778Z" fill="#141414"/>
<path d="M77.3963 237.838C78.6503 241.362 77.6917 244.84 75.2561 245.609C72.8204 246.378 63.9218 249.822 63.7409 246.11C63.56 242.398 68.2866 233.636 70.7223 232.868C73.158 232.099 76.1423 234.319 77.3963 237.838Z" fill="#141414"/>
<path d="M124.008 181.623C121.56 183.002 119.204 184.523 116.955 186.177C114.666 187.837 112.467 189.604 110.366 191.472C108.274 193.345 106.242 195.269 104.337 197.313C102.432 199.357 100.684 201.469 98.9899 203.627L98.9235 203.707C98.1928 204.638 97.1005 205.256 95.8869 205.426C94.6732 205.597 93.4376 205.305 92.4519 204.615C91.4662 203.925 90.8111 202.893 90.6308 201.747C90.4505 200.601 90.7597 199.434 91.4904 198.503C91.5821 198.382 91.6807 198.266 91.7857 198.156C93.9138 195.958 96.078 193.806 98.4171 191.814C100.756 189.821 103.125 187.919 105.591 186.12C108.057 184.321 110.643 182.704 113.283 181.133C115.956 179.555 118.735 178.144 121.603 176.909C122.251 176.622 122.991 176.584 123.668 176.801C124.345 177.019 124.907 177.476 125.235 178.076C125.564 178.676 125.633 179.373 125.429 180.02C125.225 180.668 124.763 181.216 124.141 181.549L124.008 181.623Z" fill="#141414"/>
<path d="M83.1049 240.098C89.5494 238.321 103.095 206.684 101.106 202.181C100.033 199.761 94.6013 196.391 91.8281 196.425C86.6617 196.488 61.2938 220.798 62.1257 227.089C62.9094 232.97 77.0824 241.76 83.1049 240.098Z" fill="url(#paint8_linear_1067_3858)"/>
<g style="mix-blend-mode:overlay">
<path d="M81.1516 239.375C79.4154 239.853 77.4079 238.766 74.8157 237.775C91.0625 220.655 97.0548 199.203 97.0608 199.164C98.2304 200.052 99.3155 200.593 99.6893 201.441C101.594 205.739 87.3007 237.678 81.1516 239.375Z" fill="#4D4D4D"/>
</g>
<g style="mix-blend-mode:overlay" opacity="0.5">
<path d="M67.298 221.344C65.4894 224.151 64.7659 226.878 65.7245 227.436C66.6831 227.994 68.2566 225.978 70.0834 223.172C71.9101 220.365 73.3209 217.843 72.3563 217.279C71.3917 216.716 69.1308 218.543 67.298 221.344Z" fill="white"/>
</g>
<g style="mix-blend-mode:overlay" opacity="0.5">
<path d="M73.9594 213.493C73.3565 214.273 73.2359 215.173 73.7122 215.503C74.1885 215.833 75.0627 215.469 75.6716 214.689C76.2805 213.909 76.3951 212.981 75.9248 212.679C75.4546 212.377 74.5683 212.713 73.9594 213.493Z" fill="white"/>
</g>
<path d="M133.883 199.283C132.041 200.628 130.315 202.109 128.722 203.712C127.12 205.322 125.654 207.049 124.34 208.876C123.038 210.647 121.926 212.535 121.018 214.512C120.127 216.423 119.446 218.414 118.986 220.456L118.932 220.672C118.79 221.231 118.532 221.757 118.174 222.222C117.816 222.686 117.365 223.08 116.846 223.38C116.327 223.679 115.751 223.88 115.15 223.969C114.549 224.058 113.935 224.035 113.344 223.9C112.752 223.766 112.195 223.523 111.703 223.185C111.211 222.847 110.795 222.42 110.477 221.93C110.16 221.44 109.948 220.896 109.853 220.328C109.758 219.761 109.783 219.181 109.925 218.623C109.967 218.459 110.017 218.298 110.076 218.139C111.001 215.609 112.197 213.175 113.645 210.874C115.052 208.631 116.683 206.521 118.516 204.572C120.299 202.654 122.238 200.87 124.316 199.238C126.393 197.596 128.611 196.12 130.947 194.825C131.557 194.486 132.281 194.379 132.971 194.529C133.661 194.678 134.264 195.071 134.656 195.628C135.048 196.184 135.2 196.861 135.08 197.52C134.959 198.179 134.576 198.769 134.009 199.169L133.883 199.283Z" fill="#141414"/>
<path d="M278.591 203.041C275.963 205.625 269.283 206.849 265.214 204.749C261.145 202.648 258.751 200.262 260.994 196.414C263.236 192.565 270.41 187.726 274.486 189.861C278.561 191.996 281.816 199.869 278.591 203.041Z" fill="#141414"/>
<path d="M270.26 185.961C270.26 189.906 268.837 194.501 266.998 194.501C265.16 194.501 260.97 200.98 264.828 188.17C266.317 183.223 265.166 180.199 266.998 180.199C268.831 180.199 270.26 182.01 270.26 185.961Z" fill="#141414"/>
<path d="M277.536 190.681C273.461 192.81 272.11 193.692 271.345 192.565C270.579 191.438 270.706 190.026 274.594 187.595C278.483 185.164 284.313 182.909 285.446 183.775C287.351 185.283 281.889 188.415 277.536 190.681Z" fill="#141414"/>
<path d="M279.809 194.637C275.547 196.414 274.154 196.824 273.521 195.605C272.888 194.387 273.232 193.009 277.416 191.051C281.6 189.092 287.773 187.509 288.671 188.568C289.829 189.957 284.27 192.781 279.809 194.637Z" fill="#141414"/>
<path d="M281.117 198.742C276.602 199.835 275.125 200.188 274.679 199.01C274.233 197.831 274.769 196.579 279.164 195.098C283.559 193.618 289.985 192.548 290.588 193.652C291.595 195.548 285.765 197.638 281.117 198.742Z" fill="#141414"/>
<path d="M280.774 203.075C276.668 203.758 273.847 203.502 273.684 202.249C273.521 200.997 274.214 199.875 278.26 199.403C282.305 198.93 288.225 199.277 288.334 200.541C288.533 202.824 284.771 202.409 280.774 203.075Z" fill="#141414"/>
<path d="M293.307 139.618C291.793 143.569 285.253 147.896 279.809 147.446C274.365 146.997 270.609 145.551 271.086 140.41C271.562 135.269 276.795 126.848 282.238 127.315C287.682 127.782 295.163 134.762 293.307 139.618Z" fill="#141414"/>
<path d="M275.734 125.055C277.73 129.291 278.543 134.881 276.572 135.713C274.601 136.544 273.377 145.391 271.037 129.905C270.139 123.922 267.372 121.201 269.337 120.375C271.303 119.549 273.738 120.825 275.734 125.055Z" fill="#141414"/>
<path d="M285.928 126.843C282.631 130.959 281.654 132.502 280.237 131.648C278.82 130.794 278.272 129.217 281.208 124.861C284.144 120.506 289.262 115.451 290.854 115.877C293.718 116.629 289.443 122.442 285.928 126.843Z" fill="#141414"/>
<path d="M290.359 130.059C286.688 133.885 285.403 134.95 284.113 133.931C282.823 132.912 282.485 131.278 285.988 127.309C289.491 123.341 295.303 118.844 296.804 119.572C298.739 120.517 294.206 126.057 290.359 130.059Z" fill="#141414"/>
<path d="M293.838 133.874C289.551 137.079 288.147 138.121 287.073 137.062C286 136.003 285.94 134.415 289.901 130.851C293.862 127.287 300.234 123.233 301.44 124.156C303.46 125.715 298.269 130.549 293.838 133.874Z" fill="#141414"/>
<path d="M295.658 138.667C291.607 141.246 288.424 142.248 287.64 140.979C286.856 139.709 287.037 138.195 291.106 135.855C295.176 133.515 301.735 131.226 302.489 132.53C303.852 134.899 299.631 136.151 295.658 138.667Z" fill="#141414"/>
<path d="M205.972 195.833C206.638 196.485 207.351 197.092 208.106 197.649C208.909 198.239 209.753 198.777 210.632 199.26C212.367 200.223 214.236 200.953 216.184 201.429C218.102 201.907 220.079 202.14 222.062 202.124C223.051 202.127 224.04 202.074 225.022 201.965C226.005 201.862 226.993 201.64 227.97 201.492L228.452 201.424C229.667 201.244 230.908 201.528 231.902 202.212C232.896 202.896 233.561 203.926 233.751 205.073C233.942 206.221 233.641 207.393 232.917 208.331C232.192 209.27 231.102 209.898 229.887 210.077C229.712 210.077 229.513 210.117 229.338 210.123C228.012 210.168 226.704 210.277 225.384 210.248C224.056 210.228 222.732 210.131 221.417 209.958C218.782 209.635 216.203 208.984 213.749 208.022C211.315 207.077 209.031 205.821 206.961 204.287C205.938 203.531 204.967 202.713 204.055 201.839C203.104 200.923 202.237 199.933 201.463 198.879C201.064 198.338 200.896 197.675 200.994 197.022C201.092 196.37 201.448 195.776 201.99 195.361C202.532 194.947 203.221 194.741 203.917 194.786C204.613 194.832 205.266 195.124 205.743 195.605L205.972 195.833Z" fill="#141414"/>
<path d="M210.011 176.22C211.335 176.172 212.656 176.05 213.966 175.855C215.334 175.645 216.696 175.4 218.047 175.064C220.744 174.418 223.382 173.565 225.932 172.514C228.469 171.46 230.916 170.223 233.251 168.813C235.569 167.411 237.785 165.863 239.882 164.179L239.997 164.088C240.946 163.351 242.166 163 243.388 163.113C244.611 163.225 245.736 163.792 246.517 164.688C247.297 165.584 247.668 166.737 247.549 167.891C247.429 169.046 246.829 170.109 245.88 170.845C245.76 170.937 245.627 171.028 245.501 171.107C242.871 172.798 240.124 174.32 237.278 175.662C234.441 177.002 231.498 178.132 228.476 179.044C225.462 179.948 222.376 180.62 219.247 181.053C217.685 181.281 216.106 181.406 214.52 181.492C212.877 181.574 211.23 181.555 209.589 181.435C208.875 181.391 208.206 181.087 207.724 180.588C207.242 180.088 206.983 179.432 207.003 178.756C207.022 178.08 207.318 177.438 207.829 176.964C208.339 176.49 209.024 176.221 209.74 176.214L210.011 176.22Z" fill="#141414"/>
<path d="M207.299 199.534C204.887 203.809 200.552 206.069 197.604 204.595C194.656 203.12 194.204 198.446 196.603 194.176C199.003 189.906 203.344 187.64 206.298 189.121C209.252 190.601 209.698 195.264 207.299 199.534Z" fill="#141414"/>
<path d="M127.782 199.534C130.193 203.809 134.522 206.069 137.476 204.595C140.43 203.12 140.877 198.446 138.477 194.176C136.078 189.906 131.731 187.64 128.777 189.121C125.822 190.601 125.406 195.264 127.782 199.534Z" fill="#141414"/>
<path d="M115.761 183.006C117.57 189.354 123.598 193.345 129.259 191.916C134.92 190.487 138.066 184.179 136.258 177.831C134.449 171.483 128.421 167.492 122.76 168.921C117.099 170.35 113.952 176.653 115.761 183.006Z" fill="#141414"/>
<path d="M219.352 182.947C221.163 176.557 218.047 170.218 212.393 168.789C206.739 167.36 200.687 171.382 198.876 177.773C197.066 184.164 200.182 190.503 205.836 191.932C211.49 193.36 217.542 189.338 219.352 182.947Z" fill="#141414"/>
<path d="M167.54 219.301C173.635 219.301 184.703 217.023 191.654 209.121C187.603 198.378 178.096 191.512 167.54 191.512C156.984 191.512 147.58 198.378 143.426 209.121C150.371 216.995 161.626 219.301 167.54 219.301Z" fill="#141414"/>
<path d="M167.54 192.172C178.096 192.172 187.235 198.389 191.654 209.36C203.711 209.36 211.97 173.806 211.97 169.633C211.97 163.086 192.076 157.774 167.54 157.774C143.004 157.774 123.104 163.086 123.104 169.633C123.104 173.806 133.093 209.36 143.426 209.36C147.845 198.389 156.978 192.172 167.54 192.172Z" fill="url(#paint9_radial_1067_3858)"/>
<g style="mix-blend-mode:overlay">
<path d="M144.095 207.407C149.038 197.968 157.291 192.218 167.606 192.218C177.921 192.218 185.589 197.723 191.117 207.407C199.449 207.407 205.911 191.648 208.968 181.15C203.886 191.711 196.26 192.121 186.903 190.168C185.698 189.918 184.54 189.644 183.473 189.366C173.205 186.608 162.328 186.595 152.052 189.326C151.136 189.576 150.172 189.813 149.159 190.037C134.962 193.191 129.204 189.502 126.094 179.539C129.271 189.941 136.589 207.407 144.095 207.407Z" fill="#4D4D4D"/>
</g>
<g style="mix-blend-mode:overlay">
<path fill-rule="evenodd" clip-rule="evenodd" d="M166.961 192.172V161.457H168.119V192.172H166.961Z" fill="#4D4D4D"/>
</g>
<g style="mix-blend-mode:overlay">
<path d="M141.473 160.028C142.98 162.499 153.68 170.344 167.474 170.344C180.736 170.344 192.365 162.653 194.602 160.324C187.114 157.939 177.722 156.521 167.57 156.521C157.798 156.521 148.797 157.819 141.473 160.028Z" fill="#4D4D4D"/>
</g>
<path d="M190.515 156.521C190.515 161.645 180.459 167.64 167.462 167.64C154.464 167.64 143.492 161.64 143.492 156.521C143.492 151.403 154.024 147.241 167.003 147.241C179.983 147.241 190.515 151.398 190.515 156.521Z" fill="#141414"/>
<path d="M264.985 208.483C261.536 212.765 230.857 213.3 227.68 210.442C225.974 208.905 224.799 203.809 225.667 201.743C227.289 197.894 255.405 186.286 260.433 188.819C265.135 191.187 268.21 204.47 264.985 208.483Z" fill="url(#paint10_linear_1067_3858)"/>
<g style="mix-blend-mode:overlay">
<path d="M226.119 206.44C226.395 207.428 226.902 208.346 227.602 209.127C230.568 211.854 261.325 210.886 264.545 206.793C265.449 205.654 265.823 203.673 265.75 201.435C246.899 208.398 226.155 206.445 226.119 206.44Z" fill="#4D4D4D"/>
</g>
<g style="mix-blend-mode:overlay" opacity="0.5">
<path d="M243.729 194.068C246.785 193.322 249.468 193.47 249.758 194.404C250.047 195.338 247.744 196.084 244.687 196.829C241.631 197.575 238.942 198.048 238.658 197.114C238.375 196.18 240.672 194.82 243.729 194.068Z" fill="white"/>
</g>
<g style="mix-blend-mode:overlay" opacity="0.5">
<path d="M234.764 197.416C235.638 197.125 236.494 197.273 236.669 197.746C236.844 198.218 236.277 198.845 235.403 199.135C234.529 199.425 233.666 199.277 233.492 198.805C233.317 198.332 233.883 197.706 234.764 197.416Z" fill="white"/>
</g>
<path d="M114.827 254.382C119.583 251.416 122.206 222.546 119.396 219.363C117.889 217.655 112.59 216.198 110.354 216.881C106.176 218.15 92.0269 243.867 94.3659 248.763C96.5482 253.363 110.378 257.149 114.827 254.382Z" fill="url(#paint11_linear_1067_3858)"/>
<g style="mix-blend-mode:overlay">
<path d="M113.049 254.257C111.765 255.054 109.902 254.775 107.538 254.587C116.19 236.858 115.273 218.344 115.31 217.581C116.314 217.975 117.199 218.599 117.884 219.397C120.585 222.46 117.57 251.427 113.049 254.257Z" fill="#4D4D4D"/>
</g>
<g style="mix-blend-mode:overlay" opacity="0.5">
<path d="M97.6758 242.045C96.88 244.931 97.0367 247.465 98.0254 247.738C99.0142 248.011 99.7979 245.842 100.6 242.956C101.402 240.069 101.896 237.53 100.907 237.291C99.9185 237.052 98.4656 239.164 97.6758 242.045Z" fill="white"/>
</g>
<g style="mix-blend-mode:overlay" opacity="0.5">
<path d="M101.226 233.59C100.913 234.416 101.069 235.224 101.576 235.389C102.082 235.554 102.733 235.019 103.047 234.194C103.36 233.368 103.198 232.56 102.697 232.395C102.197 232.23 101.534 232.759 101.226 233.59Z" fill="white"/>
</g>
<path d="M118.775 51.3506C118.161 48.4346 117.196 45.5942 115.9 42.8848C114.628 40.1849 113.008 37.6437 111.077 35.3186C109.211 33.0433 106.972 31.0637 104.446 29.4546C102.004 27.7466 99.1465 26.7617 96.3252 25.8394L98.4773 19.6167C101.896 20.9375 105.29 22.4291 108.123 24.6666C111.024 26.7709 113.551 29.2981 115.61 32.1531C117.636 34.9363 119.292 37.944 120.542 41.1086C121.798 44.2552 122.658 47.5304 123.104 50.8667L118.775 51.3506Z" fill="#141414"/>
<path d="M77.9202 21.376C78.0808 23.6096 78.9391 25.748 80.3867 27.5209C81.8342 29.2937 83.806 30.6214 86.0525 31.3358C88.2991 32.0503 90.7197 32.1196 93.0079 31.5348C95.2962 30.95 97.3494 29.7375 98.9079 28.0507C100.466 26.3638 101.46 24.2783 101.764 22.058C102.067 19.8377 101.666 17.5823 100.612 15.5771C99.5582 13.5719 97.8981 11.9069 95.842 10.7927C93.7858 9.67857 91.426 9.16529 89.0609 9.31781C87.4909 9.41831 85.9572 9.80997 84.5475 10.4704C83.1378 11.1309 81.8797 12.0472 80.8451 13.167C79.8105 14.2868 79.0196 15.5882 78.5178 16.9967C78.0159 18.4052 77.8129 19.8934 77.9202 21.376Z" fill="#141414"/>
<path d="M193.806 45.5493C193.765 42.1859 194.147 38.8299 194.946 35.552C195.731 32.2556 196.946 29.0639 198.563 26.05C200.19 22.9564 202.329 20.1275 204.899 17.6696C207.407 15.0906 210.554 13.1777 213.755 11.4071L216.769 17.2996C214.104 18.5691 211.422 19.9298 209.245 21.9168C206.963 23.8358 205.02 26.0863 203.488 28.5835C201.899 31.1339 200.651 33.861 199.775 36.702C198.879 39.5506 198.331 42.4865 198.141 45.4525L193.806 45.5493Z" fill="#141414"/>
<path d="M234.294 10.5417C234.456 12.7754 233.914 15.0044 232.735 16.9469C231.556 18.8894 229.793 20.458 227.67 21.4543C225.547 22.4506 223.159 22.8298 220.808 22.544C218.456 22.2582 216.247 21.3202 214.46 19.8487C212.674 18.3772 211.389 16.4382 210.769 14.2771C210.15 12.116 210.223 9.82993 210.979 7.70797C211.735 5.58602 213.141 3.72357 215.018 2.35622C216.895 0.988876 219.16 0.178068 221.525 0.0263799C223.095 -0.0750209 224.67 0.11654 226.161 0.590124C227.652 1.06371 229.03 1.81005 230.216 2.7865C231.401 3.76296 232.372 4.95042 233.072 6.28108C233.771 7.61173 234.187 9.0595 234.294 10.5417Z" fill="#141414"/>
<path d="M202.047 160.279L131.339 164.834C94.4321 167.213 74.1824 145.408 71.6565 110.554C69.1426 75.7006 86.0706 51.5045 122.977 49.1247L193.686 44.5701C230.592 42.1961 250.848 63.9953 253.368 98.8549C255.888 133.703 238.954 157.899 202.047 160.279Z" fill="url(#paint12_radial_1067_3858)"/>
<g style="mix-blend-mode:overlay">
<path d="M200.299 150.333L131.043 154.796C96.753 157.005 77.2448 135.018 73.2961 105.129C73.2961 106.768 73.3806 108.425 73.5011 110.122C75.8703 142.937 95.6438 163.416 131.797 161.087L201.058 156.647C237.229 154.318 253.856 131.488 251.487 98.6727C251.366 96.9648 251.185 95.3308 250.968 93.7083C251.354 123.808 234.589 148.107 200.299 150.333Z" fill="#4D4D4D"/>
</g>
<path d="M132.55 152.417C118.016 153.356 107.707 149.815 101.027 141.599C95.3725 134.648 92.2196 124.173 91.0983 108.636C89.977 93.099 91.5926 82.3104 96.1924 74.7043C101.618 65.709 111.342 60.8811 125.877 59.9474L192.389 55.6605C206.918 54.7268 217.233 58.2623 223.912 66.4776C229.561 73.429 232.72 83.8988 233.841 99.4412C234.963 114.984 233.341 125.761 228.741 133.373C223.316 142.368 213.598 147.196 199.063 148.13L132.55 152.417Z" fill="url(#paint13_radial_1067_3858)"/>
<path d="M132.406 150.384C103.541 152.24 95.2338 135.764 93.2625 108.511C91.2912 81.2572 97.1629 63.8701 126.021 62.0084L192.534 57.7271C221.392 55.8654 229.706 72.3416 231.671 99.595C233.636 126.848 227.777 144.241 198.918 146.097L132.406 150.384Z" fill="#141414"/>
<path d="M215.418 90.0874C216.214 101.121 211.801 110.389 202.156 111.01C192.51 111.63 186.807 103.039 186.011 91.9775C185.216 80.9156 189.628 71.6755 199.274 71.055C208.92 70.4344 214.629 79.0539 215.418 90.0874Z" fill="url(#paint14_linear_1067_3858)"/>
<path d="M137.512 93.9529C138.308 104.986 133.895 114.255 124.249 114.875C114.604 115.496 108.901 106.905 108.105 95.8487C107.309 84.7925 111.722 75.5467 121.368 74.9205C131.013 74.2942 136.716 82.9194 137.512 93.9529Z" fill="url(#paint15_linear_1067_3858)"/>
<path opacity="0.7" d="M206.358 100.853C208.54 97.4372 208.769 94.8753 210.451 95.0176C212.435 95.1827 212.103 99.3501 209.921 102.772C207.738 106.193 204.953 107.833 203.506 107.008C202.059 106.182 204.181 104.269 206.358 100.853Z" fill="white"/>
<path opacity="0.7" d="M212.73 90.2694C212.73 90.6072 212.624 90.9374 212.425 91.2183C212.226 91.4991 211.944 91.718 211.613 91.8473C211.283 91.9766 210.919 92.0104 210.568 91.9445C210.218 91.8786 209.895 91.7159 209.642 91.4771C209.389 91.2382 209.217 90.9339 209.147 90.6026C209.078 90.2713 209.113 89.9279 209.25 89.6158C209.387 89.3037 209.619 89.0369 209.916 88.8492C210.214 88.6616 210.564 88.5614 210.921 88.5614C211.401 88.5614 211.861 88.7413 212.2 89.0616C212.539 89.3819 212.73 89.8164 212.73 90.2694Z" fill="white"/>
<path opacity="0.7" d="M128.922 104.679C131.104 101.263 131.333 98.7012 133.015 98.8435C134.999 99.0086 134.661 103.176 132.479 106.598C130.296 110.019 127.517 111.653 126.064 110.833C124.611 110.014 126.739 108.095 128.922 104.679Z" fill="white"/>
<path opacity="0.7" d="M135.294 94.1124C135.294 94.4502 135.188 94.7804 134.989 95.0613C134.79 95.3422 134.508 95.5611 134.177 95.6903C133.847 95.8196 133.483 95.8534 133.132 95.7875C132.781 95.7216 132.459 95.559 132.206 95.3201C131.953 95.0812 131.781 94.7769 131.711 94.4456C131.641 94.1143 131.677 93.7709 131.814 93.4588C131.951 93.1467 132.183 92.8799 132.48 92.6923C132.778 92.5046 133.127 92.4044 133.485 92.4044C133.965 92.4044 134.425 92.5844 134.764 92.9047C135.103 93.225 135.294 93.6594 135.294 94.1124Z" fill="white"/>
<path d="M155.459 109.962C155.923 108.459 159.51 107.998 162.898 107.759C166.287 107.52 169.663 107.759 170.591 109.063C171.254 109.985 170.808 115.468 169.627 118.445C168.891 120.307 166.974 122.8 164.086 123C161.415 123.188 158.479 121.018 157.635 119.014C155.911 114.972 155.097 111.141 155.459 109.962Z" fill="#00EEFF"/>
<g style="mix-blend-mode:overlay" opacity="0.5">
<path d="M112.415 55.2562C114.585 57.6929 105.892 59.0195 98.0911 65.1966C90.2902 71.3737 86.3416 80.0559 84.1713 77.6192C82.0011 75.1825 85.2927 67.2461 93.0875 61.069C100.882 54.8919 110.251 52.8139 112.415 55.2562Z" fill="white"/>
</g>
<g style="mix-blend-mode:overlay" opacity="0.5">
<path d="M85.1971 86.5405C85.2443 87.1952 85.0849 87.8485 84.739 88.4178C84.3932 88.987 83.8764 89.4466 83.2539 89.7386C82.6315 90.0305 81.9314 90.1417 81.2421 90.058C80.5528 89.9743 79.9052 89.6995 79.3813 89.2683C78.8573 88.8372 78.4805 88.269 78.2984 87.6357C78.1162 87.0023 78.1371 86.3322 78.3581 85.71C78.5792 85.0878 78.9907 84.5415 79.5405 84.1401C80.0903 83.7387 80.7538 83.5002 81.4471 83.4548C81.9082 83.4238 82.3711 83.4792 82.8094 83.6177C83.2477 83.7561 83.6527 83.975 84.0011 84.2618C84.3496 84.5485 84.6346 84.8974 84.8399 85.2884C85.0451 85.6795 85.1665 86.105 85.1971 86.5405Z" fill="white"/>
</g>
<path d="M283.299 152.052C282.063 158.28 250.064 174.142 245.127 172.718C242.468 171.95 238.381 167.179 238.14 164.566C237.694 159.704 260.801 133.464 267.511 133.623C273.786 133.771 284.451 146.228 283.299 152.052Z" fill="url(#paint16_linear_1067_3858)"/>
<g style="mix-blend-mode:overlay">
<path d="M282.341 150.282C282.672 148.602 281.255 146.712 279.929 144.378C263.495 161.332 241.666 169.149 241.63 169.16C242.479 170.064 243.538 170.772 244.723 171.227C249.473 172.588 281.159 156.231 282.341 150.282Z" fill="#4D4D4D"/>
</g>
<g style="mix-blend-mode:overlay" opacity="0.5">
<path d="M259.529 141.463C262.351 139.254 265.256 138.166 266.01 139.026C266.764 139.886 264.804 141.725 261.947 143.928C259.089 146.131 256.521 147.885 255.785 147.019C255.05 146.154 256.708 143.666 259.529 141.463Z" fill="white"/>
</g>
<g style="mix-blend-mode:overlay" opacity="0.5">
<path d="M251.849 149.143C252.621 148.431 253.597 148.192 254.025 148.608C254.453 149.023 254.188 149.94 253.423 150.657C252.657 151.375 251.674 151.608 251.246 151.193C250.818 150.777 251.077 149.86 251.849 149.143Z" fill="white"/>
</g>
<g style="mix-blend-mode:overlay" opacity="0.5">
<path d="M134.118 184.242C134.848 185.38 134.884 186.644 134.196 187.031C133.509 187.418 132.388 186.804 131.628 185.648C130.868 184.492 130.856 183.245 131.544 182.852C132.231 182.46 133.383 183.086 134.118 184.242Z" fill="white"/>
</g>
<g style="mix-blend-mode:overlay" opacity="0.5">
<path d="M129.88 175.861C130.977 178.708 131.478 181.065 130.579 181.378C129.681 181.691 128.065 179.67 126.962 176.823C125.859 173.977 125.714 171.46 126.612 171.13C127.511 170.8 128.789 173.037 129.88 175.861Z" fill="white"/>
</g>
<defs>
<linearGradient id="paint0_linear_1067_3858" x1="193.906" y1="190.982" x2="327.567" y2="77.5153" gradientUnits="userSpaceOnUse">
<stop stop-color="#0080B5"/>
<stop offset="0.07" stop-color="#0B8CBC"/>
<stop offset="0.37" stop-color="#3BBDD9"/>
<stop offset="0.64" stop-color="#5DE1EE"/>
<stop offset="0.86" stop-color="#72F7FA"/>
<stop offset="1" stop-color="#7AFFFF"/>
</linearGradient>
<linearGradient id="paint1_linear_1067_3858" x1="140.324" y1="184.314" x2="7.20706" y2="70.4629" gradientUnits="userSpaceOnUse">
<stop stop-color="#0080B5"/>
<stop offset="0.07" stop-color="#0B8CBC"/>
<stop offset="0.37" stop-color="#3BBDD9"/>
<stop offset="0.64" stop-color="#5DE1EE"/>
<stop offset="0.86" stop-color="#72F7FA"/>
<stop offset="1" stop-color="#7AFFFF"/>
</linearGradient>
<linearGradient id="paint2_linear_1067_3858" x1="182.545" y1="187.679" x2="331.119" y2="145.732" gradientUnits="userSpaceOnUse">
<stop stop-color="#0080B5"/>
<stop offset="0.07" stop-color="#0B8CBC"/>
<stop offset="0.37" stop-color="#3BBDD9"/>
<stop offset="0.64" stop-color="#5DE1EE"/>
<stop offset="0.86" stop-color="#72F7FA"/>
<stop offset="1" stop-color="#7AFFFF"/>
</linearGradient>
<linearGradient id="paint3_linear_1067_3858" x1="152.341" y1="180.876" x2="7.13227" y2="130.566" gradientUnits="userSpaceOnUse">
<stop stop-color="#0080B5"/>
<stop offset="0.07" stop-color="#0B8CBC"/>
<stop offset="0.37" stop-color="#3BBDD9"/>
<stop offset="0.64" stop-color="#5DE1EE"/>
<stop offset="0.86" stop-color="#72F7FA"/>
<stop offset="1" stop-color="#7AFFFF"/>
</linearGradient>
<radialGradient id="paint4_radial_1067_3858" cx="0" cy="0" r="1" gradientUnits="userSpaceOnUse" gradientTransform="translate(160.881 370.982) scale(135.876 29.612)">
<stop stop-color="#E3E3E3"/>
<stop offset="0.26" stop-color="#F1F1F1"/>
<stop offset="0.61" stop-color="#FCFCFC"/>
<stop offset="1" stop-color="white"/>
</radialGradient>
<linearGradient id="paint5_linear_1067_3858" x1="149.384" y1="273.321" x2="121.358" y2="272.493" gradientUnits="userSpaceOnUse">
<stop stop-color="#FF9500"/>
<stop offset="0.1" stop-color="#FFA70C"/>
<stop offset="0.25" stop-color="#FFBB19"/>
<stop offset="0.42" stop-color="#FFC922"/>
<stop offset="0.64" stop-color="#FFD227"/>
<stop offset="1" stop-color="#FFD429"/>
</linearGradient>
<linearGradient id="paint6_linear_1067_3858" x1="206.122" y1="278.428" x2="232.615" y2="269.397" gradientUnits="userSpaceOnUse">
<stop stop-color="#FF9500"/>
<stop offset="0.1" stop-color="#FFA70C"/>
<stop offset="0.25" stop-color="#FFBB19"/>
<stop offset="0.42" stop-color="#FFC922"/>
<stop offset="0.64" stop-color="#FFD227"/>
<stop offset="1" stop-color="#FFD429"/>
</linearGradient>
<radialGradient id="paint7_radial_1067_3858" cx="0" cy="0" r="1" gradientUnits="userSpaceOnUse" gradientTransform="translate(155.267 243.127) rotate(-5.96165) scale(35.297 33.3774)">
<stop stop-color="#FFD429"/>
<stop offset="0.36" stop-color="#FFD227"/>
<stop offset="0.58" stop-color="#FFC922"/>
<stop offset="0.75" stop-color="#FFBB19"/>
<stop offset="0.9" stop-color="#FFA70C"/>
<stop offset="1" stop-color="#FF9500"/>
</radialGradient>
<linearGradient id="paint8_linear_1067_3858" x1="96.8409" y1="224.442" x2="75.7935" y2="213.025" gradientUnits="userSpaceOnUse">
<stop stop-color="#FF9500"/>
<stop offset="0.1" stop-color="#FFA70C"/>
<stop offset="0.25" stop-color="#FFBB19"/>
<stop offset="0.42" stop-color="#FFC922"/>
<stop offset="0.64" stop-color="#FFD227"/>
<stop offset="1" stop-color="#FFD429"/>
</linearGradient>
<radialGradient id="paint9_radial_1067_3858" cx="0" cy="0" r="1" gradientUnits="userSpaceOnUse" gradientTransform="translate(160.559 173.989) scale(50.201 51.0558)">
<stop stop-color="#FFD429"/>
<stop offset="0.36" stop-color="#FFD227"/>
<stop offset="0.58" stop-color="#FFC922"/>
<stop offset="0.75" stop-color="#FFBB19"/>
<stop offset="0.9" stop-color="#FFA70C"/>
<stop offset="1" stop-color="#FF9500"/>
</radialGradient>
<linearGradient id="paint10_linear_1067_3858" x1="246.579" y1="211.043" x2="244.602" y2="191.778" gradientUnits="userSpaceOnUse">
<stop stop-color="#FF9500"/>
<stop offset="0.1" stop-color="#FFA70C"/>
<stop offset="0.25" stop-color="#FFBB19"/>
<stop offset="0.42" stop-color="#FFC922"/>
<stop offset="0.64" stop-color="#FFD227"/>
<stop offset="1" stop-color="#FFD429"/>
</linearGradient>
<linearGradient id="paint11_linear_1067_3858" x1="116.828" y1="236.291" x2="96.7796" y2="232.525" gradientUnits="userSpaceOnUse">
<stop stop-color="#FF9500"/>
<stop offset="0.1" stop-color="#FFA70C"/>
<stop offset="0.25" stop-color="#FFBB19"/>
<stop offset="0.42" stop-color="#FFC922"/>
<stop offset="0.64" stop-color="#FFD227"/>
<stop offset="1" stop-color="#FFD429"/>
</linearGradient>
<radialGradient id="paint12_radial_1067_3858" cx="0" cy="0" r="1" gradientUnits="userSpaceOnUse" gradientTransform="translate(154.141 67.5847) rotate(-3.6837) scale(118.855 112.301)">
<stop stop-color="#FFD429"/>
<stop offset="0.49" stop-color="#FFD228"/>
<stop offset="0.67" stop-color="#FFCB23"/>
<stop offset="0.8" stop-color="#FFC01C"/>
<stop offset="0.9" stop-color="#FFAF11"/>
<stop offset="0.99" stop-color="#FF9903"/>
<stop offset="1" stop-color="#FF9500"/>
</radialGradient>
<radialGradient id="paint13_radial_1067_3858" cx="0" cy="0" r="1" gradientUnits="userSpaceOnUse" gradientTransform="translate(160.924 104.554) rotate(-3.6837) scale(61.1732 57.7998)">
<stop stop-color="#FFD429"/>
<stop offset="0.49" stop-color="#FFD228"/>
<stop offset="0.67" stop-color="#FFCB23"/>
<stop offset="0.8" stop-color="#FFC01C"/>
<stop offset="0.9" stop-color="#FFAF11"/>
<stop offset="0.99" stop-color="#FF9903"/>
<stop offset="1" stop-color="#FF9500"/>
</radialGradient>
<linearGradient id="paint14_linear_1067_3858" x1="200.721" y1="71.1745" x2="200.721" y2="111.334" gradientUnits="userSpaceOnUse">
<stop stop-color="#00B4FF"/>
<stop offset="0.04" stop-color="#07B8FF"/>
<stop offset="0.35" stop-color="#38D7FF"/>
<stop offset="0.63" stop-color="#5CEDFF"/>
<stop offset="0.86" stop-color="#72FAFF"/>
<stop offset="1" stop-color="#7AFFFF"/>
</linearGradient>
<linearGradient id="paint15_linear_1067_3858" x1="121.313" y1="75.0628" x2="123.922" y2="113.804" gradientUnits="userSpaceOnUse">
<stop stop-color="#00B4FF"/>
<stop offset="0.04" stop-color="#07B8FF"/>
<stop offset="0.35" stop-color="#38D7FF"/>
<stop offset="0.63" stop-color="#5CEDFF"/>
<stop offset="0.86" stop-color="#72FAFF"/>
<stop offset="1" stop-color="#7AFFFF"/>
</linearGradient>
<linearGradient id="paint16_linear_1067_3858" x1="267.52" y1="164.572" x2="255.426" y2="144.749" gradientUnits="userSpaceOnUse">
<stop stop-color="#FF9500"/>
<stop offset="0.1" stop-color="#FFA70C"/>
<stop offset="0.25" stop-color="#FFBB19"/>
<stop offset="0.42" stop-color="#FFC922"/>
<stop offset="0.64" stop-color="#FFD227"/>
<stop offset="1" stop-color="#FFD429"/>
</linearGradient>
</defs>
</svg>
