<svg width="334" height="390" viewBox="0 0 334 390" fill="none" xmlns="http://www.w3.org/2000/svg">
<g opacity="0.4">
<path d="M245.112 117.767C202.051 142.032 168.345 163.603 176.207 176.052C184.068 188.5 236.269 189.417 279.294 165.146C322.319 140.876 340.049 100.757 332.188 88.3083C324.327 75.8598 288.168 93.5019 245.112 117.767Z" fill="url(#paint0_linear_1067_4013)"/>
<g style="mix-blend-mode:overlay">
<path d="M234.803 161.49L194.895 183.922L196.842 184.149L206.011 178.984C210.939 176.195 216.404 174.356 222.089 173.574C227.774 172.792 233.566 173.082 239.132 174.429L251.261 177.327L252.985 176.758L239.373 173.512C230.778 171.43 221.72 171.827 213.366 174.651L235.31 162.282C238.73 160.342 242.523 159.063 246.47 158.519C250.416 157.974 254.438 158.175 258.303 159.11L280.578 164.423L281.741 163.745L258.544 158.199C254.553 157.236 250.399 157.031 246.324 157.596C242.249 158.161 238.333 159.485 234.803 161.49Z" fill="white"/>
<path d="M225.218 135.295L227.171 128.074L225.918 128.809L224.254 135.073C223.29 138.727 221.568 142.165 219.188 145.186C216.808 148.208 213.817 150.753 210.388 152.675L175.085 172.572L175.218 173.586L210.901 153.484C214.441 151.496 217.53 148.866 219.987 145.744C222.445 142.622 224.223 139.07 225.218 135.295Z" fill="white"/>
<path d="M291.55 137.066L281.434 134.652C281.426 134.257 281.281 133.876 281.02 133.567C280.76 133.258 280.399 133.039 279.994 132.944C279.588 132.849 279.161 132.882 278.778 133.04C278.394 133.197 278.077 133.47 277.874 133.815C277.672 134.16 277.595 134.559 277.657 134.949C277.719 135.34 277.915 135.7 278.215 135.974C278.516 136.249 278.904 136.422 279.319 136.467C279.734 136.512 280.153 136.426 280.511 136.223C280.797 136.063 281.033 135.833 281.193 135.557L291.706 138.068L302.847 131.804L315.893 134.919L316.556 134.111L302.69 130.802L291.55 137.066Z" fill="white"/>
<path d="M321.674 98.2799L325.394 84.3792L324.345 84.271L320.727 98.0521C319.751 101.751 318.006 105.231 315.595 108.289C313.184 111.346 310.154 113.922 306.681 115.865L301.913 118.553L291.953 116.178C291.112 115.982 290.259 115.84 289.397 115.751L297.409 111.235C300.387 109.573 302.987 107.37 305.056 104.752C307.126 102.134 308.625 99.1541 309.466 95.9849L312.167 85.8769L311.046 86.1844L308.502 95.7514C307.696 98.7984 306.259 101.664 304.273 104.183C302.287 106.702 299.792 108.824 296.933 110.427L287.716 115.62C283.904 115.499 280.137 116.419 276.864 118.268L257.965 128.917C257.965 128.815 258.037 128.712 258.067 128.61L264.566 107.084L263.36 107.744L257.133 128.353C254.445 137.305 248.227 144.944 239.759 149.697L183.76 181.257L184.912 181.701L240.271 150.506C248.413 145.932 254.545 138.747 257.549 130.261L277.395 119.077C280.574 117.274 284.246 116.399 287.951 116.56V116.594L288.017 116.56C289.282 116.618 290.539 116.795 291.767 117.089L323.477 124.64L324.007 123.815L303.329 118.877L307.248 116.674C310.819 114.659 313.932 111.997 316.408 108.84C318.884 105.683 320.674 102.094 321.674 98.2799Z" fill="white"/>
<path d="M277.871 150.226C277.678 149.92 277.394 149.675 277.054 149.522C276.714 149.369 276.333 149.314 275.96 149.365C275.588 149.416 275.239 149.57 274.959 149.808C274.679 150.047 274.48 150.358 274.387 150.703C274.294 151.048 274.312 151.411 274.438 151.747C274.563 152.082 274.792 152.375 275.094 152.588C275.396 152.801 275.758 152.924 276.134 152.943C276.51 152.962 276.884 152.874 277.208 152.692C277.538 152.513 277.799 152.24 277.955 151.912L293.858 155.71L294.841 154.976L278.124 150.989C278.103 150.72 278.016 150.459 277.871 150.226Z" fill="white"/>
<path d="M292.092 143.9L264.361 137.226C264.351 136.833 264.203 136.454 263.942 136.148C263.681 135.842 263.32 135.626 262.916 135.533C262.511 135.441 262.086 135.476 261.705 135.635C261.324 135.794 261.01 136.066 260.809 136.411C260.609 136.755 260.535 137.153 260.598 137.541C260.661 137.93 260.857 138.288 261.157 138.56C261.457 138.833 261.844 139.004 262.258 139.048C262.671 139.092 263.088 139.006 263.445 138.803C263.727 138.639 263.959 138.41 264.12 138.137L292.267 144.908L303.414 138.644L311.082 140.426L311.818 139.635L303.257 137.636L292.092 143.9Z" fill="white"/>
</g>
</g>
<g opacity="0.4">
<path d="M88.9261 115.494C131.982 139.759 165.693 161.331 157.832 173.779C149.971 186.228 97.7699 187.139 54.7084 162.874C11.6468 138.609 -6.04679 98.4844 1.81437 86.0359C9.67552 73.5874 45.8646 91.2294 88.9261 115.494Z" fill="url(#paint1_linear_1067_4013)"/>
<g style="mix-blend-mode:overlay">
<path d="M99.235 159.219L139.144 181.65L137.19 181.878L128.027 176.712C123.094 173.919 117.624 172.078 111.932 171.296C106.241 170.514 100.441 170.806 94.8704 172.157L82.7471 175.055L81.0169 174.486L94.6293 171.24C103.226 169.155 112.287 169.552 120.642 172.379L98.6925 160.01C95.2728 158.071 91.4795 156.792 87.5327 156.247C83.5858 155.703 79.5638 155.903 75.6998 156.838L53.4305 162.151L52.261 161.474L75.4587 155.927C79.455 154.96 83.6149 154.753 87.6967 155.318C91.7784 155.883 95.7006 157.209 99.235 159.219Z" fill="white"/>
<path d="M108.814 133.023L106.867 125.802L108.115 126.536L109.779 132.801C110.743 136.455 112.465 139.892 114.845 142.914C117.225 145.935 120.216 148.481 123.644 150.403L158.947 170.3L158.821 171.314L123.138 151.211C119.596 149.224 116.507 146.594 114.048 143.472C111.589 140.35 109.811 136.798 108.814 133.023Z" fill="white"/>
<path d="M42.4886 134.788L52.6044 132.374C52.602 132.059 52.6917 131.749 52.8637 131.479C53.0568 131.174 53.3416 130.929 53.682 130.776C54.0224 130.623 54.4032 130.569 54.7761 130.621C55.149 130.673 55.4973 130.828 55.777 131.066C56.0566 131.305 56.255 131.617 56.347 131.962C56.439 132.307 56.4205 132.671 56.2939 133.006C56.1672 133.341 55.9381 133.634 55.6356 133.846C55.333 134.058 54.9705 134.181 54.5941 134.199C54.2176 134.216 53.8441 134.128 53.5208 133.945C53.2364 133.784 53.0032 133.554 52.8456 133.279L42.3319 135.79L31.1852 129.526L18.1456 132.641L17.4824 131.833L31.348 128.524L42.4886 134.788Z" fill="white"/>
<path d="M12.3643 96.0075L8.63867 82.1068L9.69366 81.9929L13.3108 95.7797C14.2874 99.4792 16.032 102.959 18.4432 106.017C20.8544 109.074 23.8843 111.649 27.3571 113.593L32.1257 116.28L42.0787 113.906C42.9218 113.709 43.7777 113.564 44.6408 113.473L36.6229 108.963C33.6544 107.296 31.0649 105.09 29.0038 102.472C26.9426 99.8548 25.4507 96.8776 24.6142 93.7125L21.9074 83.6045L23.0287 83.912L25.5787 93.479C26.3842 96.5261 27.8214 99.3921 29.8071 101.911C31.7929 104.43 34.2878 106.552 37.1474 108.154L46.359 113.348C50.1702 113.228 53.9373 114.147 57.2103 115.996L76.1096 126.645C76.0734 126.542 76.0372 126.44 76.0071 126.337L69.5024 104.811L70.7382 105.472L76.9596 126.075C79.6482 135.03 85.8683 142.671 94.3398 147.425L150.332 178.984L149.187 179.429L93.8274 148.233C85.6856 143.659 79.554 136.475 76.5497 127.989L56.6978 116.804C53.5176 115.003 49.8465 114.125 46.1419 114.282V114.322L46.0756 114.287C44.8102 114.346 43.554 114.523 42.3259 114.817L10.61 122.368L10.0855 121.542L30.7633 116.605L26.8447 114.401C23.2635 112.392 20.1397 109.732 17.6541 106.574C15.1686 103.417 13.3706 99.8255 12.3643 96.0075Z" fill="white"/>
<path d="M56.1672 147.954C56.3869 147.613 56.7205 147.352 57.1154 147.21C57.5103 147.068 57.9439 147.055 58.3476 147.173C58.7513 147.29 59.102 147.531 59.3444 147.858C59.5867 148.184 59.7069 148.578 59.6858 148.977C59.6647 149.375 59.5036 149.756 59.2279 150.058C58.9522 150.36 58.5778 150.567 58.1637 150.646C57.7497 150.724 57.3196 150.67 56.9417 150.492C56.5637 150.314 56.2594 150.022 56.0768 149.663L40.1736 153.455L39.197 152.721L55.914 148.734C55.9325 148.459 56.0193 148.192 56.1672 147.954Z" fill="white"/>
<path d="M41.9463 141.622L69.6773 134.947C69.6799 134.634 69.7715 134.327 69.9426 134.059C70.1359 133.755 70.4201 133.512 70.7593 133.361C71.0986 133.21 71.4778 133.157 71.8489 133.209C72.2201 133.261 72.5666 133.415 72.8447 133.653C73.1229 133.891 73.3202 134.201 73.4118 134.545C73.5034 134.889 73.4852 135.251 73.3594 135.584C73.2336 135.918 73.0059 136.21 72.7051 136.421C72.4042 136.633 72.0437 136.756 71.669 136.774C71.2943 136.793 70.9222 136.706 70.5997 136.525C70.3181 136.361 70.0856 136.132 69.9245 135.859L41.7775 142.63L30.6308 136.365L22.9625 138.148L22.2271 137.356L30.7875 135.357L41.9463 141.622Z" fill="white"/>
</g>
</g>
<g opacity="0.4">
<path d="M249.899 146.559C206.91 151.564 172.312 157.515 173.94 169.947C175.568 182.378 216.483 200.276 259.472 195.271C302.461 190.265 331.247 164.371 329.626 151.946C328.004 139.52 292.882 141.553 249.899 146.559Z" fill="url(#paint2_linear_1067_4013)"/>
<g style="mix-blend-mode:overlay">
<path d="M225.622 177.72L185.798 182.316L187.257 183.136L196.426 182.054C201.351 181.467 206.35 181.81 211.134 183.061C215.918 184.312 220.392 186.447 224.296 189.343L232.814 195.607L234.388 195.732L224.827 188.682C218.795 184.212 211.483 181.552 203.835 181.046L225.743 178.494C229.161 178.087 232.631 178.324 235.952 179.192C239.272 180.06 242.378 181.542 245.088 183.551L260.762 195.083L261.938 194.929L245.661 182.913C242.853 180.835 239.635 179.306 236.194 178.414C232.754 177.523 229.16 177.287 225.622 177.72Z" fill="white"/>
<path d="M227.714 153.859L231.934 148.797L230.674 148.967L227.057 153.364C224.943 155.937 222.309 158.088 219.308 159.693C216.307 161.297 212.998 162.322 209.574 162.709L174.332 166.809L174.061 167.657L209.683 163.512C213.214 163.108 216.626 162.047 219.721 160.39C222.816 158.733 225.533 156.514 227.714 153.859Z" fill="white"/>
<path d="M279.493 177.088L272.385 171.849C272.524 171.534 272.55 171.185 272.457 170.856C272.365 170.526 272.161 170.235 271.875 170.026C271.59 169.818 271.24 169.704 270.879 169.702C270.518 169.701 270.167 169.812 269.88 170.018C269.592 170.225 269.385 170.515 269.29 170.843C269.195 171.172 269.218 171.521 269.354 171.837C269.49 172.152 269.733 172.417 270.045 172.589C270.356 172.761 270.719 172.831 271.077 172.788C271.362 172.755 271.632 172.651 271.861 172.486L279.246 177.93L290.368 176.638L299.531 183.392L300.351 182.97L290.615 175.789L279.493 177.088Z" fill="white"/>
<path d="M317.599 156.359L325.671 146.593L324.881 146.16L316.924 155.841C314.786 158.443 312.122 160.619 309.088 162.242C306.055 163.866 302.71 164.905 299.248 165.3L294.486 165.87L287.493 160.744C286.898 160.313 286.276 159.918 285.63 159.56L293.63 158.632C296.593 158.293 299.456 157.403 302.053 156.013C304.65 154.623 306.93 152.761 308.761 150.534L314.627 143.433L313.626 143.313L308.08 150.033C306.32 152.177 304.126 153.969 301.627 155.307C299.128 156.644 296.373 157.499 293.521 157.823L284.328 158.894C281.352 157.54 278.026 157.024 274.748 157.407L255.879 159.605L256.078 159.395L269.154 144.52L267.948 144.64L255.427 158.877C250.001 165.069 242.268 169.061 233.821 170.032L177.913 176.541L178.66 177.27L233.923 170.835C242.038 169.897 249.525 166.237 255.023 160.522L274.839 158.216C278.018 157.839 281.245 158.354 284.117 159.697V159.736H284.183C285.164 160.198 286.093 160.751 286.956 161.388L309.262 177.794L309.985 177.316L295.462 166.61L299.369 166.154C302.942 165.741 306.393 164.663 309.522 162.981C312.651 161.3 315.397 159.049 317.599 156.359Z" fill="white"/>
<path d="M263.819 182.999C263.775 182.654 263.61 182.334 263.35 182.088C263.091 181.842 262.752 181.686 262.388 181.643C262.023 181.6 261.654 181.674 261.339 181.853C261.024 182.031 260.781 182.304 260.649 182.627C260.517 182.951 260.504 183.307 260.611 183.639C260.718 183.971 260.939 184.26 261.24 184.459C261.541 184.658 261.903 184.757 262.27 184.739C262.637 184.721 262.987 184.587 263.264 184.36L274.435 192.594L275.478 192.332L263.741 183.676C263.818 183.459 263.845 183.227 263.819 182.999Z" fill="white"/>
<path d="M277.407 182.657L257.935 168.244C258.049 167.997 258.09 167.726 258.056 167.458C258.021 167.151 257.89 166.861 257.68 166.625C257.469 166.388 257.189 166.216 256.875 166.131C256.561 166.045 256.227 166.05 255.916 166.144C255.605 166.239 255.33 166.418 255.128 166.661C254.925 166.903 254.804 167.197 254.778 167.505C254.753 167.813 254.826 168.12 254.986 168.389C255.147 168.658 255.389 168.876 255.681 169.014C255.973 169.152 256.303 169.206 256.627 169.167C256.91 169.132 257.179 169.025 257.405 168.859L277.154 183.477L288.282 182.185L293.708 186.114L294.576 185.732L288.548 181.336L277.407 182.657Z" fill="white"/>
</g>
</g>
<g opacity="0.4">
<path d="M86.0445 140.716C128.696 147.846 162.914 155.522 160.605 167.84C158.296 180.158 116.434 196.023 73.7946 188.91C31.155 181.798 3.86402 154.492 6.14279 142.163C8.42156 129.834 43.3929 133.587 86.0445 140.716Z" fill="url(#paint3_linear_1067_4013)"/>
<g style="mix-blend-mode:overlay">
<path d="M108.554 173.045L148.065 179.605L146.564 180.351L137.485 178.836C132.6 178.007 127.589 178.101 122.742 179.113C117.895 180.124 113.308 182.034 109.248 184.73L100.392 190.596L98.8184 190.641L108.759 184.075C115.032 179.914 122.479 177.62 130.143 177.487L108.404 173.853C105.013 173.279 101.535 173.344 98.1705 174.047C94.8065 174.75 91.6233 176.076 88.8051 177.948L72.5282 188.688L71.3586 188.477L88.2987 177.282C91.2099 175.344 94.4995 173.971 97.9767 173.244C101.454 172.517 105.049 172.449 108.554 173.045Z" fill="white"/>
<path d="M107.807 149.116L103.889 143.849L105.137 144.082L108.513 148.638C110.479 151.31 112.988 153.587 115.892 155.338C118.797 157.089 122.04 158.278 125.435 158.837L160.4 164.68L160.623 165.54L125.29 159.646C121.783 159.07 118.433 157.843 115.432 156.035C112.431 154.228 109.839 151.876 107.807 149.116Z" fill="white"/>
<path d="M54.7987 169.736L62.1836 164.862C62.082 164.607 62.0549 164.332 62.1052 164.064C62.1616 163.761 62.3118 163.481 62.537 163.259C62.7621 163.036 63.052 162.882 63.3699 162.815C63.6879 162.749 64.0196 162.773 64.3231 162.884C64.6266 162.996 64.8882 163.19 65.0749 163.442C65.2615 163.694 65.3648 163.993 65.3716 164.301C65.3784 164.608 65.2885 164.911 65.1132 165.17C64.9379 165.429 64.6851 165.634 64.3868 165.757C64.0885 165.881 63.7582 165.918 63.4376 165.864C63.1543 165.817 62.8896 165.699 62.6719 165.522L54.9977 170.596L43.9595 168.751L34.4344 175.015L33.6387 174.554L43.7545 167.868L54.7987 169.736Z" fill="white"/>
<path d="M17.8862 147.151L10.3687 136.998L11.1825 136.605L18.5915 146.684C20.5808 149.389 23.1185 151.693 26.0573 153.464C28.9962 155.236 32.2779 156.438 35.7124 157.003L40.4388 157.795L47.7091 152.994C48.326 152.591 48.9705 152.228 49.6383 151.906L41.6988 150.579C38.7559 150.096 35.9438 149.065 33.4252 147.548C30.9065 146.031 28.7313 144.058 27.0254 141.741L21.5636 134.338L22.5703 134.264L27.7307 141.257C29.37 143.485 31.461 145.383 33.8825 146.841C36.304 148.3 39.0079 149.29 41.8374 149.754L50.9646 151.28C54.0104 150.075 57.3592 149.725 60.6101 150.272L79.2985 153.404L79.1116 153.182L66.8798 137.681L68.0854 137.858L79.7988 152.698C84.8756 159.15 92.377 163.52 100.76 164.907L156.222 174.178L155.438 174.873L100.609 165.704C92.5491 164.368 85.2648 160.343 80.0822 154.361L60.4233 151.075C57.2702 150.539 54.0197 150.893 51.0791 152.094V152.128H51.0127C50.0119 152.544 49.0568 153.051 48.1613 153.643L25.042 168.956L24.3487 168.444L39.42 158.466L35.5436 157.817C32.0003 157.23 28.6153 155.985 25.5845 154.154C22.5537 152.323 19.9372 149.943 17.8862 147.151Z" fill="white"/>
<path d="M70.1232 176.416C70.189 176.076 70.3731 175.767 70.6463 175.537C70.9194 175.308 71.266 175.171 71.6309 175.149C71.9958 175.127 72.3581 175.22 72.6601 175.415C72.9622 175.609 73.1868 175.894 73.2981 176.223C73.4094 176.552 73.4012 176.906 73.2746 177.231C73.1481 177.555 72.9105 177.829 72.5996 178.011C72.2888 178.193 71.9225 178.272 71.559 178.234C71.1955 178.197 70.8557 178.046 70.5934 177.805L58.9765 185.47L57.9517 185.157L70.1533 177.099C70.0895 176.876 70.0792 176.643 70.1232 176.416Z" fill="white"/>
<path d="M56.565 175.403L76.8087 161.98C76.7071 161.726 76.68 161.451 76.7304 161.183C76.7867 160.88 76.937 160.6 77.1621 160.377C77.3872 160.155 77.6771 160.001 77.995 159.934C78.313 159.868 78.6447 159.892 78.9482 160.003C79.2517 160.115 79.5133 160.309 79.7 160.561C79.8866 160.813 79.9899 161.112 79.9967 161.42C80.0036 161.727 79.9136 162.03 79.7383 162.289C79.563 162.548 79.3102 162.753 79.0119 162.876C78.7136 162.999 78.3833 163.037 78.0626 162.983C77.7808 162.937 77.5179 162.819 77.3031 162.641L56.764 176.263L45.7137 174.417L40.1012 178.073L39.2512 177.646L45.5148 173.558L56.565 175.403Z" fill="white"/>
</g>
</g>
<path d="M80.1967 240.828C73.1072 245.555 70.6475 249.188 71.5819 250.509C72.5163 251.83 75.0664 249.837 79.2201 248.357C87.1415 245.509 88.0036 240.088 87.0571 238.738C86.1106 237.389 83.8198 238.431 80.1967 240.828Z" fill="black"/>
<path d="M68.7549 239.769C69.0684 241.882 74.3493 241.477 80.209 243.186C85.0318 244.621 88.9142 239.109 88.6007 237.001C88.2872 234.894 83.9648 233.71 78.925 234.371C73.8852 235.031 68.4474 237.662 68.7549 239.769Z" fill="black"/>
<path d="M60.3993 245.464C61.3397 247.4 67.2054 242.85 70.7321 242.332C77.2971 241.375 78.7621 240.578 77.8216 238.641C76.8812 236.705 75.7538 234.803 71.13 236.802C66.5061 238.801 59.4648 243.556 60.3993 245.464Z" fill="black"/>
<path d="M132.886 195.55C132.784 196.262 132.639 196.967 132.452 197.663C132.277 198.295 132.096 198.921 131.885 199.525C131.475 200.749 130.981 201.911 130.468 203.073C129.406 205.346 128.179 207.548 126.797 209.662C125.434 211.761 123.957 213.793 122.372 215.749C121.582 216.723 120.756 217.663 119.961 218.597L117.411 221.358C116.605 222.234 115.463 222.772 114.238 222.853C113.012 222.934 111.803 222.552 110.876 221.791C109.948 221.03 109.379 219.952 109.293 218.794C109.207 217.637 109.612 216.494 110.417 215.618C110.537 215.485 110.666 215.359 110.803 215.242L110.936 215.128L113.564 212.908L116.084 210.59C117.724 209.021 119.278 207.373 120.738 205.653C122.189 203.956 123.512 202.165 124.699 200.294C125.302 199.36 125.826 198.42 126.29 197.447C126.532 196.968 126.743 196.49 126.948 196.011C127.153 195.533 127.333 194.981 127.412 194.742L127.538 194.377C127.743 193.751 128.19 193.221 128.79 192.893C129.39 192.564 130.099 192.462 130.776 192.605C131.452 192.749 132.046 193.129 132.44 193.668C132.833 194.208 132.997 194.868 132.898 195.516L132.886 195.55Z" fill="#141414"/>
<path d="M91.0057 246.238C96.6906 246.677 117.616 225.481 117.483 221.335C117.417 219.114 114.191 214.878 111.979 214.109C107.867 212.674 79.9314 224.667 78.5629 229.894C77.2909 234.78 85.6946 245.834 91.0057 246.238Z" fill="url(#paint4_linear_1067_4013)"/>
<g style="mix-blend-mode:overlay">
<path d="M115.379 217.566C115.974 218.424 116.357 219.397 116.5 220.413C116.669 224.32 95.3523 245.282 89.9748 244.809C88.4617 244.678 86.6652 243.619 84.929 242.093C103.033 233.471 115.361 217.594 115.379 217.566Z" fill="#4D4D4D"/>
</g>
<g style="mix-blend-mode:overlay" opacity="0.5">
<path d="M93.8692 221.666C91.2347 223.311 89.5588 225.299 90.1255 226.102C90.6922 226.905 92.784 225.811 95.4185 224.166C98.0529 222.52 100.241 220.942 99.6384 220.139C99.0356 219.336 96.4976 220.02 93.8692 221.666Z" fill="white"/>
</g>
<g style="mix-blend-mode:overlay" opacity="0.5">
<path d="M102.574 216.592C101.724 216.95 101.218 217.617 101.435 218.072C101.652 218.528 102.52 218.642 103.364 218.254C104.208 217.867 104.727 217.229 104.503 216.774C104.28 216.318 103.424 216.221 102.574 216.592Z" fill="white"/>
</g>
<path d="M65.7226 158.666C61.9306 153.045 56.7943 151.678 54.5939 152.214C47.8601 153.865 40.21 162.572 40.8369 163.426C49.6325 175.385 55.3897 173.677 55.3897 173.677L66.5183 165.864L65.7226 158.666Z" fill="#141414"/>
<path d="M43.0248 137.015C41.0415 137.863 42.639 142.379 45.7558 147.669C47.4015 150.471 50.9463 154.264 52.3148 155.847C54.1233 157.903 57.0652 156.456 57.9394 155.847C59.4827 154.708 54.1414 150.232 50.5545 145.226C46.9675 140.221 44.8093 136.252 43.0248 137.015Z" fill="#141414"/>
<path d="M64.2453 163.779C62.0811 164.349 59.2658 161.353 57.9576 157.054C56.6494 152.754 57.6321 148.99 59.7963 148.404C61.9605 147.817 63.5701 150.682 64.8783 155.009C66.1865 159.337 66.4156 163.193 64.2453 163.779Z" fill="#141414"/>
<path d="M61.6955 148.871C62.4008 149.822 60.0919 152.925 58.2412 153.74C57.5178 154.059 57.1319 151.906 56.4326 152.464C54.7205 153.848 53.0326 154.577 51.4832 153.899C49.9339 153.222 52.8577 148.996 54.7627 148.131C57.1319 147.054 61.1168 148.096 61.6955 148.871Z" fill="#141414"/>
<path d="M121.239 180.789C118.562 182.236 115.813 183.876 113.131 185.51C110.448 187.145 107.783 188.859 105.149 190.59C99.88 194.052 94.7015 197.638 89.6135 201.347C89.1321 201.697 88.5826 201.954 87.9961 202.103C87.4096 202.253 86.7977 202.292 86.1954 202.218C85.593 202.143 85.012 201.958 84.4855 201.672C83.959 201.386 83.4973 201.005 83.1268 200.55C82.7563 200.095 82.4843 199.576 82.3262 199.022C82.1681 198.468 82.127 197.89 82.2054 197.321C82.2838 196.752 82.48 196.203 82.7829 195.706C83.0858 195.208 83.4895 194.772 83.9708 194.422C84.086 194.336 84.2068 194.256 84.3325 194.183C89.8868 190.888 95.5134 187.716 101.212 184.667C104.07 183.153 106.951 181.666 109.863 180.231C112.775 178.796 115.675 177.418 118.773 176.091C119.422 175.809 120.161 175.774 120.836 175.994C121.511 176.214 122.071 176.671 122.398 177.271C122.725 177.871 122.795 178.566 122.592 179.213C122.39 179.86 121.931 180.408 121.311 180.744L121.239 180.789Z" fill="#141414"/>
<path d="M52.0497 178.255C51.9351 184.594 79.8953 206.216 85.0376 205.761C87.8046 205.516 92.8264 201.615 93.6161 199.104C95.0871 194.423 78.0506 164.321 71.4433 163.227C65.2701 162.157 52.1642 172.327 52.0497 178.255Z" fill="url(#paint5_linear_1067_4013)"/>
<g style="mix-blend-mode:overlay">
<path d="M53.37 176.707C53.37 174.998 55.1785 173.41 56.9871 171.371C69.46 191.109 89.1793 202.919 89.2154 202.936C88.1902 203.661 87.0019 204.152 85.743 204.371C80.8117 204.833 53.2554 182.754 53.37 176.707Z" fill="#4D4D4D"/>
</g>
<g style="mix-blend-mode:overlay" opacity="0.5">
<path d="M77.5925 172.373C75.2957 169.674 72.6854 168.056 71.763 168.757C70.8406 169.457 72.402 171.604 74.6989 174.332C76.9957 177.06 79.1479 179.235 80.0703 178.535C80.9926 177.834 79.8894 175.095 77.5925 172.373Z" fill="white"/>
</g>
<g style="mix-blend-mode:overlay" opacity="0.5">
<path d="M83.4763 181.387C82.8734 180.539 81.9691 180.117 81.4567 180.448C80.9443 180.778 81.0166 181.723 81.6195 182.566C82.2223 183.409 83.1266 183.836 83.639 183.512C84.1514 183.187 84.0791 182.23 83.4763 181.387Z" fill="white"/>
</g>
<path d="M52.3451 157.755C50.9405 159.372 48.6859 158.353 46.3709 156.559C44.056 154.765 43.218 153.524 44.6287 151.906C46.0393 150.289 47.5826 150.711 49.8976 152.476C52.2125 154.241 53.7437 156.138 52.3451 157.755Z" fill="#141414"/>
<path d="M49.608 161.986C48.1311 163.546 45.9306 162.436 43.7001 160.551C41.4695 158.666 40.5351 157.276 42.0121 155.722C43.4891 154.167 45.171 154.759 47.4016 156.644C49.6321 158.529 51.091 160.414 49.608 161.986Z" fill="#141414"/>
<path d="M46.9197 165.123C45.6357 166.575 43.6041 165.63 41.4941 163.984C39.3841 162.339 38.8898 160.898 40.1799 159.429C41.47 157.959 42.6455 158.677 44.7193 160.323C46.7931 161.968 48.1797 163.671 46.9197 165.123Z" fill="#141414"/>
<path d="M284.756 212.805C292.816 217.241 295.812 220.92 294.95 222.446C294.088 223.972 291.146 222.03 286.546 220.812C277.781 218.488 276.298 212.725 277.184 211.199C278.07 209.673 280.626 210.527 284.756 212.805Z" fill="black"/>
<path d="M296.909 210.658C296.789 212.936 291.08 212.936 284.967 215.345C279.909 217.315 275.237 211.746 275.357 209.462C275.478 207.178 280.005 205.527 285.467 205.783C290.929 206.04 297.03 208.369 296.909 210.658Z" fill="black"/>
<path d="M306.428 216.017C305.614 218.175 298.874 213.819 295.046 213.58C287.914 213.13 286.269 212.406 287.083 210.248C287.896 208.09 288.891 205.954 294.07 207.686C299.248 209.417 307.242 213.859 306.428 216.017Z" fill="black"/>
<path d="M218.966 181.877C220.522 183.438 222.282 185.038 224.036 186.513C225.791 187.988 227.653 189.423 229.462 190.755C233.016 193.369 236.943 195.495 241.127 197.071C242.279 197.474 243.214 198.293 243.727 199.347C244.24 200.402 244.288 201.606 243.861 202.694C243.434 203.782 242.567 204.666 241.451 205.15C240.334 205.634 239.06 205.68 237.908 205.277C237.719 205.208 237.534 205.13 237.353 205.043C232.686 202.632 228.407 199.604 224.645 196.051C222.809 194.354 221.058 192.602 219.394 190.795C217.725 188.973 216.163 187.162 214.614 185.152C214.198 184.614 214.015 183.946 214.102 183.285C214.189 182.624 214.539 182.019 215.081 181.594C215.623 181.168 216.317 180.953 217.021 180.993C217.724 181.033 218.386 181.325 218.87 181.809L218.966 181.877Z" fill="#141414"/>
<path d="M274.079 223.414C267.888 225.857 236.28 209.303 234.834 204.622C234.056 202.11 236.039 196.256 238.216 194.633C242.273 191.615 278.185 195.448 281.723 200.835C285.045 205.863 279.867 221.125 274.079 223.414Z" fill="url(#paint6_linear_1067_4013)"/>
<g style="mix-blend-mode:overlay">
<path d="M275.116 221.689C276.786 221.028 277.684 218.87 279.041 216.563C255.011 212.907 236.112 199.958 236.076 199.935C235.747 201.105 235.704 202.329 235.949 203.517C237.33 207.982 269.208 224.023 275.116 221.689Z" fill="#4D4D4D"/>
</g>
<g style="mix-blend-mode:overlay" opacity="0.5">
<path d="M270.408 198.83C273.911 199.849 276.437 201.541 276.117 202.611C275.798 203.682 273.049 203.112 269.546 202.093C266.044 201.074 263.084 199.997 263.433 198.927C263.783 197.856 266.906 197.811 270.408 198.83Z" fill="white"/>
</g>
<g style="mix-blend-mode:overlay" opacity="0.5">
<path d="M259.387 196.985C260.442 197.202 261.196 197.839 261.057 198.409C260.919 198.978 259.966 199.269 258.911 199.052C257.856 198.836 257.103 198.198 257.241 197.629C257.38 197.059 258.332 196.769 259.387 196.985Z" fill="white"/>
</g>
<path d="M252.937 240.828C260.02 245.555 262.48 249.188 261.546 250.509C260.611 251.83 258.061 249.837 253.908 248.357C245.986 245.509 245.13 240.088 246.07 238.738C247.011 237.389 249.308 238.431 252.937 240.828Z" fill="black"/>
<path d="M264.373 239.769C264.066 241.882 258.779 241.477 252.919 243.186C248.096 244.621 244.22 239.109 244.527 237.001C244.835 234.894 249.163 233.71 254.173 234.371C259.183 235.031 264.681 237.662 264.373 239.769Z" fill="black"/>
<path d="M272.729 245.464C271.788 247.4 265.923 242.85 262.402 242.332C255.837 241.375 254.372 240.578 255.313 238.641C256.253 236.705 257.38 234.803 261.998 236.802C266.616 238.801 273.669 243.556 272.729 245.464Z" fill="black"/>
<path d="M205.728 194.787C205.806 195.026 206.017 195.624 206.198 196.057C206.379 196.49 206.608 197.014 206.855 197.492C207.32 198.449 207.874 199.388 208.441 200.339C209.63 202.21 210.955 204.001 212.408 205.698C213.866 207.418 215.417 209.066 217.056 210.635L219.575 212.953L222.204 215.174L222.318 215.271C223.199 216.053 223.721 217.13 223.773 218.272C223.825 219.413 223.403 220.528 222.597 221.38C221.791 222.231 220.664 222.751 219.458 222.829C218.252 222.907 217.061 222.537 216.139 221.797C215.994 221.674 215.857 221.543 215.729 221.404L213.185 218.642C212.371 217.68 211.546 216.74 210.774 215.795C209.191 213.837 207.714 211.806 206.349 209.707C204.966 207.594 203.741 205.393 202.684 203.118C202.165 201.979 201.671 200.795 201.267 199.57C201.05 198.967 200.869 198.34 200.664 197.708C200.479 197.012 200.334 196.307 200.23 195.596C200.141 194.95 200.31 194.297 200.705 193.764C201.099 193.231 201.69 192.856 202.362 192.713C203.034 192.57 203.739 192.67 204.337 192.993C204.935 193.315 205.384 193.838 205.595 194.457L205.728 194.787Z" fill="#141414"/>
<path d="M242.122 246.238C236.443 246.677 215.512 225.481 215.645 221.335C215.717 219.114 218.936 214.878 221.149 214.109C225.266 212.674 253.202 224.667 254.565 229.894C255.843 234.78 247.433 245.834 242.122 246.238Z" fill="url(#paint7_linear_1067_4013)"/>
<g style="mix-blend-mode:overlay">
<path d="M217.749 217.566C217.154 218.424 216.77 219.397 216.627 220.413C216.459 224.32 237.781 245.282 243.153 244.809C244.672 244.678 246.469 243.619 248.199 242.093C230.095 233.471 217.767 217.594 217.749 217.566Z" fill="#4D4D4D"/>
</g>
<g style="mix-blend-mode:overlay" opacity="0.5">
<path d="M239.265 221.666C241.893 223.311 243.569 225.299 243.009 226.102C242.448 226.905 240.344 225.811 237.709 224.166C235.075 222.52 232.887 220.942 233.49 220.139C234.092 219.336 236.63 220.02 239.265 221.666Z" fill="white"/>
</g>
<g style="mix-blend-mode:overlay" opacity="0.5">
<path d="M230.554 216.592C231.404 216.95 231.916 217.617 231.693 218.072C231.47 218.528 230.614 218.642 229.764 218.254C228.914 217.867 228.407 217.229 228.624 216.774C228.841 216.318 229.71 216.221 230.554 216.592Z" fill="white"/>
</g>
<path style="mix-blend-mode:multiply" d="M163.867 390C239.621 390 301.033 375.985 301.033 358.696C301.033 341.408 239.621 327.393 163.867 327.393C88.1116 327.393 26.7002 341.408 26.7002 358.696C26.7002 375.985 88.1116 390 163.867 390Z" fill="url(#paint8_radial_1067_4013)"/>
<path d="M122.342 298.737C122.342 306.79 127.087 317.672 130.053 317.666C133.019 317.661 137.715 306.767 137.703 298.72C137.691 290.674 132.97 288.521 130.004 288.527C127.038 288.533 122.33 290.691 122.342 298.737Z" fill="#141414"/>
<path d="M145.443 209.787C145.111 210.254 144.605 211.119 144.237 211.837C143.87 212.554 143.448 213.386 143.092 214.194C142.369 215.8 141.735 217.469 141.169 219.16C140.036 222.574 139.144 226.056 138.498 229.581C137.793 233.112 137.365 236.705 136.985 240.293L136.581 245.703L136.376 251.13V251.267C136.355 251.842 136.214 252.408 135.961 252.932C135.708 253.456 135.348 253.928 134.902 254.32C134.457 254.713 133.933 255.019 133.362 255.22C132.791 255.422 132.184 255.515 131.575 255.495C130.965 255.475 130.366 255.341 129.812 255.102C129.257 254.864 128.758 254.524 128.342 254.103C127.926 253.682 127.603 253.187 127.389 252.648C127.176 252.108 127.077 251.535 127.098 250.959C127.098 250.851 127.098 250.731 127.098 250.617L127.786 244.923L128.684 239.262C129.401 235.504 130.173 231.751 131.24 228.044C132.246 224.306 133.515 220.637 135.038 217.059C135.81 215.265 136.653 213.488 137.618 211.74C138.092 210.871 138.605 210.005 139.155 209.143C139.741 208.223 140.387 207.339 141.09 206.495C141.536 205.967 142.18 205.622 142.888 205.532C143.596 205.443 144.314 205.616 144.89 206.014C145.467 206.413 145.858 207.007 145.981 207.672C146.104 208.337 145.95 209.021 145.552 209.582L145.443 209.787Z" fill="#141414"/>
<path d="M118.622 284.557C118.49 294.17 123.909 299.147 127.538 301.397C128.49 301.987 129.601 302.308 130.739 302.322C131.878 302.336 132.997 302.043 133.965 301.476C137.66 299.318 143.212 294.478 143.345 284.865C143.508 273.282 140.18 256.392 135.333 250.128C134.128 248.584 133.03 247.462 131.68 247.445C130.33 247.428 129.009 248.408 127.846 249.723C122.704 255.606 118.791 272.769 118.622 284.557Z" fill="url(#paint9_linear_1067_4013)"/>
<g style="mix-blend-mode:overlay" opacity="0.5">
<path d="M122.384 271.899C122.173 273.038 122.559 274.028 123.246 274.142C123.933 274.256 124.651 273.43 124.862 272.309C125.073 271.187 124.687 270.173 123.999 270.031C123.312 269.888 122.595 270.771 122.384 271.899Z" fill="white"/>
</g>
<g style="mix-blend-mode:overlay">
<path d="M132.391 247.485C133.284 247.844 134.079 248.812 134.923 250.065C139.198 256.409 142.158 273.379 142.067 284.968C141.977 294.592 137.118 299.358 133.886 301.482C133.694 301.602 133.492 301.709 133.284 301.801C140.259 280.514 131.686 247.343 131.686 247.343L132.391 247.485Z" fill="#4D4D4D"/>
</g>
<g style="mix-blend-mode:overlay" opacity="0.5">
<path d="M121.028 283.35C120.949 287.234 121.968 290.4 123.3 290.423C124.633 290.446 124.934 287.507 125.012 283.623C125.091 279.74 124.91 276.38 123.578 276.357C122.245 276.334 121.106 279.461 121.028 283.35Z" fill="white"/>
</g>
<path d="M226.394 297.427C228.076 305.315 225.737 316.869 222.831 317.421C219.925 317.974 213.022 308.185 211.334 300.298C209.646 292.41 213.818 289.415 216.724 288.857C219.63 288.299 224.706 289.54 226.394 297.427Z" fill="#141414"/>
<path d="M191.332 204.064C194.403 207.266 197.171 210.717 199.603 214.377C202.033 217.973 204.222 221.711 206.156 225.567C208.092 229.43 209.777 233.401 211.202 237.457C212.647 241.522 213.854 245.659 214.819 249.849C214.954 250.41 214.97 250.99 214.867 251.557C214.764 252.124 214.544 252.666 214.219 253.152C213.895 253.639 213.472 254.06 212.975 254.392C212.478 254.724 211.916 254.961 211.323 255.088C210.123 255.345 208.865 255.141 207.825 254.521C206.785 253.902 206.048 252.918 205.776 251.785C205.776 251.694 205.734 251.597 205.716 251.5V251.364C205.115 247.437 204.29 243.544 203.244 239.701C202.204 235.833 200.913 232.03 199.38 228.312C197.844 224.603 196.064 220.99 194.051 217.492C192.089 214.019 189.818 210.71 187.263 207.6L187.148 207.463C186.911 207.202 186.73 206.898 186.617 206.571C186.503 206.243 186.459 205.897 186.487 205.554C186.515 205.21 186.615 204.875 186.78 204.567C186.945 204.26 187.173 203.986 187.45 203.762C187.727 203.538 188.048 203.367 188.395 203.26C188.742 203.153 189.107 203.111 189.471 203.138C189.835 203.164 190.19 203.258 190.516 203.414C190.841 203.57 191.131 203.785 191.368 204.047L191.332 204.064Z" fill="#141414"/>
<path d="M228.377 283.271C229.92 292.775 225.29 298.413 222.023 301.112C221.167 301.823 220.114 302.287 218.988 302.451C217.862 302.614 216.711 302.47 215.669 302.035C211.696 300.383 205.487 296.34 203.937 286.813C202.08 275.361 202.894 258.186 206.771 251.341C207.729 249.632 208.664 248.397 209.996 248.209C211.328 248.021 212.781 248.778 214.131 249.98C220.057 255.15 226.454 271.637 228.377 283.271Z" fill="url(#paint10_linear_1067_4013)"/>
<g style="mix-blend-mode:overlay">
<path d="M209.273 248.38C208.441 248.847 207.796 249.911 207.139 251.261C203.841 258.095 203.389 275.298 205.192 286.767C206.693 296.289 212.209 300.372 215.724 302.035C215.918 302.128 216.12 302.208 216.326 302.274C206.283 282.103 209.906 248.135 209.906 248.135L209.273 248.38Z" fill="#4D4D4D"/>
</g>
<g style="mix-blend-mode:overlay" opacity="0.5">
<path d="M225.248 281.847C225.911 285.622 225.405 288.851 224.109 289.051C222.813 289.25 222.071 286.437 221.408 282.661C220.745 278.886 220.407 275.583 221.704 275.378C223 275.173 224.585 278.071 225.248 281.847Z" fill="white"/>
</g>
<g style="mix-blend-mode:overlay" opacity="0.5">
<path d="M222.035 271.101C222.3 272.2 221.975 273.208 221.306 273.379C220.637 273.55 219.883 272.747 219.618 271.671C219.352 270.594 219.678 269.564 220.347 269.393C221.016 269.222 221.746 270.002 222.035 271.101Z" fill="white"/>
</g>
<path d="M196.505 222.389C198.53 242.753 178.793 268.436 172.077 269.006C165.361 269.575 140.898 247.679 138.872 227.315C136.847 206.951 148.825 196.609 164.74 195.254C180.656 193.899 194.479 202.019 196.505 222.389Z" fill="url(#paint11_radial_1067_4013)"/>
<g style="mix-blend-mode:overlay" opacity="0.5">
<path d="M169.593 262.821C170.799 263.92 171.179 265.304 170.491 265.908C169.804 266.511 168.291 266.113 167.103 265.008C165.916 263.903 165.518 262.525 166.205 261.921C166.892 261.318 168.412 261.716 169.593 262.821Z" fill="white"/>
</g>
<path d="M195.094 214.901C196.571 233.972 140.234 238.63 138.781 219.713C138.781 219.713 133.959 229.678 145.762 243.533C158.308 258.294 183.645 253.983 192.489 239.433C200.646 226.056 195.094 214.901 195.094 214.901Z" fill="#141414"/>
<g style="mix-blend-mode:overlay">
<path d="M193.671 213.67C193.671 213.67 202.033 240.697 174.091 267.576C174.121 267.576 191.212 245.122 193.671 213.67Z" fill="#4D4D4D"/>
</g>
<g style="mix-blend-mode:overlay">
<path d="M140.415 223.311C140.415 223.311 139.559 243.63 161.25 259.512C161.25 259.501 146.389 244.393 140.415 223.311Z" fill="#4D4D4D"/>
</g>
<g style="mix-blend-mode:overlay">
<path d="M167.429 223.335C187.48 221.626 192.532 209.052 192.532 209.052C192.532 209.052 192.532 208.944 192.592 208.75C187.016 198.392 176.448 194.252 164.74 195.254C152.924 196.262 143.285 202.224 139.927 213.557C139.969 213.733 139.999 213.83 139.999 213.83C139.999 213.83 147.372 225.049 167.429 223.335Z" fill="#4D4D4D"/>
</g>
<path d="M206.397 199.485C203.986 203.762 199.658 206.023 196.704 204.542C193.75 203.062 193.304 198.398 195.703 194.127C198.102 189.856 202.449 187.589 205.397 189.07C208.345 190.55 208.797 195.214 206.397 199.485Z" fill="#141414"/>
<path d="M126.881 199.485C129.292 203.762 133.621 206.023 136.575 204.542C139.529 203.062 139.975 198.398 137.576 194.127C135.176 189.856 130.836 187.589 127.882 189.07C124.928 190.55 124.482 195.214 126.881 199.485Z" fill="#141414"/>
<path d="M114.861 182.954C116.669 189.303 122.698 193.295 128.358 191.866C134.019 190.436 137.142 184.127 135.339 177.777C133.537 171.428 127.502 167.436 121.848 168.865C116.193 170.294 113.064 176.598 114.861 182.954Z" fill="#141414"/>
<path d="M218.436 182.879C216.627 189.269 210.599 193.295 204.92 191.866C199.241 190.436 196.149 184.098 197.957 177.709C199.766 171.319 205.794 167.293 211.473 168.723C217.152 170.152 220.251 176.49 218.436 182.879Z" fill="#141414"/>
<path d="M166.639 219.257C172.734 219.257 183.809 216.979 190.753 208.967C186.594 198.312 177.201 191.165 166.639 191.165C156.077 191.165 146.516 198.266 142.525 208.967C149.47 216.95 160.725 219.257 166.639 219.257Z" fill="#141414"/>
<path d="M166.639 192.122C177.201 192.122 186.334 198.34 190.753 209.314C202.81 209.314 211.075 173.751 211.075 169.577C211.075 163.028 191.181 157.715 166.639 157.715C142.097 157.715 122.209 163.028 122.209 169.577C122.209 173.751 132.198 209.314 142.525 209.314C146.944 198.34 156.083 192.122 166.639 192.122Z" fill="url(#paint12_radial_1067_4013)"/>
<g style="mix-blend-mode:overlay">
<path d="M143.201 207.36C148.15 197.919 156.397 192.167 166.712 192.167C177.027 192.167 184.695 197.674 190.193 207.36C198.53 207.36 204.987 191.592 208.043 181.097C202.961 191.66 195.341 192.07 185.979 190.117C184.773 189.863 183.63 189.595 182.549 189.314C172.281 186.556 161.404 186.543 151.128 189.274C150.218 189.525 149.254 189.758 148.235 189.986C134.038 193.141 128.28 189.451 125.17 179.485C128.377 189.889 135.695 207.36 143.201 207.36Z" fill="#4D4D4D"/>
</g>
<g style="mix-blend-mode:overlay">
<path fill-rule="evenodd" clip-rule="evenodd" d="M166.06 192.122V161.393H167.218V192.122H166.06Z" fill="#4D4D4D"/>
</g>
<g style="mix-blend-mode:overlay">
<path d="M140.572 159.964C142.085 162.442 152.78 170.289 166.579 170.289C179.842 170.289 191.465 162.595 193.707 160.266C186.214 157.88 176.828 156.457 166.67 156.457C156.897 156.457 147.897 157.761 140.572 159.964Z" fill="#4D4D4D"/>
</g>
<path d="M189.626 156.456C189.626 161.582 179.576 167.584 166.579 167.584C153.582 167.584 142.562 161.582 142.562 156.456C142.562 151.331 153.099 147.18 166.073 147.18C179.046 147.18 189.626 151.337 189.626 156.456Z" fill="#141414"/>
<path d="M135.665 45.8716C135.528 42.901 135.033 39.9548 134.188 37.0904C133.358 34.2367 132.159 31.4902 130.619 28.9129C129.134 26.3916 127.231 24.1114 124.982 22.159C122.842 20.1317 120.16 18.7423 117.543 17.4154L120.672 11.5784C123.843 13.3722 126.954 15.3368 129.413 17.9564C131.939 20.4575 134.029 23.3215 135.605 26.4414C137.158 29.482 138.31 32.6912 139.035 35.9971C139.769 39.289 140.091 42.651 139.993 46.014L135.665 45.8716Z" fill="#141414"/>
<path d="M100.133 10.3598C99.9316 12.5909 100.435 14.8284 101.58 16.7891C102.725 18.7499 104.46 20.3459 106.565 21.3753C108.67 22.4047 111.051 22.8212 113.407 22.5722C115.763 22.3232 117.988 21.4199 119.8 19.9764C121.612 18.5329 122.93 16.6142 123.588 14.4629C124.246 12.3116 124.214 10.0243 123.495 7.89039C122.777 5.75646 121.405 3.87174 119.552 2.47456C117.7 1.07737 115.45 0.230487 113.088 0.0410462C111.52 -0.0854639 109.941 0.0811582 108.441 0.531335C106.941 0.981512 105.55 1.70641 104.347 2.66468C103.144 3.62295 102.153 4.79581 101.43 6.11616C100.706 7.43652 100.266 8.87851 100.133 10.3598Z" fill="#141414"/>
<path d="M210.762 50.9458C211.265 47.6149 212.184 44.352 213.499 41.225C214.804 38.0802 216.513 35.0986 218.587 32.347C220.699 29.526 223.271 27.0389 226.207 24.9782C229.101 22.7857 232.519 21.3449 235.961 20.0864L238.005 26.3506C235.165 27.2275 232.296 28.1842 229.824 29.8357C227.258 31.403 224.974 33.3487 223.06 35.5987C221.079 37.8908 219.406 40.4061 218.081 43.0872C216.737 45.774 215.725 48.5982 215.066 51.5039L210.762 50.9458Z" fill="#141414"/>
<path d="M256.428 22.1645C256.227 24.3957 255.331 26.5207 253.852 28.2705C252.373 30.0204 250.377 31.3166 248.118 31.9953C245.859 32.6739 243.438 32.7045 241.16 32.0832C238.883 31.4618 236.852 30.2164 235.324 28.5045C233.796 26.7925 232.839 24.691 232.576 22.4656C232.312 20.2403 232.753 17.9911 233.843 16.0025C234.933 14.0139 236.622 12.3752 238.698 11.2937C240.774 10.2122 243.142 9.73645 245.504 9.92667C247.072 10.0522 248.599 10.4684 249.997 11.1515C251.394 11.8345 252.636 12.771 253.65 13.9075C254.665 15.044 255.432 16.3582 255.909 17.775C256.385 19.1917 256.562 20.6833 256.428 22.1645Z" fill="#141414"/>
<path d="M200.393 165.539L129.775 159.845C92.9168 156.884 76.4169 132.414 79.5577 97.5907C82.6925 62.7736 103.334 41.2933 140.192 44.2545L210.804 49.9492C247.668 52.9104 264.162 77.3803 261.027 112.203C257.917 147.026 237.251 168.506 200.393 165.539Z" fill="url(#paint13_radial_1067_4013)"/>
<g style="mix-blend-mode:overlay">
<path d="M200.272 155.466L131.101 149.908C96.8594 147.151 81.125 122.613 82.0474 92.4939C81.8002 94.1169 81.5953 95.7626 81.4446 97.4539C78.4906 130.238 94.7072 153.33 130.836 156.234L200.007 161.792C236.112 164.697 256.253 144.526 259.207 111.748C259.357 110.039 259.448 108.399 259.496 106.759C255.011 136.593 234.514 158.222 200.272 155.466Z" fill="#4D4D4D"/>
</g>
<path d="M133.078 146.684C118.568 145.517 108.964 140.534 103.671 131.457C99.2043 123.769 97.7756 112.96 99.1742 97.4366C100.573 81.913 103.913 71.4917 109.688 64.6297C116.512 56.5205 126.887 53.1435 141.404 54.311L207.832 59.6525C222.342 60.7915 231.946 65.8028 237.245 74.8858C241.706 82.5679 243.135 93.3763 241.736 108.9C240.337 124.424 236.998 134.851 231.222 141.713C224.398 149.816 214.023 153.193 199.506 152.026L133.078 146.684Z" fill="url(#paint14_radial_1067_4013)"/>
<path d="M133.265 144.64C104.443 142.322 98.9031 124.839 101.314 97.613C103.726 70.3868 112.371 54.0432 141.193 56.3552L207.621 61.6968C236.443 64.0145 241.983 81.4971 239.572 108.723C237.161 135.949 228.516 152.299 199.694 149.981L133.265 144.64Z" fill="#141414"/>
<path d="M156.355 98.9115C157.054 97.5619 160.75 97.2031 164.138 97.4764C167.526 97.7498 170.829 98.6154 171.541 99.9764C171.884 100.614 171.583 101.634 171.45 102.254C171.175 103.524 170.795 104.771 170.311 105.984C169.208 108.832 166.694 112.248 162.896 111.969C160.237 111.764 157.989 109.617 157.205 107.414C156.656 105.709 156.308 103.952 156.168 102.175C156.072 101.229 155.861 99.891 156.355 98.9115Z" fill="#00EEFF"/>
<path d="M219.533 97.0265C218.78 108.063 213.101 116.702 203.461 116.115C193.822 115.529 189.373 106.269 190.126 95.2271C190.88 84.1851 196.559 75.552 206.198 76.1386C215.838 76.7251 220.287 85.9903 219.533 97.0265Z" fill="url(#paint15_linear_1067_4013)"/>
<path d="M141.746 91.1032C142.502 80.065 136.531 70.7146 128.411 70.2186C120.291 69.7226 113.096 78.2687 112.34 89.3069C111.584 100.345 117.555 109.695 125.675 110.191C133.795 110.687 140.99 102.141 141.746 91.1032Z" fill="url(#paint16_linear_1067_4013)"/>
<path opacity="0.7" d="M209.05 106.548C211.684 103.433 212.269 100.928 213.921 101.281C215.862 101.691 214.946 105.785 212.305 108.9C209.665 112.015 206.675 113.296 205.355 112.317C204.034 111.337 206.409 109.669 209.05 106.548Z" fill="white"/>
<path opacity="0.7" d="M216.845 96.8731C216.801 97.2102 216.653 97.5274 216.418 97.7844C216.183 98.0413 215.872 98.2263 215.526 98.3157C215.179 98.4051 214.812 98.3949 214.471 98.2864C214.131 98.1778 213.832 97.9759 213.613 97.7063C213.395 97.4367 213.266 97.1117 213.244 96.7728C213.222 96.4339 213.307 96.0965 213.489 95.8036C213.671 95.5107 213.941 95.2756 214.265 95.1283C214.589 94.9811 214.952 94.9283 215.307 94.9767C215.775 95.0404 216.198 95.2746 216.485 95.629C216.772 95.9834 216.902 96.4299 216.845 96.8731Z" fill="white"/>
<path opacity="0.7" d="M131.752 100.683C134.393 97.5677 134.972 95.0621 136.623 95.4094C138.571 95.8195 137.648 99.9139 135.008 103.029C132.367 106.144 129.377 107.425 128.057 106.446C126.737 105.466 129.112 103.798 131.752 100.683Z" fill="white"/>
<path opacity="0.7" d="M139.547 91.0017C139.504 91.3388 139.355 91.6561 139.12 91.913C138.885 92.17 138.575 92.355 138.228 92.4444C137.881 92.5338 137.514 92.5235 137.174 92.415C136.833 92.3065 136.534 92.1045 136.316 91.835C136.097 91.5654 135.969 91.2404 135.947 90.9015C135.924 90.5626 136.01 90.2252 136.191 89.9323C136.373 89.6394 136.643 89.4042 136.967 89.2569C137.291 89.1097 137.654 89.0569 138.01 89.1054C138.478 89.1691 138.9 89.4032 139.188 89.7576C139.475 90.112 139.604 90.5585 139.547 91.0017Z" fill="white"/>
<g style="mix-blend-mode:overlay" opacity="0.5">
<path d="M128.756 48.7987C130.505 51.5207 121.703 51.5834 112.998 56.5662C104.293 61.549 98.9816 69.5614 97.2333 66.8166C95.485 64.0718 100.012 56.7257 108.687 51.7428C117.362 46.76 127.008 46.0937 128.756 48.7987Z" fill="white"/>
</g>
<g style="mix-blend-mode:overlay" opacity="0.5">
<path d="M96.8053 75.831C96.7469 76.4853 96.4843 77.1085 96.0509 77.6218C95.6175 78.1352 95.0327 78.5155 94.3704 78.7149C93.7081 78.9143 92.9981 78.9237 92.3302 78.7419C91.6623 78.5601 91.0664 78.1953 90.6179 77.6937C90.1694 77.192 89.8885 76.576 89.8107 75.9235C89.7328 75.2711 89.8616 74.6114 90.1806 74.0281C90.4995 73.4447 90.9945 72.9637 91.6028 72.646C92.2112 72.3284 92.9056 72.1883 93.5982 72.2434C94.0582 72.28 94.506 72.4018 94.9161 72.6019C95.3263 72.802 95.6907 73.0765 95.9885 73.4097C96.2863 73.7428 96.5118 74.1281 96.6519 74.5436C96.7921 74.959 96.8442 75.3965 96.8053 75.831Z" fill="white"/>
</g>
<g style="mix-blend-mode:overlay" opacity="0.5">
<path d="M133.217 184.189C133.947 185.328 133.983 186.592 133.296 186.979C132.609 187.367 131.487 186.752 130.728 185.596C129.968 184.44 129.962 183.192 130.649 182.8C131.337 182.407 132.482 183.033 133.217 184.189Z" fill="white"/>
</g>
<g style="mix-blend-mode:overlay" opacity="0.5">
<path d="M128.985 175.79C130.076 178.637 130.583 180.995 129.685 181.308C128.786 181.621 127.171 179.6 126.067 176.752C124.964 173.905 124.819 171.388 125.718 171.058C126.616 170.727 127.888 172.982 128.985 175.79Z" fill="white"/>
</g>
<defs>
<linearGradient id="paint0_linear_1067_4013" x1="193.917" y1="190.453" x2="327.607" y2="76.991" gradientUnits="userSpaceOnUse">
<stop stop-color="#0080B5"/>
<stop offset="0.07" stop-color="#0B8CBC"/>
<stop offset="0.37" stop-color="#3BBDD9"/>
<stop offset="0.64" stop-color="#5DE1EE"/>
<stop offset="0.86" stop-color="#72F7FA"/>
<stop offset="1" stop-color="#7AFFFF"/>
</linearGradient>
<linearGradient id="paint1_linear_1067_4013" x1="138.542" y1="183.44" x2="5.38885" y2="69.5969" gradientUnits="userSpaceOnUse">
<stop stop-color="#0080B5"/>
<stop offset="0.07" stop-color="#0B8CBC"/>
<stop offset="0.37" stop-color="#3BBDD9"/>
<stop offset="0.64" stop-color="#5DE1EE"/>
<stop offset="0.86" stop-color="#72F7FA"/>
<stop offset="1" stop-color="#7AFFFF"/>
</linearGradient>
<linearGradient id="paint2_linear_1067_4013" x1="182.532" y1="187.117" x2="331.105" y2="145.179" gradientUnits="userSpaceOnUse">
<stop stop-color="#0080B5"/>
<stop offset="0.07" stop-color="#0B8CBC"/>
<stop offset="0.37" stop-color="#3BBDD9"/>
<stop offset="0.64" stop-color="#5DE1EE"/>
<stop offset="0.86" stop-color="#72F7FA"/>
<stop offset="1" stop-color="#7AFFFF"/>
</linearGradient>
<linearGradient id="paint3_linear_1067_4013" x1="150.799" y1="179.032" x2="5.5826" y2="128.732" gradientUnits="userSpaceOnUse">
<stop stop-color="#0080B5"/>
<stop offset="0.07" stop-color="#0B8CBC"/>
<stop offset="0.37" stop-color="#3BBDD9"/>
<stop offset="0.64" stop-color="#5DE1EE"/>
<stop offset="0.86" stop-color="#72F7FA"/>
<stop offset="1" stop-color="#7AFFFF"/>
</linearGradient>
<linearGradient id="paint4_linear_1067_4013" x1="99.4621" y1="235.777" x2="86.7185" y2="220.574" gradientUnits="userSpaceOnUse">
<stop stop-color="#FF9500"/>
<stop offset="0.1" stop-color="#FFA70C"/>
<stop offset="0.25" stop-color="#FFBB19"/>
<stop offset="0.42" stop-color="#FFC922"/>
<stop offset="0.64" stop-color="#FFD227"/>
<stop offset="1" stop-color="#FFD429"/>
</linearGradient>
<linearGradient id="paint5_linear_1067_4013" x1="70.3249" y1="194.897" x2="86.1915" y2="177.713" gradientUnits="userSpaceOnUse">
<stop stop-color="#FF9500"/>
<stop offset="0.1" stop-color="#FFA70C"/>
<stop offset="0.25" stop-color="#FFBB19"/>
<stop offset="0.42" stop-color="#FFC922"/>
<stop offset="0.64" stop-color="#FFD227"/>
<stop offset="1" stop-color="#FFD429"/>
</linearGradient>
<linearGradient id="paint6_linear_1067_4013" x1="253.78" y1="215.859" x2="262.649" y2="194.635" gradientUnits="userSpaceOnUse">
<stop stop-color="#FF9500"/>
<stop offset="0.1" stop-color="#FFA70C"/>
<stop offset="0.25" stop-color="#FFBB19"/>
<stop offset="0.42" stop-color="#FFC922"/>
<stop offset="0.64" stop-color="#FFD227"/>
<stop offset="1" stop-color="#FFD429"/>
</linearGradient>
<linearGradient id="paint7_linear_1067_4013" x1="228.034" y1="235.164" x2="240.844" y2="220.02" gradientUnits="userSpaceOnUse">
<stop stop-color="#FF9500"/>
<stop offset="0.1" stop-color="#FFA70C"/>
<stop offset="0.25" stop-color="#FFBB19"/>
<stop offset="0.42" stop-color="#FFC922"/>
<stop offset="0.64" stop-color="#FFD227"/>
<stop offset="1" stop-color="#FFD429"/>
</linearGradient>
<radialGradient id="paint8_radial_1067_4013" cx="0" cy="0" r="1" gradientUnits="userSpaceOnUse" gradientTransform="translate(159.497 377.64) scale(135.355 33.6472)">
<stop stop-color="#E3E3E3"/>
<stop offset="0.26" stop-color="#F1F1F1"/>
<stop offset="0.61" stop-color="#FCFCFC"/>
<stop offset="1" stop-color="white"/>
</radialGradient>
<linearGradient id="paint9_linear_1067_4013" x1="145.802" y1="274.04" x2="117.875" y2="271.399" gradientUnits="userSpaceOnUse">
<stop stop-color="#FF9500"/>
<stop offset="0.1" stop-color="#FFA70C"/>
<stop offset="0.25" stop-color="#FFBB19"/>
<stop offset="0.42" stop-color="#FFC922"/>
<stop offset="0.64" stop-color="#FFD227"/>
<stop offset="1" stop-color="#FFD429"/>
</linearGradient>
<linearGradient id="paint10_linear_1067_4013" x1="202.592" y1="277.989" x2="229.835" y2="271.26" gradientUnits="userSpaceOnUse">
<stop stop-color="#FF9500"/>
<stop offset="0.1" stop-color="#FFA70C"/>
<stop offset="0.25" stop-color="#FFBB19"/>
<stop offset="0.42" stop-color="#FFC922"/>
<stop offset="0.64" stop-color="#FFD227"/>
<stop offset="1" stop-color="#FFD429"/>
</linearGradient>
<radialGradient id="paint11_radial_1067_4013" cx="0" cy="0" r="1" gradientUnits="userSpaceOnUse" gradientTransform="translate(148.627 252.094) rotate(-4.26497) scale(35.2618 32.4597)">
<stop stop-color="#FFD429"/>
<stop offset="0.36" stop-color="#FFD227"/>
<stop offset="0.58" stop-color="#FFC922"/>
<stop offset="0.75" stop-color="#FFBB19"/>
<stop offset="0.9" stop-color="#FFA70C"/>
<stop offset="1" stop-color="#FF9500"/>
</radialGradient>
<radialGradient id="paint12_radial_1067_4013" cx="0" cy="0" r="1" gradientUnits="userSpaceOnUse" gradientTransform="translate(158.277 171.562) scale(49.9905 50.9503)">
<stop stop-color="#FFD429"/>
<stop offset="0.36" stop-color="#FFD227"/>
<stop offset="0.58" stop-color="#FFC922"/>
<stop offset="0.75" stop-color="#FFBB19"/>
<stop offset="0.9" stop-color="#FFA70C"/>
<stop offset="1" stop-color="#FF9500"/>
</radialGradient>
<radialGradient id="paint13_radial_1067_4013" cx="0" cy="0" r="1" gradientUnits="userSpaceOnUse" gradientTransform="translate(166.838 64.5276) rotate(4.59206) scale(118.319 111.853)">
<stop stop-color="#FFD429"/>
<stop offset="0.49" stop-color="#FFD228"/>
<stop offset="0.67" stop-color="#FFCB23"/>
<stop offset="0.8" stop-color="#FFC01C"/>
<stop offset="0.9" stop-color="#FFAF11"/>
<stop offset="0.99" stop-color="#FF9903"/>
<stop offset="1" stop-color="#FF9500"/>
</radialGradient>
<radialGradient id="paint14_radial_1067_4013" cx="0" cy="0" r="1" gradientUnits="userSpaceOnUse" gradientTransform="translate(169.86 102.808) rotate(4.5826) scale(61.2363 57.8898)">
<stop stop-color="#FFD429"/>
<stop offset="0.49" stop-color="#FFD228"/>
<stop offset="0.67" stop-color="#FFCB23"/>
<stop offset="0.8" stop-color="#FFC01C"/>
<stop offset="0.9" stop-color="#FFAF11"/>
<stop offset="0.99" stop-color="#FF9903"/>
<stop offset="1" stop-color="#FF9500"/>
</radialGradient>
<linearGradient id="paint15_linear_1067_4013" x1="207.657" y1="76.4151" x2="202.629" y2="116.307" gradientUnits="userSpaceOnUse">
<stop stop-color="#00B4FF"/>
<stop offset="0.04" stop-color="#07B8FF"/>
<stop offset="0.35" stop-color="#38D7FF"/>
<stop offset="0.63" stop-color="#5CEDFF"/>
<stop offset="0.86" stop-color="#72FAFF"/>
<stop offset="1" stop-color="#7AFFFF"/>
</linearGradient>
<linearGradient id="paint16_linear_1067_4013" x1="128.223" y1="73.2687" x2="125.897" y2="112.13" gradientUnits="userSpaceOnUse">
<stop stop-color="#00B4FF"/>
<stop offset="0.04" stop-color="#07B8FF"/>
<stop offset="0.35" stop-color="#38D7FF"/>
<stop offset="0.63" stop-color="#5CEDFF"/>
<stop offset="0.86" stop-color="#72FAFF"/>
<stop offset="1" stop-color="#7AFFFF"/>
</linearGradient>
</defs>
</svg>
