<svg width="449" height="433" viewBox="0 0 449 433" fill="none"
  xmlns="http://www.w3.org/2000/svg">
  <g opacity="0.4">
    <path d="M329.507 158.612C271.619 192.245 226.309 222.144 236.876 239.398C247.444 256.652 317.618 257.915 375.458 224.283C433.297 190.65 457.132 135.036 446.564 117.782C435.996 100.527 387.387 124.98 329.507 158.612Z" fill="url(#paint0_linear_1023_3428)"/>
    <g style="mix-blend-mode:overlay">
      <path d="M315.649 219.207L261.999 250.306L264.617 250.614L276.935 243.455C283.561 239.589 290.909 237.04 298.553 235.956C306.196 234.872 313.985 235.275 321.468 237.141L337.773 241.15L340.091 240.361L321.792 235.862C310.238 232.972 298.06 233.522 286.83 237.44L316.33 220.297C320.927 217.61 326.026 215.837 331.332 215.081C336.637 214.326 342.044 214.601 347.239 215.892L377.184 223.264L378.748 222.317L347.539 214.708C342.182 213.37 336.605 213.078 331.132 213.85C325.658 214.622 320.396 216.443 315.649 219.207Z" fill="white"/>
      <path d="M302.763 182.899L305.397 172.875L303.712 173.893L301.475 182.576C300.179 187.641 297.864 192.405 294.665 196.593C291.465 200.781 287.444 204.309 282.835 206.973L235.377 234.544L235.555 235.957L283.524 208.094C288.28 205.34 292.429 201.695 295.731 197.371C299.033 193.047 301.423 188.128 302.763 182.899Z" fill="white"/>
      <path d="M391.933 185.339L378.335 181.992C378.323 181.385 378.086 180.803 377.667 180.354C377.248 179.905 376.676 179.62 376.057 179.551C375.438 179.483 374.814 179.635 374.302 179.981C373.79 180.327 373.425 180.842 373.274 181.43C373.123 182.019 373.196 182.641 373.481 183.181C373.766 183.72 374.242 184.141 374.821 184.364C375.401 184.587 376.043 184.598 376.63 184.394C377.217 184.19 377.707 183.785 378.011 183.255L392.144 186.736L407.121 178.053L424.658 182.371L425.55 181.242L406.91 176.656L391.933 185.339Z" fill="white"/>
      <path d="M432.43 131.602L437.43 112.336L436.02 112.178L431.158 131.287C429.842 136.413 427.495 141.235 424.254 145.473C421.013 149.711 416.942 153.281 412.275 155.976L405.865 159.702L392.476 156.41C391.346 156.137 390.198 155.937 389.04 155.811L399.811 149.551C403.814 147.248 407.308 144.194 410.091 140.565C412.873 136.937 414.888 132.806 416.019 128.414L419.65 114.411L418.143 114.838L414.722 128.098C413.637 132.321 411.703 136.293 409.032 139.785C406.362 143.276 403.007 146.217 399.162 148.438L386.779 155.629C381.655 155.464 376.59 156.741 372.192 159.307L346.785 174.067C346.826 173.925 346.882 173.783 346.923 173.633L355.659 143.797L354.038 144.721L345.667 173.278C342.054 185.688 333.695 196.278 322.311 202.869L247.031 246.612L248.579 247.228L322.999 203.99C333.942 197.65 342.183 187.692 346.218 175.93L372.905 160.428C377.18 157.931 382.115 156.715 387.095 156.931V156.987L387.184 156.931C388.885 157.016 390.573 157.262 392.225 157.665L434.853 168.139L435.558 166.995L407.769 160.152L413.037 157.089C417.837 154.298 422.022 150.609 425.35 146.235C428.679 141.86 431.085 136.887 432.43 131.602Z" fill="white"/>
      <path d="M373.545 203.603C373.251 203.125 372.801 202.756 372.268 202.556C371.734 202.355 371.147 202.333 370.599 202.494C370.051 202.656 369.574 202.99 369.244 203.445C368.914 203.9 368.749 204.45 368.775 205.006C368.802 205.563 369.019 206.095 369.391 206.518C369.764 206.941 370.27 207.231 370.831 207.342C371.392 207.453 371.974 207.378 372.487 207.13C372.999 206.881 373.411 206.473 373.659 205.971L395.037 211.228L396.358 210.209L373.886 204.684C373.856 204.304 373.74 203.934 373.545 203.603Z" fill="white"/>
      <path d="M392.663 194.795L355.384 185.544C355.372 184.997 355.176 184.468 354.825 184.041C354.474 183.614 353.988 183.311 353.442 183.18C352.896 183.049 352.322 183.098 351.807 183.317C351.292 183.537 350.866 183.916 350.595 184.395C350.324 184.875 350.223 185.428 350.308 185.969C350.392 186.51 350.658 187.008 351.063 187.388C351.468 187.767 351.991 188.005 352.549 188.066C353.108 188.126 353.671 188.005 354.152 187.722C354.534 187.5 354.848 187.181 355.06 186.799L392.898 196.184L407.874 187.501L418.191 189.972L419.172 188.867L407.672 186.104L392.663 194.795Z" fill="white"/>
    </g>
  </g>
  <g opacity="0.4">
    <path d="M119.544 155.463C177.424 189.095 222.743 218.994 212.175 236.249C201.607 253.503 131.433 254.766 73.5451 221.133C15.657 187.501 -8.12877 131.879 2.43907 114.632C13.0069 97.3859 61.6563 121.831 119.544 155.463Z" fill="url(#paint1_linear_1023_3428)"/>
    <g style="mix-blend-mode:overlay">
      <path d="M133.402 216.058L187.052 247.149L184.426 247.465L172.108 240.306C165.477 236.434 158.122 233.882 150.471 232.798C142.82 231.714 135.024 232.12 127.535 233.991L111.238 238.001L108.912 237.212L127.211 232.713C138.767 229.823 150.948 230.373 162.18 234.291L132.673 217.147C128.075 214.461 122.976 212.688 117.671 211.932C112.366 211.176 106.959 211.452 101.764 212.743L71.827 220.115L70.2547 219.168L101.44 211.48C106.813 210.146 112.405 209.864 117.892 210.649C123.379 211.435 128.651 213.274 133.402 216.058Z" fill="white"/>
      <path d="M146.28 179.75L143.662 169.741L145.34 170.767L147.577 179.45C148.873 184.515 151.187 189.279 154.387 193.467C157.586 197.655 161.607 201.183 166.216 203.847L213.674 231.418L213.504 232.823L165.536 204.96C160.774 202.207 156.62 198.561 153.315 194.233C150.01 189.906 147.619 184.983 146.28 179.75Z" fill="white"/>
      <path d="M57.1179 182.189L70.7167 178.842C70.7149 178.408 70.8354 177.982 71.0651 177.611C71.3478 177.126 71.7873 176.746 72.315 176.53C72.8427 176.313 73.429 176.273 73.9825 176.416C74.536 176.558 75.0256 176.875 75.3749 177.317C75.7242 177.758 75.9137 178.3 75.9137 178.858C75.9137 179.415 75.7242 179.957 75.3749 180.399C75.0256 180.841 74.536 181.158 73.9825 181.3C73.429 181.442 72.8427 181.402 72.315 181.186C71.7873 180.97 71.3478 180.59 71.0651 180.105L56.9315 183.586L41.9469 174.903L24.4175 179.213L23.526 178.092L42.1656 173.506L57.1179 182.189Z" fill="white"/>
      <path d="M16.6213 128.453L11.6129 109.186L13.023 109.028L17.8855 128.137C19.2027 133.263 21.5495 138.084 24.7905 142.322C28.0315 146.56 32.1025 150.13 36.7683 152.827L43.1867 156.552L56.5667 153.253C57.7011 152.986 58.8514 152.789 60.011 152.661L49.2325 146.402C45.2378 144.094 41.7527 141.038 38.9788 137.41C36.205 133.781 34.1976 129.653 33.0728 125.264L29.434 111.254L30.9414 111.688L34.3694 124.949C35.4518 129.172 37.3837 133.145 40.0532 136.636C42.7227 140.128 46.0768 143.069 49.9214 145.289L62.3046 152.48C67.4285 152.319 72.4921 153.595 76.8921 156.158L102.299 170.918C102.25 170.776 102.201 170.634 102.161 170.484L93.4165 140.648L95.0373 141.571L103.401 170.128C107.044 182.551 115.442 193.139 126.862 199.712L202.142 243.447L200.594 244.071L126.182 200.832C115.238 194.491 106.996 184.534 102.955 172.773L76.268 157.271C71.9929 154.774 67.0576 153.558 62.0776 153.774V153.829L61.9885 153.774C60.2847 153.855 58.5935 154.101 56.9396 154.508L14.3116 164.982L13.6065 163.838L41.4039 156.994L36.1362 153.932C31.3145 151.153 27.1069 147.471 23.7571 143.097C20.4073 138.724 17.9819 133.746 16.6213 128.453Z" fill="white"/>
      <path d="M75.5062 200.453C75.766 200.032 76.1481 199.696 76.6042 199.486C77.0603 199.276 77.57 199.203 78.069 199.275C78.5679 199.347 79.0337 199.561 79.4076 199.891C79.7816 200.221 80.0469 200.651 80.17 201.127C80.2931 201.604 80.2685 202.105 80.0994 202.568C79.9304 203.031 79.6243 203.434 79.2199 203.728C78.8154 204.021 78.3308 204.192 77.8271 204.217C77.3234 204.243 76.8232 204.122 76.3897 203.871C75.9528 203.615 75.6032 203.239 75.3847 202.79L54.0059 208.047L52.6931 207.028L75.1659 201.503C75.196 201.133 75.3124 200.774 75.5062 200.453Z" fill="white"/>
      <path d="M56.3885 191.645L93.6677 182.394C93.6781 181.847 93.8735 181.319 94.2235 180.891C94.5735 180.463 95.0586 180.159 95.6037 180.027C96.1488 179.895 96.7235 179.942 97.2386 180.16C97.7537 180.378 98.1804 180.756 98.4528 181.234C98.7251 181.713 98.8279 182.266 98.745 182.807C98.6621 183.348 98.3983 183.847 97.9944 184.227C97.5906 184.608 97.0693 184.848 96.5112 184.91C95.9531 184.972 95.3895 184.854 94.9077 184.572C94.5255 184.35 94.2119 184.031 94 183.649L56.1616 193.034L41.177 184.352L30.8685 186.822L29.8798 185.725L41.3877 182.962L56.3885 191.645Z" fill="white"/>
    </g>
  </g>
  <g opacity="0.4">
    <path d="M335.942 198.512C278.151 205.45 231.641 213.706 233.829 230.929C236.017 248.152 291.021 272.975 348.811 266.037C406.602 259.099 445.3 223.209 443.12 205.979C440.94 188.748 393.733 191.574 335.942 198.512Z" fill="url(#paint2_linear_1023_3428)"/>
    <g style="mix-blend-mode:overlay">
      <path d="M303.307 241.711L249.77 248.081L251.732 249.218L264.034 247.742C270.654 246.928 277.374 247.401 283.805 249.134C290.236 250.867 296.25 253.825 301.499 257.837L312.951 266.519L315.066 266.693L302.212 256.929C294.102 250.736 284.274 247.047 273.994 246.337L303.444 242.8C308.04 242.237 312.705 242.567 317.169 243.772C321.633 244.976 325.808 247.031 329.451 249.817L350.521 265.801L352.102 265.588L330.221 248.925C326.449 246.047 322.127 243.927 317.507 242.688C312.886 241.45 308.06 241.118 303.307 241.711Z" fill="white"/>
      <path d="M306.119 208.639L311.792 201.622L310.098 201.859L305.235 207.945C302.393 211.511 298.852 214.492 294.817 216.715C290.783 218.939 286.336 220.36 281.733 220.897L234.356 226.588L233.992 227.756L281.879 222.018C286.627 221.458 291.213 219.987 295.374 217.691C299.534 215.395 303.186 212.318 306.119 208.639Z" fill="white"/>
      <path d="M375.725 240.827L366.179 233.574C366.366 233.138 366.4 232.654 366.276 232.197C366.152 231.741 365.877 231.336 365.493 231.047C365.11 230.758 364.639 230.601 364.154 230.599C363.669 230.597 363.197 230.751 362.811 231.037C362.424 231.323 362.146 231.725 362.018 232.18C361.89 232.636 361.921 233.12 362.104 233.557C362.287 233.995 362.614 234.361 363.032 234.599C363.451 234.838 363.939 234.935 364.42 234.876C364.802 234.827 365.165 234.682 365.473 234.458L375.401 242.003L390.353 240.204L402.672 249.565L403.774 248.981L390.686 239.035L375.725 240.827Z" fill="white"/>
      <path d="M426.96 212.096L437.811 198.567L436.75 197.96L426.052 211.378C423.177 214.983 419.597 217.997 415.519 220.246C411.44 222.495 406.944 223.934 402.291 224.48L395.888 225.27L386.488 218.118C385.689 217.523 384.852 216.978 383.983 216.485L394.738 215.19C398.721 214.722 402.57 213.49 406.061 211.565C409.552 209.64 412.618 207.06 415.079 203.974L422.965 194.131L421.619 193.958L414.163 203.28C411.797 206.251 408.849 208.736 405.489 210.589C402.129 212.443 398.426 213.628 394.592 214.077L382.233 215.561C378.234 213.681 373.762 212.966 369.355 213.501L343.989 216.548L344.257 216.256L361.835 195.639L360.214 195.797L343.382 215.53C336.087 224.111 325.692 229.642 314.336 230.984L239.178 240.014L240.183 241.024L314.474 232.105C325.382 230.804 335.448 225.731 342.839 217.811L369.477 214.653C373.749 214.128 378.084 214.842 381.941 216.706V216.761H382.03C383.346 217.404 384.592 218.174 385.75 219.058L415.736 241.798L416.708 241.135L397.185 226.296L402.437 225.664C407.242 225.094 411.884 223.601 416.094 221.272C420.303 218.943 423.996 215.824 426.96 212.096Z" fill="white"/>
      <path d="M354.655 249.02C354.608 248.595 354.432 248.193 354.15 247.865C353.868 247.537 353.492 247.299 353.07 247.18C352.649 247.061 352.2 247.067 351.782 247.197C351.363 247.327 350.994 247.575 350.721 247.91C350.449 248.245 350.284 248.652 350.249 249.078C350.214 249.504 350.31 249.931 350.525 250.304C350.74 250.677 351.064 250.979 351.456 251.172C351.848 251.365 352.29 251.44 352.726 251.388C353.166 251.343 353.58 251.164 353.909 250.875L368.926 262.288L370.328 261.933L354.549 249.936C354.649 249.641 354.685 249.329 354.655 249.02Z" fill="white"/>
      <path d="M372.921 248.546L346.745 228.577C346.932 228.141 346.966 227.657 346.842 227.201C346.718 226.744 346.443 226.34 346.059 226.051C345.676 225.762 345.205 225.604 344.72 225.602C344.235 225.6 343.763 225.754 343.377 226.04C342.991 226.326 342.712 226.728 342.584 227.184C342.457 227.64 342.487 228.124 342.67 228.561C342.854 228.998 343.18 229.364 343.599 229.603C344.017 229.841 344.505 229.938 344.986 229.879C345.367 229.833 345.728 229.689 346.032 229.461L372.581 249.723L387.541 247.923L394.835 253.377L396.01 252.848L387.906 246.755L372.921 248.546Z" fill="white"/>
    </g>
  </g>
  <g opacity="0.4">
    <path d="M115.671 190.421C173.008 200.303 219.007 210.943 215.903 228.016C212.799 245.089 156.524 267.071 99.203 257.22C41.8821 247.37 5.19456 209.523 8.25794 192.434C11.3213 175.346 58.3337 180.539 115.671 190.421Z" fill="url(#paint3_linear_1023_3428)"/>
    <g style="mix-blend-mode:overlay">
      <path d="M145.932 235.23L199.046 244.323L197.028 245.357L184.824 243.258C178.256 242.108 171.519 242.238 165.004 243.641C158.488 245.043 152.322 247.689 146.864 251.427L134.959 259.533L132.843 259.596L146.207 250.503C154.637 244.731 164.649 241.551 174.953 241.371L145.745 236.335C141.187 235.537 136.512 235.627 131.989 236.6C127.467 237.572 123.188 239.409 119.399 242.002L97.5173 256.897L95.9451 256.605L118.718 241.087C122.63 238.404 127.05 236.505 131.721 235.499C136.393 234.494 141.223 234.402 145.932 235.23Z" fill="white"/>
      <path d="M144.935 202.08L139.667 194.778L141.345 195.102L145.883 201.417C148.526 205.121 151.898 208.277 155.803 210.702C159.708 213.127 164.068 214.773 168.631 215.545L215.636 223.651L215.935 224.835L168.437 216.658C163.725 215.861 159.222 214.162 155.188 211.66C151.154 209.158 147.669 205.901 144.935 202.08Z" fill="white"/>
      <path d="M73.6668 230.644L83.5944 223.88C83.4573 223.53 83.4208 223.151 83.4891 222.783C83.5648 222.363 83.7667 221.974 84.0694 221.666C84.372 221.358 84.7617 221.144 85.1891 221.052C85.6166 220.96 86.0625 220.993 86.4705 221.148C86.8785 221.302 87.2302 221.571 87.4811 221.921C87.732 222.27 87.8709 222.684 87.8801 223.111C87.8892 223.537 87.7683 223.956 87.5326 224.316C87.297 224.675 86.9571 224.958 86.5561 225.129C86.1551 225.3 85.7111 225.352 85.28 225.277C84.8992 225.213 84.5435 225.049 84.2508 224.803L73.9342 231.836L59.0954 229.279L46.2909 237.961L45.2211 237.322L58.8199 228.055L73.6668 230.644Z" fill="white"/>
      <path d="M24.0448 199.333L13.9389 185.267L15.0329 184.715L24.993 198.685C27.6662 202.435 31.0771 205.631 35.028 208.088C38.9788 210.544 43.3911 212.212 48.0089 212.995L54.3625 214.085L64.1362 207.431C64.9674 206.876 65.8335 206.372 66.7295 205.923L56.0563 204.084C52.0996 203.413 48.3192 201.983 44.9345 199.877C41.5498 197.772 38.6281 195.032 36.3389 191.818L28.9964 181.557L30.3499 181.455L37.2871 191.14C39.49 194.228 42.3006 196.86 45.5559 198.883C48.8112 200.906 52.4464 202.28 56.2508 202.924L68.5205 205.039C72.6141 203.366 77.117 202.881 81.4872 203.642L106.61 207.975C106.529 207.873 106.44 207.778 106.359 207.668L89.9155 186.183L91.5364 186.427L107.283 206.997C114.104 215.942 124.185 222.001 135.453 223.927L210.011 236.777L208.958 237.74L135.25 225.032C124.413 223.181 114.619 217.598 107.656 209.301L81.2279 204.747C76.9884 204.006 72.6187 204.501 68.6664 206.168V206.215H68.5773C67.2301 206.793 65.9437 207.496 64.7359 208.315L33.6077 229.5L32.6758 228.781L52.9362 214.961L47.7171 214.061C42.97 213.245 38.4351 211.524 34.3728 208.996C30.3104 206.469 26.8005 203.185 24.0448 199.333Z" fill="white"/>
      <path d="M94.2675 239.903C94.3545 239.431 94.6009 239.002 94.9675 238.682C95.3341 238.363 95.7999 238.172 96.2908 238.14C96.7816 238.109 97.2692 238.238 97.6761 238.507C98.0829 238.776 98.3857 239.17 98.536 239.626C98.6864 240.083 98.6757 240.575 98.5058 241.024C98.3358 241.474 98.0163 241.855 97.5982 242.107C97.1801 242.36 96.6873 242.469 96.1983 242.417C95.7093 242.365 95.2521 242.155 94.8996 241.821L79.291 252.453L77.9052 252.027L94.3162 240.85C94.2224 240.543 94.2057 240.218 94.2675 239.903Z" fill="white"/>
      <path d="M76.0494 238.498L103.263 219.886C103.126 219.537 103.09 219.157 103.158 218.789C103.234 218.369 103.436 217.981 103.738 217.672C104.041 217.364 104.431 217.151 104.858 217.058C105.285 216.966 105.731 216.999 106.139 217.154C106.547 217.309 106.899 217.578 107.15 217.927C107.401 218.277 107.54 218.691 107.549 219.117C107.558 219.543 107.437 219.963 107.201 220.322C106.966 220.681 106.626 220.964 106.225 221.136C105.824 221.307 105.38 221.358 104.949 221.283C104.57 221.221 104.217 221.057 103.928 220.81L76.3168 239.682L61.4618 237.125L53.9168 242.2L52.7661 241.608L61.1944 235.941L76.0494 238.498Z" fill="white"/>
    </g>
  </g>
  <path d="M289.189 239.785C290.137 239.706 291.175 239.611 292.18 239.509C293.184 239.406 294.198 239.287 295.202 239.153C297.212 238.901 299.206 238.603 301.183 238.261C303.161 237.914 305.098 237.511 307.002 237.069C308.907 236.627 310.73 236.075 312.456 235.491C313.279 235.208 314.153 235.095 315.023 235.161C315.892 235.226 316.738 235.469 317.506 235.872C318.274 236.275 318.946 236.831 319.48 237.503C320.014 238.174 320.398 238.948 320.607 239.773C320.815 240.598 320.844 241.456 320.692 242.293C320.539 243.129 320.208 243.925 319.721 244.63C319.233 245.334 318.6 245.931 317.861 246.383C317.122 246.835 316.294 247.13 315.43 247.252H315.341C313.015 247.567 310.754 247.757 308.518 247.859C306.281 247.962 304.093 247.962 301.921 247.915C299.749 247.867 297.585 247.765 295.437 247.623C294.36 247.551 293.29 247.465 292.196 247.37C291.102 247.275 290.072 247.173 288.954 247.038C288.028 246.942 287.172 246.513 286.554 245.834C285.937 245.155 285.602 244.276 285.615 243.369C285.628 242.462 285.988 241.592 286.626 240.931C287.263 240.269 288.131 239.863 289.059 239.793L289.189 239.785Z" fill="#141414"/>
  <path d="M276.903 265.745L278.151 266.227L279.326 266.716C280.137 267.04 280.874 267.379 281.644 267.726C283.176 268.421 284.683 269.155 286.182 269.936C289.217 271.505 292.141 273.269 294.935 275.217C296.353 276.211 297.747 277.277 299.1 278.429C300.488 279.594 301.796 280.846 303.015 282.178C305.744 285.044 307.862 288.408 309.247 292.076L309.303 292.234C309.592 292.987 309.724 293.789 309.691 294.592C309.659 295.395 309.463 296.184 309.115 296.913C308.767 297.642 308.274 298.297 307.664 298.838C307.054 299.38 306.34 299.799 305.563 300.069C304.786 300.34 303.961 300.458 303.137 300.416C302.313 300.374 301.506 300.172 300.762 299.824C300.018 299.475 299.353 298.986 298.805 298.385C298.256 297.784 297.836 297.083 297.569 296.323C297.468 296.052 297.387 295.775 297.326 295.494C296.774 293.15 295.743 290.938 294.295 288.99C293.508 287.864 292.644 286.791 291.709 285.778C290.745 284.709 289.725 283.69 288.654 282.723C286.438 280.714 284.088 278.85 281.62 277.143C280.372 276.274 279.094 275.44 277.786 274.641C277.138 274.238 276.482 273.851 275.825 273.464L274.837 272.904L273.888 272.383L273.702 272.281C272.886 271.825 272.277 271.087 271.997 270.213C271.717 269.338 271.786 268.394 272.191 267.567C272.596 266.741 273.306 266.094 274.18 265.756C275.054 265.418 276.026 265.414 276.903 265.745Z" fill="#141414"/>
  <path d="M143.127 401.656C140.696 412.548 143.5 428.618 147.39 429.455C151.28 430.292 160.819 416.889 163.291 406.005C165.762 395.12 160.243 390.858 156.345 390.013C152.447 389.169 145.607 390.763 143.127 401.656Z" fill="#141414"/>
  <path d="M198.179 287.411L198.122 287.49L198.001 287.632L197.758 287.932L197.247 288.595C196.915 289.077 196.566 289.527 196.242 290.024C195.918 290.521 195.578 291.003 195.262 291.508L194.313 293.039C193.09 295.115 191.882 297.246 190.837 299.432C188.644 303.829 186.688 308.334 184.977 312.93C184.062 315.211 183.284 317.563 182.465 319.883C182.254 320.46 182.06 321.051 181.873 321.636L181.314 323.404L180.188 326.932L178.129 334.036L176.241 341.218V341.352C176.039 342.123 175.684 342.848 175.195 343.484C174.706 344.121 174.092 344.658 173.39 345.064C172.688 345.47 171.911 345.737 171.103 345.851C170.294 345.964 169.471 345.922 168.68 345.725C167.889 345.529 167.145 345.183 166.491 344.706C165.837 344.23 165.286 343.633 164.869 342.949C164.452 342.265 164.178 341.508 164.061 340.721C163.945 339.933 163.988 339.132 164.19 338.361C164.19 338.203 164.279 338.037 164.328 337.895L166.889 330.61L169.636 323.388L171.111 319.804L171.849 318.021C172.092 317.421 172.343 316.829 172.619 316.237C173.68 313.869 174.685 311.501 175.86 309.133C178.075 304.421 180.534 299.821 183.227 295.352C184.58 293.102 186.039 290.892 187.571 288.722L188.77 287.143C189.167 286.606 189.581 286.077 190.018 285.564C190.456 285.051 190.902 284.507 191.347 283.986L192.069 283.196C192.19 283.062 192.328 282.92 192.466 282.786L192.66 282.573L192.936 282.312C193.594 281.636 194.494 281.233 195.449 281.188C196.405 281.142 197.341 281.458 198.064 282.069C198.786 282.68 199.238 283.539 199.326 284.466C199.414 285.394 199.131 286.319 198.536 287.048L198.179 287.411Z" fill="#141414"/>
  <path d="M142.649 381.386C139.497 394.355 145.081 402.626 149.133 406.707C150.2 407.777 151.558 408.528 153.049 408.87C154.539 409.213 156.099 409.133 157.545 408.641C163.056 406.77 171.84 401.813 174.993 388.837C178.786 373.217 179.653 349.372 175.236 339.529C174.142 337.098 173.032 335.275 171.265 334.864C169.498 334.454 167.472 335.409 165.527 336.885C156.953 343.405 146.507 365.513 142.649 381.386Z" fill="url(#paint4_linear_1023_3428)"/>
  <g style="mix-blend-mode:overlay" opacity="0.5">
    <path d="M151.499 365.348C150.875 366.816 151.062 368.284 151.929 368.631C152.796 368.978 153.995 368.079 154.619 366.61C155.243 365.142 155.049 363.674 154.182 363.327C153.314 362.98 152.123 363.887 151.499 365.348Z" fill="white"/>
  </g>
  <g style="mix-blend-mode:overlay">
    <path d="M172.181 335.172C173.235 335.914 173.988 337.446 174.71 339.387C178.348 349.19 177.003 372.988 173.275 388.64C170.179 401.64 162.335 406.699 157.432 408.633C157.152 408.739 156.865 408.826 156.572 408.894C172.319 382.057 171.33 334.77 171.33 334.77L172.181 335.172Z" fill="#4D4D4D"/>
  </g>
  <g style="mix-blend-mode:overlay" opacity="0.5">
    <path d="M146.175 380.463C144.87 385.696 145.218 390.274 146.985 390.724C148.752 391.174 150.04 387.251 151.337 382.041C152.634 376.832 153.444 372.206 151.702 371.78C149.959 371.354 147.471 375.222 146.175 380.463Z" fill="white"/>
  </g>
  <path d="M310.973 404.931C314.15 415.642 312.367 431.854 308.542 432.936C304.717 434.017 294.328 421.23 291.143 410.512C287.958 399.793 293.201 395.207 297.034 394.133C300.868 393.06 307.829 394.212 310.973 404.931Z" fill="#141414"/>
  <path d="M256.408 279.676C256.732 280.008 256.967 280.268 257.218 280.552C257.469 280.837 257.721 281.105 257.98 281.342C258.491 281.894 258.969 282.455 259.455 283.015C259.941 283.575 260.403 284.144 260.873 284.704C261.343 285.265 261.813 285.841 262.251 286.417L263.596 288.153C264.05 288.73 264.471 289.322 264.901 289.906L266.198 291.674L267.438 293.465C270.728 298.264 273.758 303.228 276.514 308.336C277.195 309.615 277.835 310.909 278.508 312.204L279.497 314.137L280.412 316.111L282.252 320.057L283.946 324.067L284.756 326.072C285.032 326.743 285.275 327.421 285.567 328.1L287.098 332.173L287.479 333.191L287.82 334.225L288.5 336.285L289.87 340.421C290.12 341.178 290.215 341.976 290.148 342.769C290.082 343.562 289.855 344.334 289.483 345.042C289.11 345.749 288.597 346.378 287.975 346.893C287.352 347.408 286.632 347.799 285.854 348.042C285.077 348.286 284.258 348.378 283.444 348.313C282.63 348.248 281.837 348.028 281.11 347.665C280.384 347.302 279.738 346.803 279.209 346.196C278.681 345.59 278.28 344.888 278.03 344.131C277.982 343.999 277.941 343.865 277.908 343.728L277.851 343.492L276.863 339.545L276.368 337.572L276.117 336.585L275.833 335.607L274.683 331.66C274.48 331.013 274.302 330.35 274.091 329.702L273.443 327.769L272.13 323.901L270.679 320.081L269.95 318.163L269.139 316.276C268.605 315.021 268.086 313.759 267.519 312.511C265.281 307.526 262.779 302.658 260.022 297.925L258.977 296.157L257.891 294.42C257.526 293.844 257.17 293.252 256.789 292.684L255.654 290.987C255.281 290.411 254.844 289.858 254.487 289.306C254.131 288.753 253.677 288.193 253.296 287.656C252.915 287.119 252.485 286.559 252.08 286.078C251.869 285.817 251.667 285.541 251.464 285.288L250.881 284.578L250.759 284.436C250.16 283.707 249.873 282.781 249.957 281.851C250.04 280.921 250.488 280.058 251.208 279.442C251.928 278.825 252.864 278.502 253.821 278.54C254.779 278.578 255.685 278.973 256.351 279.645L256.408 279.676Z" fill="#141414"/>
  <path d="M311.938 385.199C315.123 398.167 309.571 406.447 305.511 410.535C304.448 411.609 303.092 412.363 301.603 412.71C300.114 413.057 298.554 412.982 297.107 412.493C291.588 410.63 282.795 405.689 279.61 392.76C275.785 377.14 274.869 353.295 279.262 343.452C280.348 341.021 281.458 339.19 283.216 338.779C284.975 338.369 287.017 339.316 288.97 340.792C297.553 347.209 308.048 369.294 311.938 385.199Z" fill="url(#paint5_linear_1023_3428)"/>
  <g style="mix-blend-mode:overlay">
    <path d="M282.309 339.016C281.255 339.75 280.51 341.29 279.788 343.223C276.166 353.042 277.568 376.832 281.328 392.484C284.448 405.468 292.309 410.52 297.212 412.438C297.492 412.545 297.779 412.635 298.071 412.706C282.268 385.925 283.16 338.606 283.16 338.606L282.309 339.016Z" fill="#4D4D4D"/>
  </g>
  <g style="mix-blend-mode:overlay" opacity="0.5">
    <path d="M307.618 383.533C308.955 388.68 308.647 393.186 306.937 393.605C305.227 394.023 303.898 390.211 302.569 385.064C301.24 379.918 300.405 375.396 302.115 374.977C303.825 374.559 306.289 378.387 307.618 383.533Z" fill="white"/>
  </g>
  <g style="mix-blend-mode:overlay" opacity="0.5">
    <path d="M302.059 369.034C302.545 370.518 302.229 371.946 301.354 372.191C300.478 372.436 299.368 371.473 298.922 369.981C298.477 368.489 298.752 367.068 299.627 366.824C300.503 366.579 301.58 367.542 302.059 369.034Z" fill="white"/>
  </g>
  <path d="M264.293 305.021C265.492 333.349 237.079 367.542 228.027 367.873C218.975 368.205 187.749 336.222 186.55 307.886C185.35 279.55 202.199 266.053 223.667 265.263C245.135 264.474 263.086 276.693 264.293 305.021Z" fill="url(#paint6_radial_1023_3428)"/>
  <g style="mix-blend-mode:overlay" opacity="0.5">
    <path d="M225.166 359.152C226.673 360.73 227.111 362.696 226.147 363.485C225.182 364.274 223.172 363.619 221.665 362.009C220.158 360.399 219.72 358.465 220.692 357.676C221.665 356.886 223.65 357.573 225.166 359.152Z" fill="white"/>
  </g>
  <path d="M262.948 294.563C263.515 321.06 187.579 323.649 186.995 297.365C186.995 297.365 179.823 310.83 194.597 330.808C210.344 352.119 244.673 347.872 257.631 328.337C269.536 310.38 262.948 294.563 262.948 294.563Z" fill="#141414"/>
  <g style="mix-blend-mode:overlay">
    <path d="M261.132 292.763C261.132 292.763 270.347 330.745 230.831 366.034C230.839 366.034 255.492 336.128 261.132 292.763Z" fill="#4D4D4D"/>
  </g>
  <g style="mix-blend-mode:overlay">
    <path d="M188.916 302.455C188.916 302.455 186.258 330.515 214.201 353.989C214.201 353.989 195.351 332.047 188.916 302.455Z" fill="#4D4D4D"/>
  </g>
  <g style="mix-blend-mode:overlay">
    <path d="M225.166 304.342C252.218 303.34 259.933 286.283 259.933 286.283C259.933 286.283 259.933 286.141 260.038 285.88C253.32 271.16 239.446 264.703 223.651 265.287C207.718 265.871 194.33 273.464 188.973 288.966C189.022 289.203 189.054 289.337 189.054 289.337C189.054 289.337 198.139 305.337 225.166 304.342Z" fill="#4D4D4D"/>
  </g>
  <path d="M278.459 271.231C275.217 277.158 269.399 280.292 265.428 278.24C261.457 276.188 260.857 269.723 264.082 263.803C267.308 257.883 273.151 254.742 277.114 256.794C281.077 258.846 281.685 265.311 278.459 271.231Z" fill="#141414"/>
  <path d="M171.565 271.231C174.807 277.158 180.626 280.292 184.597 278.24C188.568 276.188 189.167 269.723 185.942 263.803C182.716 257.883 176.873 254.742 172.91 256.794C168.948 258.846 168.34 265.311 171.565 271.231Z" fill="#141414"/>
  <path d="M155.405 248.317C157.836 257.118 165.941 262.651 173.55 260.67C181.16 258.689 185.35 249.943 182.935 241.142C180.52 232.342 172.4 226.808 164.79 228.79C157.18 230.771 152.99 239.508 155.405 248.317Z" fill="#141414"/>
  <path d="M294.687 248.268C297.121 239.408 292.932 230.619 285.331 228.639C277.73 226.658 269.595 232.234 267.161 241.095C264.726 249.955 268.915 258.743 276.516 260.724C284.117 262.705 292.252 257.128 294.687 248.268Z" fill="#141414"/>
  <path d="M225.012 298.635C233.205 298.635 248.093 295.478 257.429 284.657C252.048 270.126 239.211 260.496 225.012 260.496C210.814 260.496 198.163 269.841 192.595 284.657C201.931 295.502 217.062 298.635 225.012 298.635Z" fill="#141414"/>
  <path d="M225.012 261.025C239.211 261.025 251.488 269.644 257.429 284.854C273.637 284.854 284.748 235.562 284.748 229.776C284.748 220.699 258.004 213.335 225.012 213.335C192.02 213.335 165.276 220.699 165.276 229.776C165.276 235.562 178.713 284.854 192.595 284.854C198.536 269.644 210.813 261.025 225.012 261.025Z" fill="url(#paint7_radial_1023_3428)"/>
  <g style="mix-blend-mode:overlay">
    <path d="M193.503 282.147C200.148 269.06 211.243 261.088 225.109 261.088C238.976 261.088 249.284 268.721 256.675 282.147C267.875 282.147 276.563 260.291 280.671 245.744C273.84 260.385 263.596 260.954 251.01 258.247C249.389 257.894 247.852 257.523 246.399 257.134C232.595 253.311 217.974 253.292 204.16 257.078C202.928 257.426 201.64 257.749 200.27 258.065C181.185 262.438 173.445 257.323 169.263 243.51C173.575 257.931 183.413 282.147 193.503 282.147Z" fill="#4D4D4D"/>
  </g>
  <g style="mix-blend-mode:overlay">
    <path fill-rule="evenodd" clip-rule="evenodd" d="M224.234 261.025V218.434H225.79V261.025H224.234Z" fill="#4D4D4D"/>
  </g>
  <g style="mix-blend-mode:overlay">
    <path d="M189.97 216.453C192.004 219.886 206.381 230.763 224.923 230.763C242.752 230.763 258.385 220.1 261.392 216.871C251.318 213.564 238.7 211.599 225.044 211.599C211.916 211.599 199.816 213.398 189.97 216.453Z" fill="#4D4D4D"/>
  </g>
  <path d="M255.913 211.599C255.913 218.702 242.395 227.014 224.923 227.014C207.45 227.014 192.644 218.694 192.644 211.599C192.644 204.503 206.81 198.733 224.25 198.733C241.69 198.733 255.913 204.495 255.913 211.599Z" fill="#141414"/>
  <path d="M170.188 61.9617L170.107 61.275L170.001 60.4857C169.92 59.9805 169.839 59.4675 169.742 58.9624C169.555 57.9442 169.329 56.9259 169.069 55.9156C168.568 53.8945 167.951 51.9024 167.221 49.9484C166.495 48.0108 165.653 46.1159 164.701 44.2733C163.771 42.4476 162.709 40.6884 161.524 39.0087C159.228 35.6896 156.421 32.7346 153.201 30.2474C152.815 29.9301 152.412 29.6324 151.994 29.3555C151.58 29.0713 151.183 28.7713 150.754 28.5029C149.895 27.982 149.06 27.4295 148.16 26.9796C146.396 26.0259 144.563 25.2001 142.674 24.5091L146.199 16.1188C148.47 17.1111 150.661 18.2667 152.756 19.5759C153.817 20.2074 154.806 20.9493 155.811 21.6597C156.313 22.0149 156.783 22.449 157.261 22.7963C157.74 23.1436 158.226 23.5856 158.672 23.9802C162.316 27.1835 165.437 30.9099 167.927 35.0305C169.151 37.0625 170.234 39.172 171.168 41.345C172.108 43.489 172.92 45.6843 173.599 47.9199C174.269 50.1355 174.81 52.386 175.22 54.6606C175.423 55.7972 175.601 56.9417 175.731 58.094C175.804 58.6702 175.86 59.2465 175.909 59.8306L175.974 60.7146C175.974 61.0224 175.974 61.2908 176.023 61.6617L170.188 61.9617Z" fill="#141414"/>
  <path d="M135.703 32.3138C144.578 31.7549 151.307 24.2946 150.733 15.6509C150.159 7.00721 142.5 0.453228 133.625 1.01219C124.75 1.57116 118.02 9.0314 118.594 17.6751C119.168 26.3188 126.828 32.8728 135.703 32.3138Z" fill="#141414"/>
  <path d="M271.36 61.1173C271.36 60.7463 271.36 60.4779 271.417 60.1701L271.49 59.2861C271.546 58.702 271.611 58.1258 271.684 57.5496C271.83 56.4051 272.016 55.2607 272.235 54.1241C272.673 51.8545 273.235 49.6096 273.921 47.3992C274.601 45.1717 275.413 42.9843 276.352 40.8479C277.312 38.6902 278.422 36.599 279.675 34.5887C282.201 30.4781 285.358 26.7676 289.035 23.5857C289.489 23.1753 289.975 22.7964 290.462 22.4176C290.948 22.0387 291.418 21.6282 291.92 21.2967C292.933 20.5942 293.93 19.8602 295 19.2445C297.106 17.9541 299.308 16.8196 301.589 15.8506L305.033 24.2803C303.134 24.9505 301.289 25.7579 299.514 26.6957C298.614 27.1377 297.772 27.6822 296.913 28.1874C296.483 28.4557 296.102 28.7557 295.664 29.032C295.241 29.3035 294.833 29.5959 294.441 29.9081C291.2 32.3668 288.366 35.295 286.037 38.5905C284.833 40.2599 283.75 42.0084 282.795 43.8236C281.821 45.6556 280.96 47.5428 280.218 49.475C279.47 51.4234 278.831 53.4101 278.305 55.4263C278.038 56.4288 277.803 57.447 277.608 58.4652C277.503 58.9704 277.414 59.4834 277.333 59.9886L277.219 60.7779L277.13 61.4725L271.36 61.1173Z" fill="#141414"/>
  <path class="red" d="M270.549 220.542L175.277 220.076C125.55 219.839 100.662 187.714 100.905 139.322C101.156 90.8822 126.368 59.0415 176.103 59.2862L271.368 59.744C321.095 59.9887 345.983 92.0661 345.74 140.506C345.465 188.938 320.252 220.778 270.549 220.542Z" fill="url(#paint8_radial_1023_3428)"/>
  <g style="mix-blend-mode:overlay">
    <path d="M269.22 206.626L175.901 206.176C129.707 205.947 105.824 173.688 103.636 131.981C103.498 134.254 103.401 136.551 103.393 138.903C103.158 184.502 127.543 214.677 176.257 214.945L269.577 215.395C318.291 215.632 342.977 185.662 343.212 140.064C343.212 137.696 343.155 135.407 343.033 133.142C340.424 174.825 315.414 206.815 269.22 206.626Z" fill="#4D4D4D"/>
  </g>
  <path d="M178.162 201.519C158.574 201.424 145.121 195.544 137.017 183.555C130.161 173.404 127.016 158.62 127.13 136.985C127.243 115.351 130.534 100.677 137.487 90.5505C145.713 78.6399 159.231 72.8937 178.818 72.9885L268.442 73.4226C288.022 73.5173 301.483 79.3898 309.587 91.3872C316.443 101.538 319.58 116.321 319.474 137.956C319.369 159.591 316.071 174.264 309.109 184.383C300.891 196.302 287.366 202.048 267.778 201.953L178.162 201.519Z" fill="url(#paint9_radial_1023_3428)"/>
  <path d="M178.162 198.67C139.262 198.488 129.853 174.912 130.039 137.041C130.226 99.1696 139.902 75.6799 178.794 75.8693L268.41 76.3035C307.31 76.4929 316.727 100.069 316.532 137.94C316.338 175.811 306.67 199.293 267.786 199.104L178.162 198.67Z" fill="#141414"/>
  <path d="M211.065 140.869C211.875 138.935 216.778 138.106 221.349 138.13C225.92 138.154 230.442 139.069 231.536 140.869C232.054 141.729 231.763 143.158 231.649 144.073C231.421 145.856 231.041 147.617 230.515 149.338C229.34 153.364 226.365 158.352 221.211 158.32C217.621 158.32 214.379 155.55 213.107 152.598C212.192 150.308 211.542 147.925 211.17 145.494C210.919 144.066 210.505 142.242 211.065 140.869Z" fill="#00EEFF"/>
  <path d="M275.962 160.164C286.9 160.067 295.652 147.561 295.509 132.23C295.366 116.9 286.383 104.55 275.445 104.647C264.506 104.743 255.754 117.25 255.897 132.58C256.04 147.911 265.023 160.261 275.962 160.164Z" fill="url(#paint10_linear_1023_3428)"/>
  <path d="M171.084 159.504C182.022 159.408 190.774 146.901 190.631 131.571C190.488 116.24 181.505 103.89 170.567 103.987C159.628 104.084 150.877 116.59 151.02 131.921C151.162 147.252 160.146 159.601 171.084 159.504Z" fill="url(#paint11_linear_1023_3428)"/>
  <path opacity="0.7" d="M282.503 146.315C285.745 141.753 286.239 138.232 288.484 138.556C291.134 138.935 290.332 144.681 287.122 149.243C283.913 153.805 280.031 155.866 278.159 154.611C276.287 153.356 279.294 150.877 282.503 146.315Z" fill="white"/>
  <path opacity="0.7" d="M291.944 132.178C291.922 132.649 291.757 133.102 291.469 133.48C291.181 133.858 290.785 134.144 290.329 134.302C289.874 134.459 289.38 134.481 288.912 134.364C288.444 134.247 288.022 133.997 287.701 133.646C287.379 133.295 287.173 132.858 287.107 132.391C287.041 131.925 287.12 131.45 287.333 131.028C287.545 130.605 287.883 130.254 288.301 130.019C288.72 129.784 289.201 129.676 289.683 129.708C290.317 129.751 290.908 130.033 291.331 130.495C291.753 130.956 291.973 131.561 291.944 132.178Z" fill="white"/>
  <path opacity="0.7" d="M178.259 145.66C181.501 141.098 181.995 137.577 184.24 137.901C186.89 138.28 186.087 144.026 182.878 148.588C179.669 153.15 175.787 155.21 173.915 153.955C172.043 152.7 175.05 150.222 178.259 145.66Z" fill="white"/>
  <path opacity="0.7" d="M187.7 131.523C187.678 131.993 187.513 132.447 187.225 132.825C186.937 133.203 186.541 133.489 186.085 133.646C185.63 133.804 185.136 133.826 184.668 133.709C184.2 133.592 183.778 133.342 183.457 132.991C183.135 132.639 182.928 132.203 182.863 131.736C182.797 131.27 182.876 130.795 183.089 130.373C183.301 129.95 183.639 129.599 184.057 129.364C184.476 129.129 184.957 129.02 185.439 129.053C186.073 129.095 186.664 129.378 187.087 129.839C187.509 130.301 187.729 130.905 187.7 131.523Z" fill="white"/>
  <g style="mix-blend-mode:overlay" opacity="0.5">
    <path d="M161.265 66.761C163.923 70.3366 152.131 71.3468 141.004 79.1373C129.877 86.9278 123.702 98.5622 121.052 94.9787C118.402 91.3953 123.629 80.7712 134.724 72.9571C145.818 65.1429 158.615 63.1618 161.265 66.761Z" fill="white"/>
  </g>
  <g style="mix-blend-mode:overlay" opacity="0.5">
    <path d="M121.522 107.418C121.517 108.328 121.235 109.216 120.712 109.971C120.189 110.725 119.448 111.311 118.583 111.655C117.718 111.999 116.767 112.085 115.852 111.903C114.936 111.721 114.096 111.278 113.439 110.631C112.782 109.985 112.336 109.162 112.158 108.269C111.981 107.375 112.079 106.451 112.441 105.612C112.803 104.772 113.413 104.057 114.192 103.555C114.972 103.053 115.887 102.788 116.821 102.793C117.442 102.796 118.056 102.918 118.628 103.152C119.2 103.386 119.719 103.728 120.155 104.157C120.592 104.587 120.937 105.096 121.171 105.655C121.406 106.215 121.525 106.814 121.522 107.418Z" fill="white"/>
  </g>
  <g style="mix-blend-mode:overlay" opacity="0.5">
    <path d="M180.082 250.03C181.063 251.609 181.112 253.361 180.188 253.898C179.264 254.434 177.757 253.582 176.735 251.98C175.714 250.377 175.706 248.649 176.63 248.104C177.554 247.559 179.094 248.428 180.082 250.03Z" fill="white"/>
  </g>
  <g style="mix-blend-mode:overlay" opacity="0.5">
    <path d="M174.393 238.388C175.86 242.334 176.541 245.602 175.325 246.036C174.11 246.47 171.954 243.668 170.463 239.722C168.972 235.775 168.785 232.286 169.993 231.829C171.2 231.371 172.918 234.496 174.393 238.388Z" fill="white"/>
  </g>
  <path d="M361.259 243.774C362.665 229.125 351.612 216.14 336.572 214.771C321.531 213.402 308.199 224.167 306.793 238.815C305.388 253.464 316.441 266.449 331.481 267.818C346.521 269.187 359.853 258.422 361.259 243.774Z" fill="url(#paint12_radial_1023_3428)"/>
  <g style="mix-blend-mode:overlay">
    <path d="M351.625 247.244C358.479 238.824 357.028 226.586 348.383 219.91C339.737 213.234 327.172 214.648 320.318 223.068C313.463 231.488 314.915 243.726 323.56 250.402C332.205 257.078 344.77 255.664 351.625 247.244Z" fill="#4D4D4D"/>
  </g>
  <path d="M358.22 221.97C357.515 227.795 352.969 228.198 341.947 226.927C330.926 225.656 322.1 223.723 322.805 217.898C323.51 212.072 332.53 212.68 343.52 213.951C354.509 215.222 358.925 216.153 358.22 221.97Z" fill="#141414"/>
  <path d="M357.191 230.447C356.486 236.264 351.826 236.659 340.1 235.309C328.373 233.96 318.98 231.947 319.685 226.13C320.39 220.312 329.945 220.975 341.672 222.325C353.399 223.675 357.896 224.622 357.191 230.447Z" fill="#141414"/>
  <path d="M354.444 238.048C353.739 243.865 349.954 244.363 339.305 243.131C328.656 241.9 320.123 239.974 320.836 234.181C321.549 228.387 330.229 228.924 340.877 230.155C351.526 231.386 355.149 232.223 354.444 238.048Z" fill="#141414"/>
  <path d="M348.252 243.518C347.604 248.901 345.513 249.517 336.906 248.53C328.3 247.544 321.508 245.902 322.149 240.519C322.789 235.136 329.791 235.546 338.357 236.572C346.923 237.598 348.909 238.135 348.252 243.518Z" fill="#141414"/>
  <path d="M352.896 207.676C352.466 212.104 352.085 218.371 351.016 223.351C350.562 225.467 348.447 226.311 345.343 225.909C338.276 225.001 340.667 212.214 341.931 205.016C343.195 197.817 344.8 191.471 350.157 192.158C354.144 192.671 353.787 198.48 352.896 207.676Z" fill="#141414"/>
  <g style="mix-blend-mode:overlay">
    <path d="M322.773 251.995C322.773 251.995 332.7 259.596 343.398 254.308L345.716 263.78C345.716 263.78 331.525 272.375 315.657 259.241L322.773 251.995Z" fill="#4D4D4D"/>
  </g>
  <path d="M329.374 306.414C338.638 300.032 340.836 287.545 334.284 278.523C327.731 269.501 314.91 267.36 305.647 273.742C296.383 280.123 294.185 292.611 300.737 301.633C307.29 310.655 320.111 312.796 329.374 306.414Z" fill="url(#paint13_radial_1023_3428)"/>
  <g style="mix-blend-mode:overlay">
    <path d="M304.433 303.782C301.513 303.347 298.79 302.079 296.61 300.138C294.429 298.196 292.889 295.668 292.184 292.874C291.478 290.08 291.64 287.145 292.647 284.44C293.655 281.735 295.463 279.382 297.844 277.679C300.225 275.975 303.071 274.997 306.022 274.869C308.974 274.741 311.898 275.468 314.425 276.958C316.952 278.449 318.968 280.636 320.219 283.242C321.47 285.849 321.899 288.758 321.452 291.603C320.845 295.412 318.713 298.831 315.524 301.114C312.334 303.396 308.347 304.355 304.433 303.782Z" fill="#4D4D4D"/>
  </g>
  <path d="M323.689 280.118C323 284.452 319.637 284.641 311.395 283.41C303.153 282.179 296.645 280.505 297.326 276.172C298.006 271.839 304.709 272.517 312.918 273.749C321.128 274.98 324.369 275.785 323.689 280.118Z" fill="#141414"/>
  <path d="M322.692 286.425C322.011 290.758 318.518 290.932 309.79 289.621C301.062 288.311 294.084 286.583 294.773 282.249C295.462 277.916 302.577 278.658 311.313 279.96C320.05 281.263 323.372 282.091 322.692 286.425Z" fill="#141414"/>
  <path d="M320.439 292.061C319.75 296.394 316.914 296.662 308.98 295.478C301.046 294.294 294.733 292.653 295.413 288.319C296.094 283.986 302.577 284.633 310.503 285.817C318.429 287.001 321.12 287.704 320.439 292.061Z" fill="#141414"/>
  <path d="M315.665 296.007C315.033 300.016 313.453 300.419 307.075 299.472C300.697 298.525 295.624 297.104 296.256 293.11C296.888 289.116 302.107 289.582 308.485 290.537C314.863 291.492 316.29 291.966 315.665 296.007Z" fill="#141414"/>
  <path d="M320.09 269.297C319.644 272.596 319.207 277.269 318.267 280.963C317.87 282.541 316.265 283.118 313.947 282.739C308.688 281.878 310.819 272.383 311.953 267.032C313.088 261.68 314.458 256.976 318.437 257.631C321.419 258.12 321.006 262.446 320.09 269.297Z" fill="#141414"/>
  <g style="mix-blend-mode:overlay">
    <path d="M299.149 302.842C299.149 302.842 305.811 306.844 312.375 303.774L313.648 310.214C313.648 310.214 305.106 313.103 296.021 306.268L299.149 302.842Z" fill="#4D4D4D"/>
  </g>
  <path d="M159.247 247.07C158.112 247.204 157.067 247.307 156.005 247.401C154.943 247.496 153.857 247.583 152.763 247.654C150.608 247.796 148.452 247.899 146.28 247.946C144.108 247.993 141.912 247.946 139.683 247.891C137.455 247.836 135.185 247.599 132.859 247.283H132.778C131.159 247.036 129.704 246.179 128.728 244.897C127.751 243.615 127.33 242.011 127.557 240.43C127.783 238.849 128.638 237.418 129.938 236.445C131.238 235.473 132.878 235.036 134.505 235.23C134.915 235.288 135.32 235.383 135.712 235.514C137.438 236.106 139.278 236.635 141.166 237.093C143.054 237.551 145.016 237.938 146.985 238.285C148.954 238.632 150.956 238.924 152.974 239.177C153.979 239.311 154.984 239.422 155.997 239.532C157.01 239.643 158.031 239.729 158.979 239.808H159.101C160.029 239.878 160.898 240.283 161.536 240.944C162.174 241.604 162.536 242.474 162.55 243.381C162.564 244.288 162.23 245.168 161.613 245.847C160.996 246.527 160.14 246.957 159.214 247.054L159.247 247.07Z" fill="#141414"/>
  <path d="M174.329 272.383L173.38 272.904L172.392 273.464C171.727 273.843 171.071 274.254 170.422 274.641C169.115 275.44 167.837 276.274 166.589 277.143C164.122 278.848 161.774 280.712 159.563 282.723C158.489 283.688 157.47 284.707 156.507 285.778C155.57 286.791 154.704 287.864 153.914 288.99C152.468 290.94 151.438 293.151 150.883 295.494C150.719 296.275 150.399 297.017 149.941 297.678C149.482 298.338 148.895 298.904 148.212 299.344C147.529 299.783 146.764 300.087 145.96 300.238C145.157 300.39 144.331 300.386 143.529 300.226C142.727 300.066 141.965 299.754 141.287 299.308C140.609 298.862 140.027 298.29 139.576 297.624C139.125 296.959 138.813 296.214 138.657 295.431C138.502 294.649 138.506 293.844 138.67 293.063C138.725 292.795 138.801 292.531 138.897 292.274L138.962 292.084C140.346 288.416 142.464 285.051 145.194 282.186C146.415 280.854 147.726 279.602 149.116 278.437C150.47 277.285 151.856 276.219 153.274 275.225C156.07 273.281 158.994 271.517 162.026 269.944C163.528 269.165 165.044 268.429 166.573 267.734C167.335 267.387 168.105 267.047 168.883 266.724L170.066 266.234L171.306 265.753C172.191 265.369 173.194 265.336 174.104 265.66C175.013 265.985 175.758 266.641 176.179 267.49C176.6 268.34 176.666 269.316 176.361 270.211C176.057 271.107 175.406 271.852 174.547 272.288L174.329 272.383Z" fill="#141414"/>
  <path d="M128.38 256.555C137.745 245.08 135.786 228.382 124.004 219.261C112.221 210.139 95.0769 212.047 85.7113 223.523C76.3457 234.999 78.305 251.696 90.0876 260.818C101.87 269.939 119.014 268.031 128.38 256.555Z" fill="url(#paint14_radial_1023_3428)"/>
  <g style="mix-blend-mode:overlay">
    <path d="M124.488 250.603C133.205 244.017 134.791 231.795 128.028 223.305C121.266 214.814 108.717 213.27 99.9997 219.856C91.282 226.442 89.6967 238.664 96.4588 247.155C103.221 255.645 115.77 257.189 124.488 250.603Z" fill="#4D4D4D"/>
  </g>
  <path d="M89.9966 221.97C90.7016 227.795 95.24 228.198 106.262 226.927C117.283 225.656 126.109 223.723 125.404 217.898C124.699 212.072 115.679 212.68 104.689 213.951C93.7002 215.222 89.2915 216.153 89.9966 221.97Z" fill="#141414"/>
  <path d="M91.0177 230.447C91.7309 236.264 96.3828 236.659 108.11 235.309C119.836 233.96 129.237 231.947 128.532 226.13C127.827 220.312 118.264 220.975 106.537 222.325C94.8105 223.675 90.3127 224.622 91.0177 230.447Z" fill="#141414"/>
  <path d="M93.7649 238.048C94.47 243.865 98.2547 244.363 108.912 243.131C119.569 241.9 128.086 239.974 127.381 234.181C126.676 228.387 117.988 228.924 107.331 230.155C96.6743 231.386 93.0679 232.223 93.7649 238.048Z" fill="#141414"/>
  <path d="M99.9564 243.518C100.613 248.901 102.696 249.517 111.302 248.53C119.909 247.544 126.7 245.902 126.06 240.519C125.42 235.136 118.418 235.546 109.852 236.572C101.285 237.598 99.3081 238.135 99.9564 243.518Z" fill="#141414"/>
  <path d="M95.3209 207.676C95.7505 212.104 96.1313 218.371 97.193 223.351C97.6549 225.467 99.7701 226.311 102.866 225.909C109.933 225.001 107.542 212.214 106.278 205.016C105.014 197.817 103.417 191.471 98.052 192.158C94.0729 192.671 94.4214 198.48 95.3209 207.676Z" fill="#141414"/>
  <g style="mix-blend-mode:overlay">
    <path d="M125.242 252.011C125.242 252.011 115.314 259.604 104.616 254.324L102.307 263.795C102.307 263.795 116.497 272.391 132.365 259.257L125.242 252.011Z" fill="#4D4D4D"/>
  </g>
  <path d="M156.246 303.289C162.761 294.3 160.561 281.87 151.333 275.524C142.104 269.179 129.34 271.321 122.825 280.31C116.31 289.299 118.51 301.729 127.739 308.075C136.968 314.42 149.731 312.277 156.246 303.289Z" fill="url(#paint15_radial_1023_3428)"/>
  <g style="mix-blend-mode:overlay">
    <path d="M143.776 303.782C146.696 303.347 149.419 302.079 151.599 300.138C153.78 298.196 155.32 295.668 156.025 292.874C156.73 290.08 156.569 287.145 155.562 284.44C154.554 281.735 152.746 279.382 150.365 277.679C147.984 275.975 145.138 274.997 142.187 274.869C139.235 274.741 136.311 275.468 133.784 276.958C131.257 278.449 129.241 280.636 127.99 283.242C126.739 285.849 126.31 288.758 126.757 291.603C127.36 295.413 129.491 298.836 132.681 301.119C135.872 303.402 139.861 304.359 143.776 303.782Z" fill="#4D4D4D"/>
  </g>
  <path d="M124.528 280.118C125.209 284.452 128.58 284.641 136.822 283.41C145.064 282.179 151.572 280.505 150.883 276.172C150.194 271.839 143.5 272.517 135.299 273.749C127.097 274.98 123.864 275.785 124.528 280.118Z" fill="#141414"/>
  <path d="M125.485 286.425C126.174 290.758 129.667 290.932 138.395 289.621C147.123 288.311 154.092 286.583 153.412 282.249C152.731 277.916 145.599 278.658 136.871 279.96C128.143 281.263 124.836 282.091 125.485 286.425Z" fill="#141414"/>
  <path d="M127.778 292.061C128.459 296.394 131.303 296.662 139.229 295.478C147.155 294.294 153.476 292.653 152.796 288.319C152.115 283.986 145.64 284.633 137.706 285.817C129.772 287.001 127.106 287.704 127.778 292.061Z" fill="#141414"/>
  <path d="M132.551 296.007C133.183 300.016 134.756 300.419 141.134 299.472C147.512 298.525 152.585 297.104 151.953 293.11C151.321 289.116 146.102 289.582 139.724 290.537C133.346 291.492 131.919 291.966 132.551 296.007Z" fill="#141414"/>
  <path d="M128.126 269.297C128.564 272.596 129.002 277.269 129.942 280.963C130.347 282.541 131.952 283.118 134.261 282.739C139.521 281.878 137.398 272.383 136.255 267.032C135.112 261.68 133.751 256.976 129.772 257.631C126.789 258.12 127.211 262.446 128.126 269.297Z" fill="#141414"/>
  <g style="mix-blend-mode:overlay">
    <path d="M148.873 302.858C148.873 302.858 142.204 306.86 135.647 303.79L134.399 310.215C134.399 310.215 142.933 313.103 152.018 306.268L148.873 302.858Z" fill="#4D4D4D"/>
  </g>
  <path d="M327.019 18.0304C326.73 21.3068 325.438 24.4271 323.307 26.9966C321.175 29.5662 318.3 31.4696 315.044 32.4662C311.789 33.4627 308.299 33.5076 305.017 32.5952C301.735 31.6827 298.808 29.854 296.606 27.3401C294.404 24.8263 293.026 21.7404 292.646 18.4726C292.266 15.2048 292.901 11.9021 294.472 8.98195C296.042 6.06183 298.477 3.65553 301.469 2.06744C304.46 0.479362 307.873 -0.219221 311.277 0.0600957C313.537 0.244432 315.737 0.855589 317.751 1.8586C319.766 2.8616 321.555 4.2368 323.017 5.90565C324.479 7.5745 325.585 9.5043 326.271 11.5847C326.958 13.6651 327.212 15.8554 327.019 18.0304Z" fill="#141414"/>
  <defs>
    <linearGradient id="paint0_linear_1023_3428" x1="260.674" y1="259.378" x2="444.97" y2="107.667" gradientUnits="userSpaceOnUse">
      <stop stop-color="#0080B5"/>
      <stop offset="0.07" stop-color="#0B8CBC"/>
      <stop offset="0.37" stop-color="#3BBDD9"/>
      <stop offset="0.64" stop-color="#5DE1EE"/>
      <stop offset="0.86" stop-color="#72F7FA"/>
      <stop offset="1" stop-color="#7AFFFF"/>
    </linearGradient>
    <linearGradient id="paint1_linear_1023_3428" x1="185.77" y1="251.733" x2="2.17932" y2="99.49" gradientUnits="userSpaceOnUse">
      <stop stop-color="#0080B5"/>
      <stop offset="0.07" stop-color="#0B8CBC"/>
      <stop offset="0.37" stop-color="#3BBDD9"/>
      <stop offset="0.64" stop-color="#5DE1EE"/>
      <stop offset="0.86" stop-color="#72F7FA"/>
      <stop offset="1" stop-color="#7AFFFF"/>
    </linearGradient>
    <linearGradient id="paint2_linear_1023_3428" x1="245.322" y1="254.781" x2="445.938" y2="199.861" gradientUnits="userSpaceOnUse">
      <stop stop-color="#0080B5"/>
      <stop offset="0.07" stop-color="#0B8CBC"/>
      <stop offset="0.37" stop-color="#3BBDD9"/>
      <stop offset="0.64" stop-color="#5DE1EE"/>
      <stop offset="0.86" stop-color="#72F7FA"/>
      <stop offset="1" stop-color="#7AFFFF"/>
    </linearGradient>
    <linearGradient id="paint3_linear_1023_3428" x1="201.032" y1="245.331" x2="4.56845" y2="179.329" gradientUnits="userSpaceOnUse">
      <stop stop-color="#0080B5"/>
      <stop offset="0.07" stop-color="#0B8CBC"/>
      <stop offset="0.37" stop-color="#3BBDD9"/>
      <stop offset="0.64" stop-color="#5DE1EE"/>
      <stop offset="0.86" stop-color="#72F7FA"/>
      <stop offset="1" stop-color="#7AFFFF"/>
    </linearGradient>
    <linearGradient id="paint4_linear_1023_3428" x1="179.927" y1="369.641" x2="144.253" y2="357.893" gradientUnits="userSpaceOnUse">
      <stop stop-color="#FF9500"/>
      <stop offset="0.1" stop-color="#FFA70C"/>
      <stop offset="0.25" stop-color="#FFBB19"/>
      <stop offset="0.42" stop-color="#FFC922"/>
      <stop offset="0.64" stop-color="#FFD227"/>
      <stop offset="1" stop-color="#FFD429"/>
    </linearGradient>
    <linearGradient id="paint5_linear_1023_3428" x1="276.883" y1="380.637" x2="312.713" y2="368.792" gradientUnits="userSpaceOnUse">
      <stop stop-color="#FF9500"/>
      <stop offset="0.1" stop-color="#FFA70C"/>
      <stop offset="0.25" stop-color="#FFBB19"/>
      <stop offset="0.42" stop-color="#FFC922"/>
      <stop offset="0.64" stop-color="#FFD227"/>
      <stop offset="1" stop-color="#FFD429"/>
    </linearGradient>
    <radialGradient id="paint6_radial_1023_3428" cx="0" cy="0" r="1" gradientUnits="userSpaceOnUse" gradientTransform="translate(201.677 329.736) rotate(-2.14528) scale(47.5102 44.4988)">
      <stop stop-color="#FFD429"/>
      <stop offset="0.36" stop-color="#FFD227"/>
      <stop offset="0.58" stop-color="#FFC922"/>
      <stop offset="0.75" stop-color="#FFBB19"/>
      <stop offset="0.9" stop-color="#FFA70C"/>
      <stop offset="1" stop-color="#FF9500"/>
    </radialGradient>
    <radialGradient id="paint7_radial_1023_3428" cx="0" cy="0" r="1" gradientUnits="userSpaceOnUse" gradientTransform="translate(213.066 233.114) scale(67.4857 70.7837)">
      <stop stop-color="#FFD429"/>
      <stop offset="0.36" stop-color="#FFD227"/>
      <stop offset="0.58" stop-color="#FFC922"/>
      <stop offset="0.75" stop-color="#FFBB19"/>
      <stop offset="0.9" stop-color="#FFA70C"/>
      <stop offset="1" stop-color="#FF9500"/>
    </radialGradient>
    <radialGradient id="paint8_radial_1023_3428" cx="0" cy="0" r="1" gradientUnits="userSpaceOnUse" gradientTransform="translate(213.509 85.211) rotate(0.282446) scale(159.814 155.651)">
      <stop stop-color="#FFD429"/>
      <stop offset="0.49" stop-color="#FFD228"/>
      <stop offset="0.67" stop-color="#FFCB23"/>
      <stop offset="0.8" stop-color="#FFC01C"/>
      <stop offset="0.9" stop-color="#FFAF11"/>
      <stop offset="0.99" stop-color="#FF9903"/>
      <stop offset="1" stop-color="#FF9500"/>
    </radialGradient>
    <radialGradient id="paint9_radial_1023_3428" cx="0" cy="0" r="1" gradientUnits="userSpaceOnUse" gradientTransform="translate(219.878 136.43) rotate(0.282446) scale(82.2601 80.1174)">
      <stop stop-color="#FFD429"/>
      <stop offset="0.49" stop-color="#FFD228"/>
      <stop offset="0.67" stop-color="#FFCB23"/>
      <stop offset="0.8" stop-color="#FFC01C"/>
      <stop offset="0.9" stop-color="#FFAF11"/>
      <stop offset="0.99" stop-color="#FF9903"/>
      <stop offset="1" stop-color="#FF9500"/>
    </radialGradient>
    <linearGradient id="paint10_linear_1023_3428" x1="277.304" y1="104.881" x2="274.107" y2="160.464" gradientUnits="userSpaceOnUse">
      <stop stop-color="#00B4FF"/>
      <stop offset="0.04" stop-color="#07B8FF"/>
      <stop offset="0.35" stop-color="#38D7FF"/>
      <stop offset="0.63" stop-color="#5CEDFF"/>
      <stop offset="0.86" stop-color="#72FAFF"/>
      <stop offset="1" stop-color="#7AFFFF"/>
    </linearGradient>
    <linearGradient id="paint11_linear_1023_3428" x1="172.004" y1="109.19" x2="172.558" y2="163.129" gradientUnits="userSpaceOnUse">
      <stop stop-color="#00B4FF"/>
      <stop offset="0.04" stop-color="#07B8FF"/>
      <stop offset="0.35" stop-color="#38D7FF"/>
      <stop offset="0.63" stop-color="#5CEDFF"/>
      <stop offset="0.86" stop-color="#72FAFF"/>
      <stop offset="1" stop-color="#7AFFFF"/>
    </linearGradient>
    <radialGradient id="paint12_radial_1023_3428" cx="0" cy="0" r="1" gradientUnits="userSpaceOnUse" gradientTransform="translate(338.526 243.261) rotate(6.55623) scale(27.4145 26.7193)">
      <stop stop-color="#FF9500"/>
      <stop offset="0.3" stop-color="#FF9802"/>
      <stop offset="0.53" stop-color="#FFA208"/>
      <stop offset="0.74" stop-color="#FFB213"/>
      <stop offset="0.92" stop-color="#FFC922"/>
      <stop offset="1" stop-color="#FFD429"/>
    </radialGradient>
    <radialGradient id="paint13_radial_1023_3428" cx="0" cy="0" r="1" gradientUnits="userSpaceOnUse" gradientTransform="translate(310.178 286.662) rotate(10.0738) scale(20.4157 19.9168)">
      <stop stop-color="#FF9500"/>
      <stop offset="0.3" stop-color="#FF9802"/>
      <stop offset="0.53" stop-color="#FFA208"/>
      <stop offset="0.74" stop-color="#FFB213"/>
      <stop offset="0.92" stop-color="#FFC922"/>
      <stop offset="1" stop-color="#FFD429"/>
    </radialGradient>
    <radialGradient id="paint14_radial_1023_3428" cx="0" cy="0" r="1" gradientUnits="userSpaceOnUse" gradientTransform="translate(111.611 236.743) rotate(173.007) scale(27.1039 26.4191)">
      <stop stop-color="#FF9500"/>
      <stop offset="0.3" stop-color="#FF9802"/>
      <stop offset="0.53" stop-color="#FFA208"/>
      <stop offset="0.74" stop-color="#FFB213"/>
      <stop offset="0.92" stop-color="#FFC922"/>
      <stop offset="1" stop-color="#FFD429"/>
    </radialGradient>
    <radialGradient id="paint15_radial_1023_3428" cx="0" cy="0" r="1" gradientUnits="userSpaceOnUse" gradientTransform="translate(141.346 286.918) rotate(169.61) scale(20.3109 19.8167)">
      <stop stop-color="#FF9500"/>
      <stop offset="0.3" stop-color="#FF9802"/>
      <stop offset="0.53" stop-color="#FFA208"/>
      <stop offset="0.74" stop-color="#FFB213"/>
      <stop offset="0.92" stop-color="#FFC922"/>
      <stop offset="1" stop-color="#FFD429"/>
    </radialGradient>
  </defs>
</svg>
