<svg width="40" height="72" viewBox="0 0 40 72" fill="none"
  xmlns="http://www.w3.org/2000/svg">
  <path d="M13.7859 16.2478C13.7582 15.1924 13.6474 14.1479 13.4628 13.1303C13.2828 12.1182 13.0197 11.144 12.6828 10.2293C12.3597 9.33632 11.9397 8.52447 11.4504 7.8317C10.9843 7.11186 10.3935 6.61934 9.82117 6.14847L10.5043 4.07556C11.1966 4.71421 11.8797 5.4124 12.4151 6.3379C12.9689 7.22552 13.4259 8.24303 13.7674 9.35256C14.109 10.4296 14.3582 11.5716 14.5197 12.7461C14.6813 13.9151 14.7505 15.1058 14.7274 16.302L13.7859 16.2478Z" fill="#1D1C0C"/>
  <path d="M21.2793 18.7994C21.3706 17.5061 21.5341 16.2366 21.7738 15.0146C22.0096 13.7926 22.3177 12.6298 22.6905 11.562C23.0708 10.4646 23.5349 9.49759 24.0636 8.69674C24.5847 7.84249 25.2009 7.28486 25.8209 6.79248L26.1899 9.23064C25.6764 9.57471 25.1591 9.94251 24.7141 10.5891C24.25 11.2002 23.8392 11.9535 23.4931 12.8315C23.1355 13.7214 22.835 14.7002 22.5954 15.7443C22.3519 16.7883 22.1694 17.8858 22.0515 19.0189L21.2793 18.7994Z" fill="#1D1C0C"/>
  <path d="M29.1288 7.87879C29.0899 8.81319 28.9265 9.7092 28.6542 10.4388C28.382 11.1748 28.0125 11.7188 27.5963 12.0004C27.1801 12.2884 26.7329 12.3012 26.3128 12.0388C25.8927 11.7764 25.5194 11.258 25.2354 10.5348C24.9554 9.818 24.7765 8.93479 24.7298 8.00039C24.6831 7.06599 24.7609 6.12518 24.9632 5.28678C25.1654 4.45478 25.4766 3.76357 25.8577 3.30917C26.2389 2.85477 26.6784 2.65637 27.114 2.73317C27.4018 2.78437 27.6858 2.96357 27.9425 3.24517C28.1992 3.53317 28.4287 3.92357 28.6153 4.40358C28.802 4.88358 28.9421 5.43398 29.0315 6.02918C29.121 6.63078 29.1521 7.25799 29.1288 7.87879Z" fill="#1D1C0C"/>
  <path d="M7.04716 3.72865C7.0082 4.52976 7.10169 5.33635 7.31203 6.04418C7.52236 6.75201 7.84176 7.32267 8.23128 7.69579C8.62079 8.06891 9.05705 8.21706 9.4933 8.12378C9.92566 8.03598 10.3385 7.70676 10.6735 7.19098C11.0085 6.66971 11.25 5.97834 11.3708 5.20467C11.4915 4.43099 11.4876 3.60793 11.3552 2.83975C11.2227 2.07156 10.9696 1.39116 10.6268 0.891842C10.284 0.387033 9.87113 0.0852453 9.43488 0.0139137C9.14663 -0.0299828 8.8545 0.0303748 8.57794 0.189499C8.30139 0.354111 8.04431 0.612002 7.82229 0.957687C7.60027 1.30337 7.41719 1.72587 7.28476 2.19776C7.15622 2.68062 7.07442 3.1964 7.04716 3.72865Z" fill="#1D1C0C"/>
  <path d="M31.8782 42.5947C34.7612 40.6875 37.2709 37.3476 37.6442 33.8389C38.3065 27.5931 35.0826 22.8905 30.9691 20.7242C26.0537 18.1356 29.3328 19.9904 10.5283 13.8436C8.80113 13.2787 7.38235 12.7225 6.22005 12.1751C1.41504 9.92138 -2.32508 17.8939 1.72022 21.8248C1.85983 21.9588 2.00268 22.084 2.15527 22.2004C6.50576 25.5432 15.1743 26.2391 26.07 30.0827C35.6475 33.4633 34.2288 39.6887 31.8782 42.5947Z" fill="url(#paint0_radial_1023_3405)"/>
  <path d="M31.8782 42.5947C34.7612 40.6875 37.2709 37.3476 37.6442 33.8389C38.3065 27.5931 35.0826 22.8905 30.9691 20.7242C26.0537 18.1356 29.3328 19.9904 10.5283 13.8436C8.80113 13.2787 7.38235 12.7225 6.22005 12.1751C1.41504 9.92138 -2.32508 17.8939 1.72022 21.8248C1.85983 21.9588 2.00268 22.084 2.15527 22.2004C6.50576 25.5432 15.1743 26.2391 26.07 30.0827C35.6475 33.4633 34.2288 39.6887 31.8782 42.5947Z" fill="url(#paint1_radial_1023_3405)"/>
  <g style="mix-blend-mode:overlay" opacity="0.5">
    <path d="M26.9436 22.0648C29.7356 23.1231 31.8021 25.0621 31.5713 26.3871C31.3404 27.712 29.186 27.195 26.394 26.0962C23.6019 24.9975 21.2441 23.8825 21.4804 22.5495C21.7167 21.2164 24.157 21.0064 26.9436 22.0648Z" fill="white"/>
  </g>
  <g style="mix-blend-mode:overlay" opacity="0.5">
    <path d="M17.693 19.2355C18.4721 19.3453 19.0729 20.0198 19.0322 20.6864C18.9915 21.353 18.3244 21.8471 17.5454 21.7373C16.7663 21.6275 16.1604 20.9531 16.2012 20.2943C16.2419 19.6355 16.9089 19.1335 17.693 19.2355Z" fill="white"/>
  </g>
  <path d="M33.8132 44.4323C32.982 43.8208 32.073 43.3142 31.1055 42.9386C17.4794 39.06 16.2846 39.1416 11.7653 37.7789C9.32708 37.0422 7.43104 36.3317 5.95382 35.6532C1.33711 33.5364 -1.93225 41.5642 2.25591 44.773C2.34032 44.8371 2.42473 44.8982 2.51239 44.9564C7.61935 48.3778 16.606 49.4959 27.992 53.0163C31.6964 54.1607 33.8651 55.5263 35.4852 57.1452C37.2838 58.9418 37.7773 61.5683 36.3975 63.7696C35.1898 65.6972 31.9691 65.3827 28.3946 64.7625C22.0571 63.6648 14.0217 61.3819 11.7653 60.6045C9.47967 59.8183 7.67454 59.0408 6.24602 58.2925C1.46698 55.7942 -2.15627 64.218 2.25591 67.5986C2.34032 67.6627 2.42473 67.7238 2.51239 67.7821C5.84993 70.0183 9.01865 71.3053 15.8885 71.8178C20.9176 72.1934 30.0568 72.5458 34.5339 66.7717C34.969 66.2097 38.4494 62.9368 39.1701 57.2967C39.8389 52.0525 37.5208 47.1607 33.8132 44.4323Z" fill="#FFBC1A"/>
  <path d="M33.8132 44.4323C32.982 43.8208 32.073 43.3142 31.1055 42.9386C17.4794 39.06 16.2846 39.1416 11.7653 37.7789C9.32708 37.0422 7.43104 36.3317 5.95382 35.6532C1.33711 33.5364 -1.93225 41.5642 2.25591 44.773C2.34032 44.8371 2.42473 44.8982 2.51239 44.9564C7.61935 48.3778 16.606 49.4959 27.992 53.0163C31.6964 54.1607 33.8651 55.5263 35.4852 57.1452C37.2838 58.9418 37.7773 61.5683 36.3975 63.7696C35.1898 65.6972 31.9691 65.3827 28.3946 64.7625C22.0571 63.6648 14.0217 61.3819 11.7653 60.6045C9.47967 59.8183 7.67454 59.0408 6.24602 58.2925C1.46698 55.7942 -2.15627 64.218 2.25591 67.5986C2.34032 67.6627 2.42473 67.7238 2.51239 67.7821C5.84993 70.0183 9.01865 71.3053 15.8885 71.8178C20.9176 72.1934 30.0568 72.5458 34.5339 66.7717C34.969 66.2097 38.4494 62.9368 39.1701 57.2967C39.8389 52.0525 37.5208 47.1607 33.8132 44.4323Z" fill="url(#paint2_radial_1023_3405)"/>
  <g style="mix-blend-mode:overlay" opacity="0.5">
    <path d="M15.2846 66.4668C17.2948 66.8637 18.7827 67.5908 18.6165 68.0877C18.4503 68.5846 16.8991 68.3907 14.8888 67.9786C12.8786 67.5666 11.1809 67.1485 11.3511 66.6486C11.5212 66.1487 13.2783 66.07 15.2846 66.4668Z" fill="white"/>
  </g>
  <g style="mix-blend-mode:overlay" opacity="0.5">
    <path d="M8.76142 65.1355C9.31788 65.1826 9.74706 65.4717 9.71796 65.7574C9.68887 66.0431 9.2124 66.2548 8.65593 66.2078C8.09946 66.1607 7.66669 65.8716 7.69578 65.5893C7.72488 65.307 8.20131 65.0918 8.76142 65.1355Z" fill="white"/>
  </g>
  <path d="M23.0896 40.7196C23.0896 40.7196 23.0863 40.7196 23.0896 40.7196C27.1673 41.8145 31.1088 42.9355 31.1088 42.9355C31.1769 42.9617 31.2419 42.9908 31.3101 43.017C31.5049 42.8802 31.6964 42.7404 31.8815 42.5948C34.232 39.6859 35.6476 33.4634 26.07 30.0828C25.4077 29.8499 24.7551 29.6286 24.1123 29.416C26.7972 30.7671 30.5861 38.0757 23.0896 40.7196Z" fill="#1D1C0C"/>
  <path d="M25.6026 63.548C25.4207 63.7285 25.2324 63.8974 25.0376 64.0517C26.1837 64.3284 27.3135 64.5729 28.3979 64.7593C31.9724 65.3795 35.1964 65.694 36.4009 63.7664C37.7807 61.5651 37.2872 58.9386 35.4885 57.142C32.5114 54.1691 28.6544 53.1645 24.7325 52.0435C27.596 53.6624 30.0017 59.1453 25.6026 63.548Z" fill="#1D1C0C"/>
  <defs>
    <radialGradient id="paint0_radial_1023_3405" cx="0" cy="0" r="1" gradientUnits="userSpaceOnUse" gradientTransform="translate(16.3763 16.5099) scale(24.5266 29.6188)">
      <stop stop-color="#FFD429"/>
      <stop offset="0.49" stop-color="#FFD228"/>
      <stop offset="0.67" stop-color="#FFCB23"/>
      <stop offset="0.8" stop-color="#FFC01C"/>
      <stop offset="0.9" stop-color="#FFAF11"/>
      <stop offset="0.99" stop-color="#FF9903"/>
      <stop offset="1" stop-color="#FF9500"/>
    </radialGradient>
    <radialGradient id="paint1_radial_1023_3405" cx="0" cy="0" r="1" gradientUnits="userSpaceOnUse" gradientTransform="translate(18.163 25.8834) scale(16.1535 19.1682)">
      <stop stop-color="#FFD429"/>
      <stop offset="0.49" stop-color="#FFD228"/>
      <stop offset="0.67" stop-color="#FFCB23"/>
      <stop offset="0.8" stop-color="#FFC01C"/>
      <stop offset="0.9" stop-color="#FFAF11"/>
      <stop offset="0.99" stop-color="#FF9903"/>
      <stop offset="1" stop-color="#FF9500"/>
    </radialGradient>
    <radialGradient id="paint2_radial_1023_3405" cx="0" cy="0" r="1" gradientUnits="userSpaceOnUse" gradientTransform="translate(19.0475 52.0979) scale(16.7062 22.8282)">
      <stop stop-color="#FFD429"/>
      <stop offset="0.49" stop-color="#FFD228"/>
      <stop offset="0.67" stop-color="#FFCB23"/>
      <stop offset="0.8" stop-color="#FFC01C"/>
      <stop offset="0.9" stop-color="#FFAF11"/>
      <stop offset="0.99" stop-color="#FF9903"/>
      <stop offset="1" stop-color="#FF9500"/>
    </radialGradient>
  </defs>
</svg>
