<svg aria-hidden="true" style="position: absolute; width: 0; height: 0; overflow: hidden;" version="1.1"
  xmlns="http://www.w3.org/2000/svg"
  xmlns:xlink="http://www.w3.org/1999/xlink">
  <defs>
    <symbol id="icon-star" viewBox="0 0 32 32">
      <path d="M30.454 11.086l-9.237-0.839-3.651-8.547c-0.27-0.628-0.883-1.033-1.565-1.033s-1.296 0.405-1.564 1.033l-3.651 8.547-9.239 0.839c-0.677 0.063-1.251 0.521-1.463 1.168-0.211 0.648-0.016 1.359 0.496 1.808l6.983 6.123-2.059 9.068c-0.151 0.667 0.108 1.356 0.661 1.756 0.297 0.216 0.647 0.324 0.997 0.324 0.301 0 0.603-0.080 0.872-0.241l7.965-4.763 7.964 4.763c0.584 0.349 1.319 0.317 1.871-0.083s0.812-1.090 0.661-1.756l-2.059-9.068 6.983-6.123c0.512-0.449 0.707-1.158 0.496-1.808-0.211-0.648-0.785-1.107-1.463-1.168z"></path>
    </symbol>
    <symbol id="icon-facebook" viewBox="0 0 32 32">
      <path d="M19 6h5v-6h-5c-3.86 0-7 3.14-7 7v3h-4v6h4v16h6v-16h5l1-6h-6v-3c0-0.542 0.458-1 1-1z"></path>
    </symbol>
    <symbol id="icon-instagram" viewBox="0 0 32 32">
      <path d="M16 2.879c4.276 0 4.782 0.019 6.464 0.094 1.563 0.069 2.407 0.331 2.969 0.55 0.744 0.288 1.282 0.638 1.838 1.194 0.563 0.563 0.906 1.094 1.2 1.838 0.219 0.563 0.481 1.413 0.55 2.969 0.075 1.688 0.094 2.194 0.094 6.464s-0.019 4.782-0.094 6.464c-0.069 1.563-0.331 2.407-0.55 2.969-0.288 0.744-0.638 1.282-1.194 1.838-0.563 0.563-1.094 0.906-1.838 1.2-0.563 0.219-1.413 0.481-2.969 0.55-1.688 0.075-2.194 0.094-6.464 0.094s-4.782-0.019-6.464-0.094c-1.563-0.069-2.407-0.331-2.969-0.55-0.744-0.288-1.282-0.638-1.838-1.194-0.563-0.563-0.906-1.094-1.2-1.838-0.219-0.563-0.481-1.413-0.55-2.969-0.075-1.688-0.094-2.194-0.094-6.464s0.019-4.782 0.094-6.464c0.069-1.563 0.331-2.407 0.55-2.969 0.288-0.744 0.638-1.282 1.194-1.838 0.563-0.563 1.094-0.906 1.838-1.2 0.563-0.219 1.413-0.481 2.969-0.55 1.682-0.075 2.188-0.094 6.464-0.094zM16-0.003c-4.345 0-4.888 0.019-6.595 0.094-1.7 0.075-2.869 0.35-3.882 0.744-1.056 0.413-1.95 0.956-2.838 1.85-0.894 0.888-1.438 1.782-1.85 2.832-0.394 1.019-0.669 2.182-0.744 3.882-0.075 1.713-0.094 2.257-0.094 6.601s0.019 4.888 0.094 6.595c0.075 1.7 0.35 2.869 0.744 3.882 0.413 1.056 0.956 1.95 1.85 2.838 0.888 0.888 1.782 1.438 2.832 1.844 1.019 0.394 2.182 0.669 3.882 0.744 1.707 0.075 2.25 0.094 6.595 0.094s4.888-0.019 6.595-0.094c1.7-0.075 2.869-0.35 3.882-0.744 1.050-0.406 1.944-0.956 2.832-1.844s1.438-1.782 1.844-2.832c0.394-1.019 0.669-2.182 0.744-3.882 0.075-1.707 0.094-2.25 0.094-6.595s-0.019-4.888-0.094-6.595c-0.075-1.7-0.35-2.869-0.744-3.882-0.394-1.063-0.938-1.957-1.832-2.844-0.888-0.888-1.782-1.438-2.832-1.844-1.019-0.394-2.182-0.669-3.882-0.744-1.713-0.081-2.257-0.1-6.601-0.1v0z"></path>
      <path d="M16 7.78c-4.538 0-8.22 3.682-8.22 8.22s3.682 8.22 8.22 8.22 8.22-3.682 8.22-8.22c0-4.538-3.682-8.22-8.22-8.22zM16 21.332c-2.944 0-5.332-2.388-5.332-5.332s2.388-5.332 5.332-5.332c2.944 0 5.332 2.388 5.332 5.332s-2.388 5.332-5.332 5.332z"></path>
      <path d="M26.465 7.455c0 1.060-0.859 1.919-1.919 1.919s-1.919-0.859-1.919-1.919c0-1.060 0.859-1.919 1.919-1.919s1.919 0.859 1.919 1.919z"></path>
    </symbol>
    <symbol id="icon-twitter" viewBox="0 0 32 32">
      <path d="M32 7.075c-1.175 0.525-2.444 0.875-3.769 1.031 1.356-0.813 2.394-2.1 2.887-3.631-1.269 0.75-2.675 1.3-4.169 1.594-1.2-1.275-2.906-2.069-4.794-2.069-3.625 0-6.563 2.938-6.563 6.563 0 0.512 0.056 1.012 0.169 1.494-5.456-0.275-10.294-2.888-13.531-6.862-0.563 0.969-0.887 2.1-0.887 3.3 0 2.275 1.156 4.287 2.919 5.463-1.075-0.031-2.087-0.331-2.975-0.819 0 0.025 0 0.056 0 0.081 0 3.181 2.263 5.838 5.269 6.437-0.55 0.15-1.131 0.231-1.731 0.231-0.425 0-0.831-0.044-1.237-0.119 0.838 2.606 3.263 4.506 6.131 4.563-2.25 1.762-5.075 2.813-8.156 2.813-0.531 0-1.050-0.031-1.569-0.094 2.913 1.869 6.362 2.95 10.069 2.95 12.075 0 18.681-10.006 18.681-18.681 0-0.287-0.006-0.569-0.019-0.85 1.281-0.919 2.394-2.075 3.275-3.394z"></path>
    </symbol>
    <symbol id="icon-cross" viewBox="0 0 32 32">
      <path d="M31.708 25.708c-0-0-0-0-0-0l-9.708-9.708 9.708-9.708c0-0 0-0 0-0 0.105-0.105 0.18-0.227 0.229-0.357 0.133-0.356 0.057-0.771-0.229-1.057l-4.586-4.586c-0.286-0.286-0.702-0.361-1.057-0.229-0.13 0.048-0.252 0.124-0.357 0.228 0 0-0 0-0 0l-9.708 9.708-9.708-9.708c-0-0-0-0-0-0-0.105-0.104-0.227-0.18-0.357-0.228-0.356-0.133-0.771-0.057-1.057 0.229l-4.586 4.586c-0.286 0.286-0.361 0.702-0.229 1.057 0.049 0.13 0.124 0.252 0.229 0.357 0 0 0 0 0 0l9.708 9.708-9.708 9.708c-0 0-0 0-0 0-0.104 0.105-0.18 0.227-0.229 0.357-0.133 0.355-0.057 0.771 0.229 1.057l4.586 4.586c0.286 0.286 0.702 0.361 1.057 0.229 0.13-0.049 0.252-0.124 0.357-0.229 0-0 0-0 0-0l9.708-9.708 9.708 9.708c0 0 0 0 0 0 0.105 0.105 0.227 0.18 0.357 0.229 0.356 0.133 0.771 0.057 1.057-0.229l4.586-4.586c0.286-0.286 0.362-0.702 0.229-1.057-0.049-0.13-0.124-0.252-0.229-0.357z"></path>
    </symbol>
    <symbol id="icon-checkmark" viewBox="0 0 32 32">
      <path d="M27 4l-15 15-7-7-5 5 12 12 20-20z"></path>
    </symbol>
  </defs>
</svg>
